<?xml version="1.0" encoding="utf-8" standalone="no"?>
<!DOCTYPE svg PUBLIC "-//W3C//DTD SVG 1.1//EN"
  "http://www.w3.org/Graphics/SVG/1.1/DTD/svg11.dtd">
<!-- Created with matplotlib (https://matplotlib.org/) -->
<svg height="345.6pt" version="1.1" viewBox="0 0 460.8 345.6" width="460.8pt" xmlns="http://www.w3.org/2000/svg" xmlns:xlink="http://www.w3.org/1999/xlink">
 <metadata>
  <rdf:RDF xmlns:cc="http://creativecommons.org/ns#" xmlns:dc="http://purl.org/dc/elements/1.1/" xmlns:rdf="http://www.w3.org/1999/02/22-rdf-syntax-ns#">
   <cc:Work>
    <dc:type rdf:resource="http://purl.org/dc/dcmitype/StillImage"/>
    <dc:date>2020-08-14T22:33:22.446271</dc:date>
    <dc:format>image/svg+xml</dc:format>
    <dc:creator>
     <cc:Agent>
      <dc:title>Matplotlib v3.3.0, https://matplotlib.org/</dc:title>
     </cc:Agent>
    </dc:creator>
   </cc:Work>
  </rdf:RDF>
 </metadata>
 <defs>
  <style type="text/css">*{stroke-linecap:butt;stroke-linejoin:round;}</style>
 </defs>
 <g id="figure_1">
  <g id="patch_1">
   <path d="M 0 345.6 
L 460.8 345.6 
L 460.8 0 
L 0 0 
z
" style="fill:#ffffff;"/>
  </g>
  <g id="axes_1">
   <g id="patch_2">
    <path d="M 57.6 307.584 
L 414.72 307.584 
L 414.72 41.472 
L 57.6 41.472 
z
" style="fill:#ffffff;"/>
   </g>
   <g id="matplotlib.axis_1">
    <g id="xtick_1">
     <g id="line2d_1">
      <defs>
       <path d="M 0 0 
L 0 3.5 
" id="m08d4e42bae" style="stroke:#000000;stroke-width:0.8;"/>
      </defs>
      <g>
       <use style="stroke:#000000;stroke-width:0.8;" x="97.022338" xlink:href="#m08d4e42bae" y="307.584"/>
      </g>
     </g>
     <g id="text_1">
      <!-- 2 -->
      <g transform="translate(94.522338 321.459)scale(0.1 -0.1)">
       <defs>
        <path d="M 4.6875 3.90625 
Q 5.078125 9.765625 10.15625 14.453125 
Q 15.234375 19.140625 23.046875 29.09375 
Q 30.859375 39.0625 33.203125 44.53125 
Q 35.546875 50 34.953125 53.90625 
Q 34.375 57.8125 31.25 60.34375 
Q 28.125 62.890625 24.015625 62.5 
Q 19.921875 62.109375 16.203125 59.375 
Q 12.5 56.640625 10.546875 51.171875 
L 3.125 52.34375 
Q 6.25 61.328125 11.125 65.421875 
Q 16.015625 69.53125 22.65625 69.921875 
Q 26.5625 70.3125 29.6875 69.71875 
Q 32.8125 69.140625 36.125 66.984375 
Q 39.453125 64.84375 41.59375 60.546875 
Q 43.75 56.25 43.15625 50.1875 
Q 42.578125 44.140625 37.109375 35.734375 
Q 31.640625 27.34375 16.015625 9.375 
L 44.140625 9.375 
L 44.140625 2.34375 
L 4.6875 2.34375 
z
" id="SimHei-50"/>
       </defs>
       <use xlink:href="#SimHei-50"/>
      </g>
     </g>
    </g>
    <g id="xtick_2">
     <g id="line2d_2">
      <g>
       <use style="stroke:#000000;stroke-width:0.8;" x="143.401558" xlink:href="#m08d4e42bae" y="307.584"/>
      </g>
     </g>
     <g id="text_2">
      <!-- 3 -->
      <g transform="translate(140.901558 321.459)scale(0.1 -0.1)">
       <defs>
        <path d="M 3.90625 19.140625 
L 10.9375 20.3125 
Q 12.5 15.234375 16.015625 11.90625 
Q 19.53125 8.59375 24.796875 8.78125 
Q 30.078125 8.984375 33.203125 13.078125 
Q 36.328125 17.1875 35.9375 22.453125 
Q 35.546875 27.734375 31.828125 30.65625 
Q 28.125 33.59375 19.921875 34.765625 
L 19.921875 39.84375 
Q 28.125 40.625 31.828125 44.140625 
Q 35.546875 47.65625 35.15625 53.3125 
Q 34.765625 58.984375 30.078125 61.515625 
Q 25.390625 64.0625 20.109375 62.109375 
Q 14.84375 60.15625 11.71875 51.171875 
L 4.6875 52.34375 
Q 7.03125 59.375 11.125 64.0625 
Q 15.234375 68.75 22.265625 69.53125 
Q 29.296875 70.3125 34.5625 67.765625 
Q 39.84375 65.234375 41.984375 59.953125 
Q 44.140625 54.6875 42.578125 48.4375 
Q 41.015625 42.1875 33.59375 37.5 
Q 39.0625 35.15625 41.984375 30.46875 
Q 44.921875 25.78125 43.9375 18.15625 
Q 42.96875 10.546875 37.109375 5.859375 
Q 31.25 1.171875 23.828125 1.359375 
Q 16.40625 1.5625 10.9375 6.046875 
Q 5.46875 10.546875 3.90625 19.140625 
z
" id="SimHei-51"/>
       </defs>
       <use xlink:href="#SimHei-51"/>
      </g>
     </g>
    </g>
    <g id="xtick_3">
     <g id="line2d_3">
      <g>
       <use style="stroke:#000000;stroke-width:0.8;" x="189.780779" xlink:href="#m08d4e42bae" y="307.584"/>
      </g>
     </g>
     <g id="text_3">
      <!-- 4 -->
      <g transform="translate(187.280779 321.459)scale(0.1 -0.1)">
       <defs>
        <path d="M 31.25 17.1875 
L 1.171875 17.1875 
L 1.171875 23.828125 
L 32.8125 69.53125 
L 38.671875 69.53125 
L 38.671875 23.828125 
L 48.046875 23.828125 
L 48.046875 17.1875 
L 38.671875 17.1875 
L 38.671875 2.34375 
L 31.25 2.34375 
z
M 31.25 23.828125 
L 31.25 54.6875 
L 9.375 23.828125 
z
" id="SimHei-52"/>
       </defs>
       <use xlink:href="#SimHei-52"/>
      </g>
     </g>
    </g>
    <g id="xtick_4">
     <g id="line2d_4">
      <g>
       <use style="stroke:#000000;stroke-width:0.8;" x="236.16" xlink:href="#m08d4e42bae" y="307.584"/>
      </g>
     </g>
     <g id="text_4">
      <!-- 5 -->
      <g transform="translate(233.66 321.459)scale(0.1 -0.1)">
       <defs>
        <path d="M 8.59375 20.703125 
Q 11.328125 10.15625 17.96875 8.984375 
Q 24.609375 7.8125 28.703125 10.34375 
Q 32.8125 12.890625 34.5625 16.984375 
Q 36.328125 21.09375 36.125 26.171875 
Q 35.9375 31.25 33.390625 34.765625 
Q 30.859375 38.28125 26.953125 39.453125 
Q 23.046875 40.625 18.15625 39.453125 
Q 13.28125 38.28125 10.15625 33.984375 
L 3.515625 34.765625 
Q 4.296875 37.109375 10.9375 68.359375 
L 41.796875 68.359375 
L 41.796875 61.328125 
L 16.796875 61.328125 
Q 14.84375 50.78125 12.890625 44.53125 
Q 18.75 47.265625 23.828125 47.0625 
Q 28.90625 46.875 33.59375 44.71875 
Q 38.28125 42.578125 40.421875 38.859375 
Q 42.578125 35.15625 43.546875 31.4375 
Q 44.53125 27.734375 44.328125 23.4375 
Q 44.140625 19.140625 42.578125 14.640625 
Q 41.015625 10.15625 37.890625 7.21875 
Q 34.765625 4.296875 30.265625 2.53125 
Q 25.78125 0.78125 19.921875 1.171875 
Q 14.0625 1.5625 8.78125 5.46875 
Q 3.515625 9.375 1.5625 18.75 
z
" id="SimHei-53"/>
       </defs>
       <use xlink:href="#SimHei-53"/>
      </g>
     </g>
    </g>
    <g id="xtick_5">
     <g id="line2d_5">
      <g>
       <use style="stroke:#000000;stroke-width:0.8;" x="282.539221" xlink:href="#m08d4e42bae" y="307.584"/>
      </g>
     </g>
     <g id="text_5">
      <!-- 6 -->
      <g transform="translate(280.039221 321.459)scale(0.1 -0.1)">
       <defs>
        <path d="M 3.515625 19.53125 
Q 4.296875 30.859375 6.046875 34.765625 
Q 7.8125 38.671875 11.328125 44.53125 
L 27.34375 69.53125 
L 36.328125 69.53125 
L 19.921875 43.75 
Q 30.46875 46.484375 36.71875 42.96875 
Q 42.96875 39.453125 45.109375 34.953125 
Q 47.265625 30.46875 47.453125 25.1875 
Q 47.65625 19.921875 45.890625 14.84375 
Q 44.140625 9.765625 39.640625 5.65625 
Q 35.15625 1.5625 27.140625 1.171875 
Q 19.140625 0.78125 13.46875 4.09375 
Q 7.8125 7.421875 5.65625 13.46875 
Q 3.515625 19.53125 4.296875 30.859375 
z
M 12.5 16.015625 
Q 19.53125 8.59375 25.390625 8.203125 
Q 31.25 7.8125 35.15625 12.109375 
Q 39.0625 16.40625 39.0625 24.609375 
Q 39.0625 32.8125 34.171875 35.9375 
Q 29.296875 39.0625 23.234375 38.28125 
Q 17.1875 37.5 14.453125 32.421875 
Q 11.71875 27.34375 12.109375 21.671875 
Q 12.5 16.015625 19.53125 8.59375 
z
" id="SimHei-54"/>
       </defs>
       <use xlink:href="#SimHei-54"/>
      </g>
     </g>
    </g>
    <g id="xtick_6">
     <g id="line2d_6">
      <g>
       <use style="stroke:#000000;stroke-width:0.8;" x="328.918442" xlink:href="#m08d4e42bae" y="307.584"/>
      </g>
     </g>
     <g id="text_6">
      <!-- 7 -->
      <g transform="translate(326.418442 321.459)scale(0.1 -0.1)">
       <defs>
        <path d="M 13.28125 2.34375 
Q 20.3125 32.03125 37.890625 61.328125 
L 4.296875 61.328125 
L 4.296875 68.359375 
L 46.09375 68.359375 
L 46.09375 61.71875 
Q 27.734375 32.03125 21.875 2.34375 
L 13.28125 2.34375 
z
" id="SimHei-55"/>
       </defs>
       <use xlink:href="#SimHei-55"/>
      </g>
     </g>
    </g>
    <g id="xtick_7">
     <g id="line2d_7">
      <g>
       <use style="stroke:#000000;stroke-width:0.8;" x="375.297662" xlink:href="#m08d4e42bae" y="307.584"/>
      </g>
     </g>
     <g id="text_7">
      <!-- 8 -->
      <g transform="translate(372.797662 321.459)scale(0.1 -0.1)">
       <defs>
        <path d="M 2.734375 16.796875 
Q 2.734375 26.171875 5.078125 30.65625 
Q 7.421875 35.15625 12.890625 37.890625 
Q 8.203125 40.625 6.640625 43.9375 
Q 5.078125 47.265625 4.875 51.5625 
Q 4.6875 55.859375 6.046875 58.984375 
Q 7.421875 62.109375 10.15625 64.84375 
Q 12.890625 67.578125 16.203125 68.546875 
Q 19.53125 69.53125 23.4375 69.53125 
Q 27.34375 69.53125 30.46875 68.75 
Q 33.59375 67.96875 37.109375 65.421875 
Q 40.625 62.890625 42.1875 58.203125 
Q 43.75 53.515625 41.984375 47.265625 
Q 40.234375 41.015625 32.8125 37.5 
Q 39.453125 35.546875 42.1875 31.4375 
Q 44.921875 27.34375 44.921875 21.484375 
Q 44.921875 15.625 43.15625 12.109375 
Q 41.40625 8.59375 39.25 6.25 
Q 37.109375 3.90625 33.390625 2.53125 
Q 29.6875 1.171875 24.015625 1.171875 
Q 18.359375 1.171875 14.25 2.53125 
Q 10.15625 3.90625 7.421875 6.640625 
Q 4.6875 9.375 3.703125 13.078125 
Q 2.734375 16.796875 2.734375 26.171875 
z
M 10.9375 26.5625 
Q 10.546875 17.1875 12.296875 13.671875 
Q 14.0625 10.15625 18.75 9.171875 
Q 23.4375 8.203125 28.515625 9.375 
Q 33.59375 10.546875 35.546875 14.84375 
Q 37.5 19.140625 36.90625 23.4375 
Q 36.328125 27.734375 32.03125 30.65625 
Q 27.734375 33.59375 22.65625 33.203125 
Q 17.578125 32.8125 14.25 29.6875 
Q 10.9375 26.5625 10.546875 17.1875 
z
M 12.109375 56.25 
Q 12.109375 48.4375 14.84375 44.921875 
Q 17.578125 41.40625 23.4375 41.40625 
Q 29.296875 41.40625 32.21875 44.921875 
Q 35.15625 48.4375 34.953125 53.3125 
Q 34.765625 58.203125 31.4375 60.546875 
Q 28.125 62.890625 22.453125 62.5 
Q 16.796875 62.109375 14.453125 59.171875 
Q 12.109375 56.25 12.109375 48.4375 
z
" id="SimHei-56"/>
       </defs>
       <use xlink:href="#SimHei-56"/>
      </g>
     </g>
    </g>
    <g id="text_8">
     <!-- w rad/s -->
     <g transform="translate(218.66 333.584)scale(0.1 -0.1)">
      <defs>
       <path d="M 48.046875 45.703125 
L 38.28125 1.171875 
L 30.859375 1.171875 
L 24.609375 35.15625 
L 23.828125 35.15625 
L 17.578125 1.171875 
L 10.15625 1.171875 
L 0.390625 45.703125 
L 8.59375 45.703125 
L 13.671875 16.40625 
L 14.453125 16.40625 
L 19.921875 45.703125 
L 28.515625 45.703125 
L 33.984375 16.40625 
L 34.765625 16.40625 
L 39.84375 45.703125 
z
" id="SimHei-119"/>
       <path id="SimHei-32"/>
       <path d="M 39.0625 37.890625 
Q 31.640625 39.0625 26.5625 35.734375 
Q 21.484375 32.421875 17.96875 24.21875 
L 17.96875 1.953125 
L 10.15625 1.953125 
L 10.15625 45.703125 
L 17.96875 45.703125 
L 17.96875 34.375 
Q 21.484375 40.625 26.75 43.546875 
Q 32.03125 46.484375 39.0625 46.484375 
z
" id="SimHei-114"/>
       <path d="M 44.921875 1.953125 
L 35.546875 1.953125 
Q 34.765625 2.734375 34.375 4.09375 
Q 33.984375 5.46875 33.984375 7.421875 
Q 31.25 4.296875 27.34375 2.734375 
Q 23.4375 1.171875 19.140625 1.171875 
Q 12.890625 1.171875 8.59375 4.296875 
Q 4.296875 7.421875 4.296875 13.28125 
Q 4.296875 19.140625 8.203125 22.65625 
Q 12.109375 26.171875 20.3125 27.34375 
Q 25.78125 28.125 29.875 29.296875 
Q 33.984375 30.46875 33.984375 32.421875 
Q 33.984375 34.765625 32.21875 37.109375 
Q 30.46875 39.453125 24.609375 39.453125 
Q 19.921875 39.453125 17.765625 37.6875 
Q 15.625 35.9375 14.84375 32.8125 
L 6.25 32.8125 
Q 7.03125 39.0625 11.90625 42.765625 
Q 16.796875 46.484375 24.609375 46.484375 
Q 33.203125 46.484375 37.5 42.578125 
Q 41.796875 38.671875 41.796875 31.640625 
L 41.796875 10.15625 
Q 41.796875 7.8125 42.578125 5.859375 
Q 43.359375 3.90625 44.921875 1.953125 
z
M 33.984375 16.40625 
L 33.984375 24.21875 
Q 31.640625 23.4375 29.484375 22.84375 
Q 27.34375 22.265625 22.265625 21.484375 
Q 16.40625 20.703125 14.640625 18.75 
Q 12.890625 16.796875 12.890625 14.0625 
Q 12.890625 11.71875 14.640625 9.953125 
Q 16.40625 8.203125 19.921875 8.203125 
Q 23.4375 8.203125 27.53125 10.15625 
Q 31.640625 12.109375 33.984375 16.40625 
z
" id="SimHei-97"/>
       <path d="M 42.96875 1.953125 
L 35.15625 1.953125 
L 35.15625 7.8125 
Q 32.8125 4.296875 29.6875 2.734375 
Q 26.5625 1.171875 22.265625 1.171875 
Q 14.453125 1.171875 8.984375 6.828125 
Q 3.515625 12.5 3.515625 23.828125 
Q 3.515625 35.15625 8.984375 41.015625 
Q 14.453125 46.875 22.265625 46.875 
Q 26.5625 46.875 29.6875 45.109375 
Q 32.8125 43.359375 35.15625 39.84375 
L 35.15625 68.75 
L 42.96875 68.75 
z
M 35.15625 23.828125 
Q 35.15625 31.25 31.828125 35.546875 
Q 28.515625 39.84375 23.828125 39.84375 
Q 17.96875 39.84375 15.03125 35.546875 
Q 12.109375 31.25 12.109375 23.828125 
Q 12.109375 16.40625 15.03125 12.296875 
Q 17.96875 8.203125 23.828125 8.203125 
Q 28.515625 8.203125 31.828125 12.296875 
Q 35.15625 16.40625 35.15625 23.828125 
z
" id="SimHei-100"/>
       <path d="M 46.875 71.09375 
L 5.46875 -2.734375 
L 1.5625 -0.390625 
L 42.96875 73.4375 
z
" id="SimHei-47"/>
       <path d="M 42.96875 14.0625 
Q 42.96875 7.8125 38.078125 4.484375 
Q 33.203125 1.171875 25.78125 1.171875 
Q 16.40625 1.171875 11.328125 4.875 
Q 6.25 8.59375 6.25 15.625 
L 14.0625 15.625 
Q 14.0625 10.9375 17.375 9.375 
Q 20.703125 7.8125 25.390625 7.8125 
Q 30.078125 7.8125 32.421875 9.5625 
Q 34.765625 11.328125 34.765625 14.0625 
Q 34.765625 16.015625 32.8125 17.96875 
Q 30.859375 19.921875 23.046875 21.09375 
Q 14.0625 22.265625 10.734375 25.578125 
Q 7.421875 28.90625 7.421875 34.375 
Q 7.421875 39.0625 11.90625 42.765625 
Q 16.40625 46.484375 25 46.484375 
Q 32.8125 46.484375 37.296875 42.96875 
Q 41.796875 39.453125 41.796875 33.59375 
L 33.984375 33.59375 
Q 33.984375 37.109375 31.4375 38.46875 
Q 28.90625 39.84375 25 39.84375 
Q 19.921875 39.84375 17.765625 38.078125 
Q 15.625 36.328125 15.625 33.984375 
Q 15.625 31.25 17.578125 29.6875 
Q 19.53125 28.125 25.78125 27.34375 
Q 35.9375 25.78125 39.453125 22.453125 
Q 42.96875 19.140625 42.96875 14.0625 
z
" id="SimHei-115"/>
      </defs>
      <use xlink:href="#SimHei-119"/>
      <use x="50" xlink:href="#SimHei-32"/>
      <use x="100" xlink:href="#SimHei-114"/>
      <use x="150" xlink:href="#SimHei-97"/>
      <use x="200" xlink:href="#SimHei-100"/>
      <use x="250" xlink:href="#SimHei-47"/>
      <use x="300" xlink:href="#SimHei-115"/>
     </g>
    </g>
   </g>
   <g id="matplotlib.axis_2">
    <g id="ytick_1">
     <g id="line2d_8">
      <defs>
       <path d="M 0 0 
L -3.5 0 
" id="m6e82bc7c51" style="stroke:#000000;stroke-width:0.8;"/>
      </defs>
      <g>
       <use style="stroke:#000000;stroke-width:0.8;" x="57.6" xlink:href="#m6e82bc7c51" y="295.488"/>
      </g>
     </g>
     <g id="text_9">
      <!-- 0.000 -->
      <g transform="translate(25.6 298.9255)scale(0.1 -0.1)">
       <defs>
        <path d="M 3.125 29.296875 
Q 3.90625 50 6.4375 56.046875 
Q 8.984375 62.109375 13.671875 66.015625 
Q 18.359375 69.921875 25.1875 69.921875 
Q 32.03125 69.921875 37.109375 64.25 
Q 42.1875 58.59375 43.75 50 
Q 45.3125 41.40625 44.71875 30.265625 
Q 44.140625 19.140625 40.8125 12.109375 
Q 37.5 5.078125 30.859375 2.34375 
Q 24.21875 -0.390625 17.578125 2.921875 
Q 10.9375 6.25 8.203125 11.71875 
Q 5.46875 17.1875 4.296875 23.234375 
Q 3.125 29.296875 3.90625 50 
z
M 12.890625 52.734375 
Q 10.546875 31.25 12.5 22.84375 
Q 14.453125 14.453125 18.9375 10.9375 
Q 23.4375 7.421875 28.125 9.5625 
Q 32.8125 11.71875 34.953125 18.15625 
Q 37.109375 24.609375 37.109375 32.21875 
Q 37.109375 39.84375 36.515625 46.09375 
Q 35.9375 52.34375 33 57.421875 
Q 30.078125 62.5 25.1875 62.6875 
Q 20.3125 62.890625 16.59375 57.8125 
Q 12.890625 52.734375 10.546875 31.25 
z
" id="SimHei-48"/>
        <path d="M 16.796875 1.953125 
L 7.8125 1.953125 
L 7.8125 10.546875 
L 16.796875 10.546875 
z
" id="SimHei-46"/>
       </defs>
       <use xlink:href="#SimHei-48"/>
       <use x="50" xlink:href="#SimHei-46"/>
       <use x="100" xlink:href="#SimHei-48"/>
       <use x="150" xlink:href="#SimHei-48"/>
       <use x="200" xlink:href="#SimHei-48"/>
      </g>
     </g>
    </g>
    <g id="ytick_2">
     <g id="line2d_9">
      <g>
       <use style="stroke:#000000;stroke-width:0.8;" x="57.6" xlink:href="#m6e82bc7c51" y="265.410746"/>
      </g>
     </g>
     <g id="text_10">
      <!-- 0.025 -->
      <g transform="translate(25.6 268.848246)scale(0.1 -0.1)">
       <use xlink:href="#SimHei-48"/>
       <use x="50" xlink:href="#SimHei-46"/>
       <use x="100" xlink:href="#SimHei-48"/>
       <use x="150" xlink:href="#SimHei-50"/>
       <use x="200" xlink:href="#SimHei-53"/>
      </g>
     </g>
    </g>
    <g id="ytick_3">
     <g id="line2d_10">
      <g>
       <use style="stroke:#000000;stroke-width:0.8;" x="57.6" xlink:href="#m6e82bc7c51" y="235.333491"/>
      </g>
     </g>
     <g id="text_11">
      <!-- 0.050 -->
      <g transform="translate(25.6 238.770991)scale(0.1 -0.1)">
       <use xlink:href="#SimHei-48"/>
       <use x="50" xlink:href="#SimHei-46"/>
       <use x="100" xlink:href="#SimHei-48"/>
       <use x="150" xlink:href="#SimHei-53"/>
       <use x="200" xlink:href="#SimHei-48"/>
      </g>
     </g>
    </g>
    <g id="ytick_4">
     <g id="line2d_11">
      <g>
       <use style="stroke:#000000;stroke-width:0.8;" x="57.6" xlink:href="#m6e82bc7c51" y="205.256237"/>
      </g>
     </g>
     <g id="text_12">
      <!-- 0.075 -->
      <g transform="translate(25.6 208.693737)scale(0.1 -0.1)">
       <use xlink:href="#SimHei-48"/>
       <use x="50" xlink:href="#SimHei-46"/>
       <use x="100" xlink:href="#SimHei-48"/>
       <use x="150" xlink:href="#SimHei-55"/>
       <use x="200" xlink:href="#SimHei-53"/>
      </g>
     </g>
    </g>
    <g id="ytick_5">
     <g id="line2d_12">
      <g>
       <use style="stroke:#000000;stroke-width:0.8;" x="57.6" xlink:href="#m6e82bc7c51" y="175.178982"/>
      </g>
     </g>
     <g id="text_13">
      <!-- 0.100 -->
      <g transform="translate(25.6 178.616482)scale(0.1 -0.1)">
       <defs>
        <path d="M 21.875 56.25 
Q 16.796875 51.171875 8.984375 46.484375 
L 8.984375 53.90625 
Q 18.75 60.546875 25 69.53125 
L 29.6875 69.53125 
L 29.6875 2.34375 
L 21.875 2.34375 
z
" id="SimHei-49"/>
       </defs>
       <use xlink:href="#SimHei-48"/>
       <use x="50" xlink:href="#SimHei-46"/>
       <use x="100" xlink:href="#SimHei-49"/>
       <use x="150" xlink:href="#SimHei-48"/>
       <use x="200" xlink:href="#SimHei-48"/>
      </g>
     </g>
    </g>
    <g id="ytick_6">
     <g id="line2d_13">
      <g>
       <use style="stroke:#000000;stroke-width:0.8;" x="57.6" xlink:href="#m6e82bc7c51" y="145.101728"/>
      </g>
     </g>
     <g id="text_14">
      <!-- 0.125 -->
      <g transform="translate(25.6 148.539228)scale(0.1 -0.1)">
       <use xlink:href="#SimHei-48"/>
       <use x="50" xlink:href="#SimHei-46"/>
       <use x="100" xlink:href="#SimHei-49"/>
       <use x="150" xlink:href="#SimHei-50"/>
       <use x="200" xlink:href="#SimHei-53"/>
      </g>
     </g>
    </g>
    <g id="ytick_7">
     <g id="line2d_14">
      <g>
       <use style="stroke:#000000;stroke-width:0.8;" x="57.6" xlink:href="#m6e82bc7c51" y="115.024474"/>
      </g>
     </g>
     <g id="text_15">
      <!-- 0.150 -->
      <g transform="translate(25.6 118.461974)scale(0.1 -0.1)">
       <use xlink:href="#SimHei-48"/>
       <use x="50" xlink:href="#SimHei-46"/>
       <use x="100" xlink:href="#SimHei-49"/>
       <use x="150" xlink:href="#SimHei-53"/>
       <use x="200" xlink:href="#SimHei-48"/>
      </g>
     </g>
    </g>
    <g id="ytick_8">
     <g id="line2d_15">
      <g>
       <use style="stroke:#000000;stroke-width:0.8;" x="57.6" xlink:href="#m6e82bc7c51" y="84.947219"/>
      </g>
     </g>
     <g id="text_16">
      <!-- 0.175 -->
      <g transform="translate(25.6 88.384719)scale(0.1 -0.1)">
       <use xlink:href="#SimHei-48"/>
       <use x="50" xlink:href="#SimHei-46"/>
       <use x="100" xlink:href="#SimHei-49"/>
       <use x="150" xlink:href="#SimHei-55"/>
       <use x="200" xlink:href="#SimHei-53"/>
      </g>
     </g>
    </g>
    <g id="ytick_9">
     <g id="line2d_16">
      <g>
       <use style="stroke:#000000;stroke-width:0.8;" x="57.6" xlink:href="#m6e82bc7c51" y="54.869965"/>
      </g>
     </g>
     <g id="text_17">
      <!-- 0.200 -->
      <g transform="translate(25.6 58.307465)scale(0.1 -0.1)">
       <use xlink:href="#SimHei-48"/>
       <use x="50" xlink:href="#SimHei-46"/>
       <use x="100" xlink:href="#SimHei-50"/>
       <use x="150" xlink:href="#SimHei-48"/>
       <use x="200" xlink:href="#SimHei-48"/>
      </g>
     </g>
    </g>
    <g id="text_18">
     <!-- Aera -->
     <g transform="translate(20.35 184.528)rotate(-90)scale(0.1 -0.1)">
      <defs>
       <path d="M 48.046875 1.953125 
L 38.671875 1.953125 
L 33.203125 22.65625 
L 16.015625 22.65625 
L 10.546875 1.953125 
L 1.171875 1.953125 
L 20.703125 69.53125 
L 28.515625 69.53125 
z
M 31.25 30.078125 
L 25 53.90625 
L 24.21875 53.90625 
L 17.96875 30.078125 
z
" id="SimHei-65"/>
       <path d="M 44.53125 16.796875 
Q 43.75 9.765625 38.28125 5.46875 
Q 32.8125 1.171875 25.390625 1.171875 
Q 16.015625 1.171875 9.953125 7.21875 
Q 3.90625 13.28125 3.90625 23.828125 
Q 3.90625 34.375 9.953125 40.421875 
Q 16.015625 46.484375 25.390625 46.484375 
Q 33.59375 46.484375 38.859375 41.203125 
Q 44.140625 35.9375 44.140625 23.828125 
L 12.5 23.828125 
Q 12.5 15.234375 16.203125 11.71875 
Q 19.921875 8.203125 25.390625 8.203125 
Q 29.6875 8.203125 32.421875 10.34375 
Q 35.15625 12.5 35.9375 16.796875 
z
M 35.15625 30.078125 
Q 34.375 35.546875 31.640625 37.6875 
Q 28.90625 39.84375 24.609375 39.84375 
Q 20.703125 39.84375 17.578125 37.6875 
Q 14.453125 35.546875 12.890625 30.078125 
z
" id="SimHei-101"/>
      </defs>
      <use xlink:href="#SimHei-65"/>
      <use x="50" xlink:href="#SimHei-101"/>
      <use x="100" xlink:href="#SimHei-114"/>
      <use x="150" xlink:href="#SimHei-97"/>
     </g>
    </g>
   </g>
   <g id="line2d_17">
    <path clip-path="url(#pb393201bf4)" d="M 73.832727 295.488 
L 77.635823 295.289011 
L 80.186681 294.939772 
L 82.227366 294.443643 
L 84.036156 293.780949 
L 85.705808 292.937591 
L 87.329081 291.867831 
L 88.905974 290.563824 
L 90.529247 288.92502 
L 92.152519 286.968127 
L 93.868551 284.542563 
L 95.67734 281.586357 
L 97.578888 278.045197 
L 99.665953 273.672207 
L 101.938535 268.379409 
L 104.489392 261.861553 
L 107.504042 253.517478 
L 111.260758 242.42226 
L 117.429195 223.392827 
L 124.710732 201.127422 
L 129.302275 187.809511 
L 133.337268 176.773774 
L 137.093984 167.132158 
L 140.711564 158.451957 
L 144.236384 150.569012 
L 147.668447 143.429595 
L 151.05413 136.888067 
L 154.439813 130.822615 
L 157.825496 125.208079 
L 161.211179 120.017483 
L 164.643242 115.160092 
L 168.121683 110.62311 
L 171.646504 106.392359 
L 175.217704 102.452775 
L 178.881662 98.743837 
L 182.592 95.302296 
L 186.441475 92.036374 
L 190.383709 88.983837 
L 194.465081 86.105313 
L 198.68559 83.400466 
L 203.091616 80.841519 
L 207.683158 78.432246 
L 212.506597 76.153215 
L 217.608312 73.991526 
L 222.988301 71.95606 
L 228.692945 70.037526 
L 234.768623 68.23043 
L 241.308094 66.52068 
L 248.311356 64.921638 
L 255.917548 63.415927 
L 264.173049 62.01085 
L 273.216997 60.699579 
L 283.234909 59.475928 
L 294.365922 58.344965 
L 306.841932 57.305411 
L 320.987595 56.354873 
L 337.220322 55.492649 
L 356.096665 54.718839 
L 378.451449 54.032002 
L 398.487273 53.568 
L 398.487273 53.568 
" style="fill:none;stroke:#0000ff;stroke-linecap:square;stroke-width:1.5;"/>
   </g>
   <g id="line2d_18">
    <path clip-path="url(#pb393201bf4)" d="M 73.832727 53.568 
L 77.635823 53.766989 
L 80.186681 54.116228 
L 82.227366 54.612357 
L 84.036156 55.275051 
L 85.705808 56.118409 
L 87.329081 57.188169 
L 88.905974 58.492176 
L 90.529247 60.13098 
L 92.152519 62.087873 
L 93.868551 64.513437 
L 95.67734 67.469643 
L 97.578888 71.010803 
L 99.665953 75.383793 
L 101.938535 80.676591 
L 104.489392 87.194447 
L 107.504042 95.538522 
L 111.260758 106.63374 
L 117.429195 125.663173 
L 124.710732 147.928578 
L 129.302275 161.246489 
L 133.337268 172.282226 
L 137.093984 181.923842 
L 140.711564 190.604043 
L 144.236384 198.486988 
L 147.668447 205.626405 
L 151.05413 212.167933 
L 154.439813 218.233385 
L 157.825496 223.847921 
L 161.211179 229.038517 
L 164.643242 233.895908 
L 168.121683 238.43289 
L 171.646504 242.663641 
L 175.217704 246.603225 
L 178.881662 250.312163 
L 182.592 253.753704 
L 186.441475 257.019626 
L 190.383709 260.072163 
L 194.465081 262.950687 
L 198.68559 265.655534 
L 203.091616 268.214481 
L 207.683158 270.623754 
L 212.506597 272.902785 
L 217.608312 275.064474 
L 222.988301 277.09994 
L 228.692945 279.018474 
L 234.768623 280.82557 
L 241.308094 282.53532 
L 248.311356 284.134362 
L 255.917548 285.640073 
L 264.173049 287.04515 
L 273.216997 288.356421 
L 283.234909 289.580072 
L 294.365922 290.711035 
L 306.841932 291.750589 
L 320.987595 292.701127 
L 337.220322 293.563351 
L 356.096665 294.337161 
L 378.451449 295.023998 
L 398.487273 295.488 
L 398.487273 295.488 
" style="fill:none;stroke:#ff0000;stroke-linecap:square;stroke-width:1.5;"/>
   </g>
   <g id="patch_3">
    <path d="M 57.6 307.584 
L 57.6 41.472 
" style="fill:none;stroke:#000000;stroke-linecap:square;stroke-linejoin:miter;stroke-width:0.8;"/>
   </g>
   <g id="patch_4">
    <path d="M 414.72 307.584 
L 414.72 41.472 
" style="fill:none;stroke:#000000;stroke-linecap:square;stroke-linejoin:miter;stroke-width:0.8;"/>
   </g>
   <g id="patch_5">
    <path d="M 57.6 307.584 
L 414.72 307.584 
" style="fill:none;stroke:#000000;stroke-linecap:square;stroke-linejoin:miter;stroke-width:0.8;"/>
   </g>
   <g id="patch_6">
    <path d="M 57.6 41.472 
L 414.72 41.472 
" style="fill:none;stroke:#000000;stroke-linecap:square;stroke-linejoin:miter;stroke-width:0.8;"/>
   </g>
   <g id="text_19">
    <!-- w=2.801000 -->
    <g transform="translate(134.172094 174.291104)scale(0.1 -0.1)">
     <defs>
      <path d="M 46.484375 45.3125 
L 1.953125 45.3125 
L 1.953125 51.5625 
L 46.484375 51.5625 
z
M 46.484375 21.484375 
L 1.953125 21.484375 
L 1.953125 27.734375 
L 46.484375 27.734375 
z
" id="SimHei-61"/>
     </defs>
     <use xlink:href="#SimHei-119"/>
     <use x="50" xlink:href="#SimHei-61"/>
     <use x="100" xlink:href="#SimHei-50"/>
     <use x="150" xlink:href="#SimHei-46"/>
     <use x="200" xlink:href="#SimHei-56"/>
     <use x="250" xlink:href="#SimHei-48"/>
     <use x="300" xlink:href="#SimHei-49"/>
     <use x="350" xlink:href="#SimHei-48"/>
     <use x="400" xlink:href="#SimHei-48"/>
     <use x="450" xlink:href="#SimHei-48"/>
    </g>
   </g>
   <g id="text_20">
    <!-- 全局积分 -->
    <g transform="translate(212.16 35.472)scale(0.12 -0.12)">
     <defs>
      <path d="M 54.296875 75.390625 
Q 67.96875 53.515625 95.703125 47.265625 
Q 92.1875 42.96875 91.015625 38.28125 
Q 83.203125 41.40625 77.734375 44.921875 
L 77.734375 38.671875 
Q 73.4375 39.0625 64.0625 39.0625 
L 54.6875 39.0625 
L 54.6875 23.4375 
L 69.53125 23.4375 
Q 77.734375 23.4375 82.8125 23.828125 
L 82.8125 16.796875 
Q 77.734375 17.1875 69.53125 17.1875 
L 54.6875 17.1875 
L 54.6875 -0.390625 
L 69.921875 -0.390625 
Q 81.640625 -0.390625 89.0625 0.390625 
L 89.0625 -7.8125 
Q 82.03125 -6.640625 70.703125 -6.640625 
L 27.734375 -6.640625 
Q 16.015625 -6.640625 10.15625 -7.03125 
L 10.15625 0 
Q 16.015625 -0.390625 27.734375 -0.390625 
L 46.875 -0.390625 
L 46.875 17.1875 
L 35.9375 17.1875 
Q 22.65625 17.1875 18.359375 16.796875 
L 18.359375 23.828125 
Q 22.65625 23.4375 35.546875 23.4375 
L 46.875 23.4375 
L 46.875 39.0625 
L 39.0625 39.0625 
Q 26.953125 39.0625 23.4375 38.671875 
L 23.4375 44.921875 
Q 19.921875 42.1875 10.15625 36.71875 
Q 7.8125 41.40625 4.6875 44.921875 
Q 14.0625 47.265625 26.5625 56.640625 
Q 39.0625 66.015625 46.484375 81.25 
Q 51.171875 79.296875 56.25 77.34375 
z
M 25.78125 46.09375 
Q 30.46875 45.703125 39.453125 45.703125 
L 62.890625 45.703125 
Q 70.703125 45.703125 75 46.09375 
Q 58.203125 54.6875 50 71.09375 
Q 39.453125 55.078125 25.78125 46.09375 
z
" id="SimHei-20840"/>
      <path d="M 92.1875 3.515625 
Q 91.015625 -5.078125 86.515625 -6.828125 
Q 82.03125 -8.59375 75 -8.984375 
Q 74.21875 -3.515625 71.484375 0.78125 
Q 80.859375 0 82.421875 1.171875 
Q 83.984375 2.34375 84.765625 6.25 
L 85.546875 36.71875 
L 25.78125 36.71875 
Q 24.21875 17.96875 20.5 8.203125 
Q 16.796875 -1.5625 12.109375 -7.8125 
Q 8.59375 -4.296875 3.90625 -3.125 
Q 9.765625 3.515625 12.890625 11.90625 
Q 16.015625 20.3125 17.1875 28.703125 
Q 18.359375 37.109375 18.359375 44.921875 
L 18.359375 57.03125 
Q 18.359375 60.9375 17.96875 78.90625 
L 86.71875 78.90625 
Q 86.328125 72.65625 86.328125 66.40625 
Q 86.328125 60.15625 86.71875 53.90625 
L 26.171875 53.90625 
L 26.171875 43.359375 
L 93.75 43.359375 
L 92.1875 3.515625 
z
M 70.3125 29.296875 
Q 69.921875 21.875 70.109375 16.015625 
Q 70.3125 10.15625 70.3125 3.125 
L 32.421875 3.125 
Q 33.203125 8.203125 33.203125 14.84375 
Q 33.203125 21.875 32.8125 29.296875 
L 70.3125 29.296875 
z
M 79.296875 60.546875 
L 79.296875 72.265625 
L 26.171875 72.265625 
L 26.171875 60.546875 
z
M 62.890625 9.375 
L 62.890625 22.65625 
L 40.625 22.65625 
L 40.625 9.375 
z
" id="SimHei-23616"/>
      <path d="M 88.671875 73.4375 
Q 88.28125 66.796875 88.28125 55.859375 
L 88.28125 42.96875 
Q 88.28125 34.765625 88.671875 27.34375 
L 48.4375 27.34375 
Q 48.828125 34.765625 48.828125 42.96875 
L 48.828125 56.25 
Q 48.828125 66.796875 48.4375 73.4375 
L 88.671875 73.4375 
z
M 44.53125 72.265625 
Q 40.625 71.484375 37.5 70.703125 
Q 34.375 69.921875 30.078125 69.140625 
L 30.078125 51.171875 
Q 39.453125 51.171875 44.921875 51.5625 
L 44.921875 44.140625 
Q 39.453125 44.53125 30.078125 44.53125 
L 30.078125 32.421875 
Q 33.203125 34.765625 35.15625 36.71875 
Q 41.40625 27.734375 44.921875 22.65625 
Q 42.96875 21.484375 38.28125 17.96875 
Q 35.15625 24.609375 30.078125 31.25 
L 30.078125 4.6875 
Q 30.078125 -1.171875 30.46875 -10.546875 
L 22.265625 -10.546875 
Q 23.046875 -1.171875 23.046875 4.6875 
L 23.046875 30.078125 
Q 19.921875 23.046875 17.578125 19.140625 
Q 15.234375 15.234375 10.15625 8.203125 
Q 7.03125 10.9375 3.125 12.890625 
Q 8.984375 18.75 14.0625 27.34375 
Q 19.140625 35.9375 21.484375 44.53125 
Q 16.015625 44.53125 4.6875 44.140625 
L 4.6875 51.5625 
Q 16.015625 51.171875 23.046875 51.171875 
L 23.046875 67.578125 
Q 15.234375 66.40625 8.203125 65.234375 
Q 7.03125 68.75 5.46875 72.265625 
Q 10.546875 71.875 22.84375 74.21875 
Q 35.15625 76.5625 39.84375 79.296875 
Q 42.578125 74.609375 44.53125 72.265625 
z
M 80.859375 33.984375 
L 80.859375 67.1875 
L 55.859375 67.1875 
L 55.859375 33.984375 
z
M 62.890625 16.796875 
Q 60.546875 13.28125 54.875 5.46875 
Q 49.21875 -2.34375 42.1875 -10.15625 
Q 39.453125 -7.421875 35.9375 -4.6875 
Q 41.015625 -0.78125 46.09375 5.859375 
Q 51.171875 12.5 55.859375 21.875 
Q 59.765625 18.75 62.890625 16.796875 
z
M 78.90625 20.703125 
Q 82.421875 16.015625 87.296875 9.765625 
Q 92.1875 3.515625 96.875 -3.515625 
Q 92.1875 -6.25 89.453125 -8.59375 
Q 86.71875 -3.515625 81.25 4.484375 
Q 75.78125 12.5 72.65625 16.015625 
Q 75.78125 17.96875 78.90625 20.703125 
z
" id="SimHei-31215"/>
      <path d="M 15.625 -10.15625 
Q 12.890625 -5.859375 8.984375 -3.515625 
Q 15.234375 -1.171875 20.3125 2.140625 
Q 25.390625 5.46875 29.296875 10.34375 
Q 33.203125 15.234375 35.15625 21.09375 
Q 37.109375 26.953125 37.890625 35.546875 
Q 28.90625 35.546875 23.4375 35.15625 
L 23.4375 43.359375 
Q 29.6875 42.96875 39.453125 42.96875 
L 78.515625 42.96875 
Q 77.734375 37.109375 77.34375 32.8125 
L 74.21875 3.90625 
Q 73.4375 -3.125 67.96875 -5.46875 
Q 62.5 -7.8125 55.859375 -8.203125 
Q 55.46875 -4.296875 51.953125 0.78125 
Q 60.15625 0.390625 63.078125 1.359375 
Q 66.015625 2.34375 66.796875 8.203125 
L 69.53125 35.546875 
L 46.09375 35.546875 
Q 44.921875 25.390625 42.765625 18.546875 
Q 40.625 11.71875 36.71875 6.640625 
Q 32.8125 1.5625 27.34375 -2.734375 
Q 21.875 -7.03125 15.625 -10.15625 
z
M 61.71875 80.859375 
Q 64.453125 72.65625 72.84375 62.109375 
Q 81.25 51.5625 96.484375 43.75 
Q 93.359375 41.015625 90.234375 35.546875 
Q 83.203125 40.625 77.921875 45.109375 
Q 72.65625 49.609375 69.140625 53.515625 
Q 65.625 57.421875 61.328125 64.640625 
Q 57.03125 71.875 54.296875 78.125 
Q 58.59375 79.296875 61.71875 80.859375 
z
M 42.1875 75.390625 
Q 38.671875 69.140625 36.328125 64.453125 
Q 33.984375 59.765625 31.640625 56.046875 
Q 29.296875 52.34375 24.609375 46.09375 
Q 19.921875 39.84375 13.28125 33.203125 
Q 9.765625 36.71875 6.25 38.671875 
Q 14.0625 45.703125 18.546875 51.5625 
Q 23.046875 57.421875 27.140625 64.25 
Q 31.25 71.09375 34.375 79.296875 
Q 37.5 76.953125 42.1875 75.390625 
z
" id="SimHei-20998"/>
     </defs>
     <use xlink:href="#SimHei-20840"/>
     <use x="100" xlink:href="#SimHei-23616"/>
     <use x="200" xlink:href="#SimHei-31215"/>
     <use x="300" xlink:href="#SimHei-20998"/>
    </g>
   </g>
   <g id="legend_1">
    <g id="patch_7">
     <path d="M 315.72 190.24675 
L 407.72 190.24675 
Q 409.72 190.24675 409.72 188.24675 
L 409.72 160.80925 
Q 409.72 158.80925 407.72 158.80925 
L 315.72 158.80925 
Q 313.72 158.80925 313.72 160.80925 
L 313.72 188.24675 
Q 313.72 190.24675 315.72 190.24675 
z
" style="fill:#ffffff;opacity:0.8;stroke:#cccccc;stroke-linejoin:miter;"/>
    </g>
    <g id="line2d_19">
     <path d="M 317.72 167.278 
L 337.72 167.278 
" style="fill:none;stroke:#0000ff;stroke-linecap:square;stroke-width:1.5;"/>
    </g>
    <g id="line2d_20"/>
    <g id="text_21">
     <!-- 自左向右面积 -->
     <g transform="translate(345.72 170.778)scale(0.1 -0.1)">
      <defs>
       <path d="M 50 79.296875 
Q 47.65625 75.78125 45.3125 66.015625 
L 84.375 66.015625 
Q 83.984375 57.03125 83.984375 49.609375 
L 83.984375 5.859375 
Q 83.984375 -1.171875 84.375 -8.203125 
L 76.5625 -8.203125 
L 76.5625 1.171875 
L 24.21875 1.171875 
L 24.21875 -8.203125 
L 16.40625 -8.203125 
Q 16.796875 -0.78125 16.796875 5.46875 
L 16.796875 50 
Q 16.796875 57.03125 16.40625 66.015625 
L 37.890625 66.015625 
Q 39.453125 76.5625 39.84375 81.640625 
Q 44.53125 80.078125 50 79.296875 
z
M 76.5625 7.421875 
L 76.5625 21.484375 
L 24.21875 21.484375 
L 24.21875 7.421875 
z
M 76.5625 46.484375 
L 76.5625 59.375 
L 24.21875 59.375 
L 24.21875 46.484375 
z
M 76.5625 27.734375 
L 76.5625 40.234375 
L 24.21875 40.234375 
L 24.21875 27.734375 
z
" id="SimHei-33258"/>
       <path d="M 49.609375 80.078125 
Q 48.046875 75 46.484375 64.84375 
L 76.953125 64.84375 
Q 84.375 64.84375 91.40625 65.625 
L 91.40625 57.8125 
Q 84.375 58.203125 78.515625 58.203125 
L 44.921875 58.203125 
Q 41.015625 44.921875 37.5 36.71875 
L 72.265625 36.71875 
Q 79.296875 36.71875 85.9375 37.109375 
L 85.9375 29.296875 
Q 79.6875 29.6875 72.65625 29.6875 
L 61.328125 29.6875 
L 61.328125 0.390625 
L 77.34375 0.390625 
Q 86.71875 0.390625 94.140625 0.78125 
L 94.140625 -7.03125 
Q 85.546875 -6.640625 78.125 -6.640625 
L 34.375 -6.640625 
Q 26.171875 -6.640625 20.703125 -7.03125 
L 20.703125 0.78125 
Q 26.171875 0.390625 34.765625 0.390625 
L 53.125 0.390625 
L 53.125 29.6875 
L 33.984375 29.6875 
Q 29.6875 22.265625 24.21875 15.421875 
Q 18.75 8.59375 10.546875 0.78125 
Q 8.59375 3.515625 3.125 5.859375 
Q 10.9375 11.71875 16.59375 18.359375 
Q 22.265625 25 27.734375 34.953125 
Q 33.203125 44.921875 36.71875 58.203125 
L 26.5625 58.203125 
Q 17.1875 58.203125 10.546875 57.8125 
L 10.546875 65.625 
Q 17.578125 64.84375 26.5625 64.84375 
L 38.28125 64.84375 
Q 39.84375 74.609375 39.84375 80.859375 
Q 45.3125 80.078125 49.609375 80.078125 
z
" id="SimHei-24038"/>
       <path d="M 31.640625 64.84375 
Q 33.203125 68.75 34.171875 72.453125 
Q 35.15625 76.171875 35.9375 80.859375 
Q 42.96875 78.515625 45.703125 78.125 
Q 41.40625 68.75 39.84375 64.84375 
L 91.40625 64.84375 
Q 91.015625 57.8125 91.015625 51.171875 
L 91.015625 3.515625 
Q 91.015625 -5.078125 85.734375 -6.4375 
Q 80.46875 -7.8125 73.4375 -8.203125 
Q 72.265625 -2.734375 69.53125 0.78125 
Q 79.296875 0.390625 81.4375 0.78125 
Q 83.59375 1.171875 83.203125 5.078125 
L 83.203125 57.8125 
L 19.53125 57.8125 
L 19.53125 -7.8125 
L 11.328125 -7.8125 
Q 11.328125 2.34375 11.71875 8.59375 
L 11.71875 50.78125 
Q 11.328125 57.8125 11.328125 64.84375 
L 31.640625 64.84375 
z
M 69.53125 44.140625 
Q 69.140625 39.0625 69.140625 33.984375 
L 69.140625 25 
Q 69.140625 19.921875 69.53125 14.0625 
L 31.640625 14.0625 
Q 32.03125 19.53125 32.03125 25 
L 32.03125 34.765625 
Q 32.03125 39.453125 31.640625 44.140625 
L 69.53125 44.140625 
z
M 60.9375 20.3125 
L 60.9375 37.890625 
L 39.84375 37.890625 
L 39.84375 20.3125 
z
" id="SimHei-21521"/>
       <path d="M 53.515625 78.515625 
Q 51.5625 74.609375 50.78125 71.09375 
Q 50 67.578125 48.4375 62.5 
L 77.34375 62.5 
Q 83.59375 62.5 92.96875 62.890625 
L 92.96875 55.078125 
Q 85.9375 55.46875 76.953125 55.46875 
L 46.09375 55.46875 
Q 42.96875 46.09375 37.109375 36.328125 
L 83.203125 36.328125 
Q 82.8125 29.6875 82.8125 22.265625 
L 82.8125 3.90625 
Q 82.8125 -2.34375 83.203125 -10.546875 
L 74.609375 -10.546875 
L 74.609375 -3.515625 
L 34.765625 -3.515625 
L 34.765625 -10.546875 
L 26.5625 -10.546875 
Q 26.953125 -3.515625 26.953125 2.734375 
L 26.953125 21.875 
Q 23.046875 17.1875 19.328125 13.46875 
Q 15.625 9.765625 10.9375 5.859375 
Q 6.640625 10.15625 3.125 12.109375 
Q 7.8125 14.84375 12.5 19.140625 
Q 17.1875 23.4375 22.265625 29.09375 
Q 27.34375 34.765625 31.046875 41.40625 
Q 34.765625 48.046875 37.5 55.46875 
L 23.046875 55.46875 
Q 14.0625 55.46875 6.25 55.078125 
L 6.25 62.890625 
Q 14.0625 62.5 23.4375 62.5 
L 39.453125 62.5 
Q 42.96875 73.4375 43.75 80.859375 
Q 48.828125 79.296875 53.515625 78.515625 
z
M 74.609375 3.515625 
L 74.609375 29.296875 
L 34.765625 29.296875 
L 34.765625 3.515625 
z
" id="SimHei-21491"/>
       <path d="M 82.421875 75.78125 
Q 88.28125 75.78125 92.96875 76.171875 
L 92.96875 68.75 
Q 87.5 69.140625 82.421875 69.140625 
L 51.171875 69.140625 
Q 49.609375 65.625 46.09375 55.859375 
L 86.328125 55.859375 
Q 85.9375 48.4375 85.9375 40.625 
L 85.9375 7.03125 
Q 85.9375 -1.5625 86.328125 -8.203125 
L 78.515625 -8.203125 
L 78.515625 -2.734375 
L 21.09375 -2.734375 
L 21.09375 -8.203125 
L 13.28125 -8.203125 
Q 13.671875 -3.125 13.671875 6.640625 
L 13.671875 41.40625 
Q 13.671875 48.828125 13.28125 55.859375 
L 38.671875 55.859375 
Q 42.1875 64.84375 42.96875 69.140625 
L 18.359375 69.140625 
Q 12.5 69.140625 6.640625 68.75 
L 6.640625 76.171875 
Q 12.890625 75.78125 18.359375 75.78125 
z
M 34.375 3.515625 
L 34.375 49.609375 
L 21.09375 49.609375 
L 21.09375 3.515625 
z
M 78.515625 3.515625 
L 78.515625 49.609375 
L 65.234375 49.609375 
L 65.234375 3.515625 
z
M 58.59375 3.515625 
L 58.59375 16.40625 
L 41.015625 16.40625 
L 41.015625 3.515625 
z
M 58.59375 38.671875 
L 58.59375 49.609375 
L 41.015625 49.609375 
L 41.015625 38.671875 
z
M 58.59375 22.265625 
L 58.59375 32.8125 
L 41.015625 32.8125 
L 41.015625 22.265625 
z
" id="SimHei-38754"/>
      </defs>
      <use xlink:href="#SimHei-33258"/>
      <use x="100" xlink:href="#SimHei-24038"/>
      <use x="200" xlink:href="#SimHei-21521"/>
      <use x="300" xlink:href="#SimHei-21491"/>
      <use x="400" xlink:href="#SimHei-38754"/>
      <use x="500" xlink:href="#SimHei-31215"/>
     </g>
    </g>
    <g id="line2d_21">
     <path d="M 317.72 181.49675 
L 337.72 181.49675 
" style="fill:none;stroke:#ff0000;stroke-linecap:square;stroke-width:1.5;"/>
    </g>
    <g id="line2d_22"/>
    <g id="text_22">
     <!-- 自右向左面积 -->
     <g transform="translate(345.72 184.99675)scale(0.1 -0.1)">
      <use xlink:href="#SimHei-33258"/>
      <use x="100" xlink:href="#SimHei-21491"/>
      <use x="200" xlink:href="#SimHei-21521"/>
      <use x="300" xlink:href="#SimHei-24038"/>
      <use x="400" xlink:href="#SimHei-38754"/>
      <use x="500" xlink:href="#SimHei-31215"/>
     </g>
    </g>
   </g>
  </g>
 </g>
 <defs>
  <clipPath id="pb393201bf4">
   <rect height="266.112" width="357.12" x="57.6" y="41.472"/>
  </clipPath>
 </defs>
</svg>
