<?xml version="1.0" encoding="utf-8" standalone="no"?>
<!DOCTYPE svg PUBLIC "-//W3C//DTD SVG 1.1//EN"
  "http://www.w3.org/Graphics/SVG/1.1/DTD/svg11.dtd">
<!-- Created with matplotlib (https://matplotlib.org/) -->
<svg height="345.6pt" version="1.1" viewBox="0 0 460.8 345.6" width="460.8pt" xmlns="http://www.w3.org/2000/svg" xmlns:xlink="http://www.w3.org/1999/xlink">
 <metadata>
  <rdf:RDF xmlns:cc="http://creativecommons.org/ns#" xmlns:dc="http://purl.org/dc/elements/1.1/" xmlns:rdf="http://www.w3.org/1999/02/22-rdf-syntax-ns#">
   <cc:Work>
    <dc:type rdf:resource="http://purl.org/dc/dcmitype/StillImage"/>
    <dc:date>2020-08-14T22:33:32.463264</dc:date>
    <dc:format>image/svg+xml</dc:format>
    <dc:creator>
     <cc:Agent>
      <dc:title>Matplotlib v3.3.0, https://matplotlib.org/</dc:title>
     </cc:Agent>
    </dc:creator>
   </cc:Work>
  </rdf:RDF>
 </metadata>
 <defs>
  <style type="text/css">*{stroke-linecap:butt;stroke-linejoin:round;}</style>
 </defs>
 <g id="figure_1">
  <g id="patch_1">
   <path d="M 0 345.6 
L 460.8 345.6 
L 460.8 0 
L 0 0 
z
" style="fill:#ffffff;"/>
  </g>
  <g id="axes_1">
   <g id="patch_2">
    <path d="M 57.6 307.584 
L 414.72 307.584 
L 414.72 41.472 
L 57.6 41.472 
z
" style="fill:#ffffff;"/>
   </g>
   <g id="matplotlib.axis_1">
    <g id="xtick_1">
     <g id="line2d_1">
      <defs>
       <path d="M 0 0 
L 0 3.5 
" id="mb9d78e32f7" style="stroke:#000000;stroke-width:0.8;"/>
      </defs>
      <g>
       <use style="stroke:#000000;stroke-width:0.8;" x="73.507748" xlink:href="#mb9d78e32f7" y="307.584"/>
      </g>
     </g>
     <g id="text_1">
      <!-- 0 -->
      <g transform="translate(71.007748 321.459)scale(0.1 -0.1)">
       <defs>
        <path d="M 3.125 29.296875 
Q 3.90625 50 6.4375 56.046875 
Q 8.984375 62.109375 13.671875 66.015625 
Q 18.359375 69.921875 25.1875 69.921875 
Q 32.03125 69.921875 37.109375 64.25 
Q 42.1875 58.59375 43.75 50 
Q 45.3125 41.40625 44.71875 30.265625 
Q 44.140625 19.140625 40.8125 12.109375 
Q 37.5 5.078125 30.859375 2.34375 
Q 24.21875 -0.390625 17.578125 2.921875 
Q 10.9375 6.25 8.203125 11.71875 
Q 5.46875 17.1875 4.296875 23.234375 
Q 3.125 29.296875 3.90625 50 
z
M 12.890625 52.734375 
Q 10.546875 31.25 12.5 22.84375 
Q 14.453125 14.453125 18.9375 10.9375 
Q 23.4375 7.421875 28.125 9.5625 
Q 32.8125 11.71875 34.953125 18.15625 
Q 37.109375 24.609375 37.109375 32.21875 
Q 37.109375 39.84375 36.515625 46.09375 
Q 35.9375 52.34375 33 57.421875 
Q 30.078125 62.5 25.1875 62.6875 
Q 20.3125 62.890625 16.59375 57.8125 
Q 12.890625 52.734375 10.546875 31.25 
z
" id="SimHei-48"/>
       </defs>
       <use xlink:href="#SimHei-48"/>
      </g>
     </g>
    </g>
    <g id="xtick_2">
     <g id="line2d_2">
      <g>
       <use style="stroke:#000000;stroke-width:0.8;" x="138.503653" xlink:href="#mb9d78e32f7" y="307.584"/>
      </g>
     </g>
     <g id="text_2">
      <!-- 200 -->
      <g transform="translate(131.003653 321.459)scale(0.1 -0.1)">
       <defs>
        <path d="M 4.6875 3.90625 
Q 5.078125 9.765625 10.15625 14.453125 
Q 15.234375 19.140625 23.046875 29.09375 
Q 30.859375 39.0625 33.203125 44.53125 
Q 35.546875 50 34.953125 53.90625 
Q 34.375 57.8125 31.25 60.34375 
Q 28.125 62.890625 24.015625 62.5 
Q 19.921875 62.109375 16.203125 59.375 
Q 12.5 56.640625 10.546875 51.171875 
L 3.125 52.34375 
Q 6.25 61.328125 11.125 65.421875 
Q 16.015625 69.53125 22.65625 69.921875 
Q 26.5625 70.3125 29.6875 69.71875 
Q 32.8125 69.140625 36.125 66.984375 
Q 39.453125 64.84375 41.59375 60.546875 
Q 43.75 56.25 43.15625 50.1875 
Q 42.578125 44.140625 37.109375 35.734375 
Q 31.640625 27.34375 16.015625 9.375 
L 44.140625 9.375 
L 44.140625 2.34375 
L 4.6875 2.34375 
z
" id="SimHei-50"/>
       </defs>
       <use xlink:href="#SimHei-50"/>
       <use x="50" xlink:href="#SimHei-48"/>
       <use x="100" xlink:href="#SimHei-48"/>
      </g>
     </g>
    </g>
    <g id="xtick_3">
     <g id="line2d_3">
      <g>
       <use style="stroke:#000000;stroke-width:0.8;" x="203.499558" xlink:href="#mb9d78e32f7" y="307.584"/>
      </g>
     </g>
     <g id="text_3">
      <!-- 400 -->
      <g transform="translate(195.999558 321.459)scale(0.1 -0.1)">
       <defs>
        <path d="M 31.25 17.1875 
L 1.171875 17.1875 
L 1.171875 23.828125 
L 32.8125 69.53125 
L 38.671875 69.53125 
L 38.671875 23.828125 
L 48.046875 23.828125 
L 48.046875 17.1875 
L 38.671875 17.1875 
L 38.671875 2.34375 
L 31.25 2.34375 
z
M 31.25 23.828125 
L 31.25 54.6875 
L 9.375 23.828125 
z
" id="SimHei-52"/>
       </defs>
       <use xlink:href="#SimHei-52"/>
       <use x="50" xlink:href="#SimHei-48"/>
       <use x="100" xlink:href="#SimHei-48"/>
      </g>
     </g>
    </g>
    <g id="xtick_4">
     <g id="line2d_4">
      <g>
       <use style="stroke:#000000;stroke-width:0.8;" x="268.495463" xlink:href="#mb9d78e32f7" y="307.584"/>
      </g>
     </g>
     <g id="text_4">
      <!-- 600 -->
      <g transform="translate(260.995463 321.459)scale(0.1 -0.1)">
       <defs>
        <path d="M 3.515625 19.53125 
Q 4.296875 30.859375 6.046875 34.765625 
Q 7.8125 38.671875 11.328125 44.53125 
L 27.34375 69.53125 
L 36.328125 69.53125 
L 19.921875 43.75 
Q 30.46875 46.484375 36.71875 42.96875 
Q 42.96875 39.453125 45.109375 34.953125 
Q 47.265625 30.46875 47.453125 25.1875 
Q 47.65625 19.921875 45.890625 14.84375 
Q 44.140625 9.765625 39.640625 5.65625 
Q 35.15625 1.5625 27.140625 1.171875 
Q 19.140625 0.78125 13.46875 4.09375 
Q 7.8125 7.421875 5.65625 13.46875 
Q 3.515625 19.53125 4.296875 30.859375 
z
M 12.5 16.015625 
Q 19.53125 8.59375 25.390625 8.203125 
Q 31.25 7.8125 35.15625 12.109375 
Q 39.0625 16.40625 39.0625 24.609375 
Q 39.0625 32.8125 34.171875 35.9375 
Q 29.296875 39.0625 23.234375 38.28125 
Q 17.1875 37.5 14.453125 32.421875 
Q 11.71875 27.34375 12.109375 21.671875 
Q 12.5 16.015625 19.53125 8.59375 
z
" id="SimHei-54"/>
       </defs>
       <use xlink:href="#SimHei-54"/>
       <use x="50" xlink:href="#SimHei-48"/>
       <use x="100" xlink:href="#SimHei-48"/>
      </g>
     </g>
    </g>
    <g id="xtick_5">
     <g id="line2d_5">
      <g>
       <use style="stroke:#000000;stroke-width:0.8;" x="333.491368" xlink:href="#mb9d78e32f7" y="307.584"/>
      </g>
     </g>
     <g id="text_5">
      <!-- 800 -->
      <g transform="translate(325.991368 321.459)scale(0.1 -0.1)">
       <defs>
        <path d="M 2.734375 16.796875 
Q 2.734375 26.171875 5.078125 30.65625 
Q 7.421875 35.15625 12.890625 37.890625 
Q 8.203125 40.625 6.640625 43.9375 
Q 5.078125 47.265625 4.875 51.5625 
Q 4.6875 55.859375 6.046875 58.984375 
Q 7.421875 62.109375 10.15625 64.84375 
Q 12.890625 67.578125 16.203125 68.546875 
Q 19.53125 69.53125 23.4375 69.53125 
Q 27.34375 69.53125 30.46875 68.75 
Q 33.59375 67.96875 37.109375 65.421875 
Q 40.625 62.890625 42.1875 58.203125 
Q 43.75 53.515625 41.984375 47.265625 
Q 40.234375 41.015625 32.8125 37.5 
Q 39.453125 35.546875 42.1875 31.4375 
Q 44.921875 27.34375 44.921875 21.484375 
Q 44.921875 15.625 43.15625 12.109375 
Q 41.40625 8.59375 39.25 6.25 
Q 37.109375 3.90625 33.390625 2.53125 
Q 29.6875 1.171875 24.015625 1.171875 
Q 18.359375 1.171875 14.25 2.53125 
Q 10.15625 3.90625 7.421875 6.640625 
Q 4.6875 9.375 3.703125 13.078125 
Q 2.734375 16.796875 2.734375 26.171875 
z
M 10.9375 26.5625 
Q 10.546875 17.1875 12.296875 13.671875 
Q 14.0625 10.15625 18.75 9.171875 
Q 23.4375 8.203125 28.515625 9.375 
Q 33.59375 10.546875 35.546875 14.84375 
Q 37.5 19.140625 36.90625 23.4375 
Q 36.328125 27.734375 32.03125 30.65625 
Q 27.734375 33.59375 22.65625 33.203125 
Q 17.578125 32.8125 14.25 29.6875 
Q 10.9375 26.5625 10.546875 17.1875 
z
M 12.109375 56.25 
Q 12.109375 48.4375 14.84375 44.921875 
Q 17.578125 41.40625 23.4375 41.40625 
Q 29.296875 41.40625 32.21875 44.921875 
Q 35.15625 48.4375 34.953125 53.3125 
Q 34.765625 58.203125 31.4375 60.546875 
Q 28.125 62.890625 22.453125 62.5 
Q 16.796875 62.109375 14.453125 59.171875 
Q 12.109375 56.25 12.109375 48.4375 
z
" id="SimHei-56"/>
       </defs>
       <use xlink:href="#SimHei-56"/>
       <use x="50" xlink:href="#SimHei-48"/>
       <use x="100" xlink:href="#SimHei-48"/>
      </g>
     </g>
    </g>
    <g id="xtick_6">
     <g id="line2d_6">
      <g>
       <use style="stroke:#000000;stroke-width:0.8;" x="398.487273" xlink:href="#mb9d78e32f7" y="307.584"/>
      </g>
     </g>
     <g id="text_6">
      <!-- 1000 -->
      <g transform="translate(388.487273 321.459)scale(0.1 -0.1)">
       <defs>
        <path d="M 21.875 56.25 
Q 16.796875 51.171875 8.984375 46.484375 
L 8.984375 53.90625 
Q 18.75 60.546875 25 69.53125 
L 29.6875 69.53125 
L 29.6875 2.34375 
L 21.875 2.34375 
z
" id="SimHei-49"/>
       </defs>
       <use xlink:href="#SimHei-49"/>
       <use x="50" xlink:href="#SimHei-48"/>
       <use x="100" xlink:href="#SimHei-48"/>
       <use x="150" xlink:href="#SimHei-48"/>
      </g>
     </g>
    </g>
   </g>
   <g id="matplotlib.axis_2">
    <g id="ytick_1">
     <g id="line2d_7">
      <defs>
       <path d="M 0 0 
L -3.5 0 
" id="mf15058b69a" style="stroke:#000000;stroke-width:0.8;"/>
      </defs>
      <g>
       <use style="stroke:#000000;stroke-width:0.8;" x="57.6" xlink:href="#mf15058b69a" y="303.962482"/>
      </g>
     </g>
     <g id="text_7">
      <!-- −1.5 -->
      <g transform="translate(25.6 307.399982)scale(0.1 -0.1)">
       <defs>
        <path d="M 87.5 -5.078125 
L 10.9375 -5.078125 
L 10.9375 75.390625 
L 87.5 75.390625 
z
M 84.375 72.65625 
L 13.671875 72.65625 
L 13.671875 -2.34375 
L 84.375 -2.34375 
z
" id="SimHei-8722"/>
        <path d="M 16.796875 1.953125 
L 7.8125 1.953125 
L 7.8125 10.546875 
L 16.796875 10.546875 
z
" id="SimHei-46"/>
        <path d="M 8.59375 20.703125 
Q 11.328125 10.15625 17.96875 8.984375 
Q 24.609375 7.8125 28.703125 10.34375 
Q 32.8125 12.890625 34.5625 16.984375 
Q 36.328125 21.09375 36.125 26.171875 
Q 35.9375 31.25 33.390625 34.765625 
Q 30.859375 38.28125 26.953125 39.453125 
Q 23.046875 40.625 18.15625 39.453125 
Q 13.28125 38.28125 10.15625 33.984375 
L 3.515625 34.765625 
Q 4.296875 37.109375 10.9375 68.359375 
L 41.796875 68.359375 
L 41.796875 61.328125 
L 16.796875 61.328125 
Q 14.84375 50.78125 12.890625 44.53125 
Q 18.75 47.265625 23.828125 47.0625 
Q 28.90625 46.875 33.59375 44.71875 
Q 38.28125 42.578125 40.421875 38.859375 
Q 42.578125 35.15625 43.546875 31.4375 
Q 44.53125 27.734375 44.328125 23.4375 
Q 44.140625 19.140625 42.578125 14.640625 
Q 41.015625 10.15625 37.890625 7.21875 
Q 34.765625 4.296875 30.265625 2.53125 
Q 25.78125 0.78125 19.921875 1.171875 
Q 14.0625 1.5625 8.78125 5.46875 
Q 3.515625 9.375 1.5625 18.75 
z
" id="SimHei-53"/>
       </defs>
       <use xlink:href="#SimHei-8722"/>
       <use x="100" xlink:href="#SimHei-49"/>
       <use x="150" xlink:href="#SimHei-46"/>
       <use x="200" xlink:href="#SimHei-53"/>
      </g>
     </g>
    </g>
    <g id="ytick_2">
     <g id="line2d_8">
      <g>
       <use style="stroke:#000000;stroke-width:0.8;" x="57.6" xlink:href="#mf15058b69a" y="261.269767"/>
      </g>
     </g>
     <g id="text_8">
      <!-- −1.0 -->
      <g transform="translate(25.6 264.707267)scale(0.1 -0.1)">
       <use xlink:href="#SimHei-8722"/>
       <use x="100" xlink:href="#SimHei-49"/>
       <use x="150" xlink:href="#SimHei-46"/>
       <use x="200" xlink:href="#SimHei-48"/>
      </g>
     </g>
    </g>
    <g id="ytick_3">
     <g id="line2d_9">
      <g>
       <use style="stroke:#000000;stroke-width:0.8;" x="57.6" xlink:href="#mf15058b69a" y="218.577053"/>
      </g>
     </g>
     <g id="text_9">
      <!-- −0.5 -->
      <g transform="translate(25.6 222.014553)scale(0.1 -0.1)">
       <use xlink:href="#SimHei-8722"/>
       <use x="100" xlink:href="#SimHei-48"/>
       <use x="150" xlink:href="#SimHei-46"/>
       <use x="200" xlink:href="#SimHei-53"/>
      </g>
     </g>
    </g>
    <g id="ytick_4">
     <g id="line2d_10">
      <g>
       <use style="stroke:#000000;stroke-width:0.8;" x="57.6" xlink:href="#mf15058b69a" y="175.884339"/>
      </g>
     </g>
     <g id="text_10">
      <!-- 0.0 -->
      <g transform="translate(35.6 179.321839)scale(0.1 -0.1)">
       <use xlink:href="#SimHei-48"/>
       <use x="50" xlink:href="#SimHei-46"/>
       <use x="100" xlink:href="#SimHei-48"/>
      </g>
     </g>
    </g>
    <g id="ytick_5">
     <g id="line2d_11">
      <g>
       <use style="stroke:#000000;stroke-width:0.8;" x="57.6" xlink:href="#mf15058b69a" y="133.191625"/>
      </g>
     </g>
     <g id="text_11">
      <!-- 0.5 -->
      <g transform="translate(35.6 136.629125)scale(0.1 -0.1)">
       <use xlink:href="#SimHei-48"/>
       <use x="50" xlink:href="#SimHei-46"/>
       <use x="100" xlink:href="#SimHei-53"/>
      </g>
     </g>
    </g>
    <g id="ytick_6">
     <g id="line2d_12">
      <g>
       <use style="stroke:#000000;stroke-width:0.8;" x="57.6" xlink:href="#mf15058b69a" y="90.498911"/>
      </g>
     </g>
     <g id="text_12">
      <!-- 1.0 -->
      <g transform="translate(35.6 93.936411)scale(0.1 -0.1)">
       <use xlink:href="#SimHei-49"/>
       <use x="50" xlink:href="#SimHei-46"/>
       <use x="100" xlink:href="#SimHei-48"/>
      </g>
     </g>
    </g>
    <g id="ytick_7">
     <g id="line2d_13">
      <g>
       <use style="stroke:#000000;stroke-width:0.8;" x="57.6" xlink:href="#mf15058b69a" y="47.806197"/>
      </g>
     </g>
     <g id="text_13">
      <!-- 1.5 -->
      <g transform="translate(35.6 51.243697)scale(0.1 -0.1)">
       <use xlink:href="#SimHei-49"/>
       <use x="50" xlink:href="#SimHei-46"/>
       <use x="100" xlink:href="#SimHei-53"/>
      </g>
     </g>
    </g>
   </g>
   <g id="line2d_14">
    <path clip-path="url(#p24848b6b78)" d="M 73.832727 113.45853 
L 74.157707 178.049784 
L 74.157707 178.049784 
L 74.482686 207.783825 
L 74.482686 207.783825 
L 74.807666 118.159628 
L 74.807666 118.159628 
L 75.132645 248.793744 
L 75.132645 248.793744 
L 75.457625 87.991491 
L 75.457625 87.991491 
L 75.782604 182.325229 
L 75.782604 182.325229 
L 76.107584 196.494359 
L 76.107584 196.494359 
L 76.432563 155.434159 
L 76.432563 155.434159 
L 77.082523 200.311559 
L 77.082523 200.311559 
L 77.407502 205.732007 
L 77.407502 205.732007 
L 77.732482 124.323627 
L 77.732482 124.323627 
L 78.057461 224.414448 
L 78.057461 224.414448 
L 78.382441 149.395745 
L 78.382441 149.395745 
L 78.70742 215.533411 
L 78.70742 215.533411 
L 79.0324 180.065414 
L 79.0324 180.065414 
L 79.357379 129.221964 
L 79.357379 129.221964 
L 79.682359 217.317827 
L 79.682359 217.317827 
L 80.007338 127.539204 
L 80.007338 127.539204 
L 80.657297 187.824297 
L 80.657297 187.824297 
L 80.982277 176.730364 
L 80.982277 176.730364 
L 81.307256 170.36507 
L 81.307256 170.36507 
L 81.632236 184.099086 
L 81.632236 184.099086 
L 81.957215 146.523855 
L 81.957215 146.523855 
L 82.282195 212.006592 
L 82.282195 212.006592 
L 82.607174 165.300071 
L 82.607174 165.300071 
L 82.932154 215.617428 
L 82.932154 215.617428 
L 83.257133 172.118679 
L 83.257133 172.118679 
L 83.582113 175.956593 
L 83.582113 175.956593 
L 83.907093 184.501343 
L 83.907093 184.501343 
L 84.232072 155.64232 
L 84.232072 155.64232 
L 84.557052 162.261002 
L 84.557052 162.261002 
L 84.882031 200.909591 
L 84.882031 200.909591 
L 85.207011 153.82292 
L 85.207011 153.82292 
L 85.53199 180.894758 
L 85.53199 180.894758 
L 85.85697 139.207978 
L 85.85697 139.207978 
L 86.181949 181.463348 
L 86.181949 181.463348 
L 86.506929 159.674445 
L 86.506929 159.674445 
L 86.831908 229.360183 
L 86.831908 229.360183 
L 87.156888 120.107553 
L 87.156888 120.107553 
L 87.481867 233.307691 
L 87.481867 233.307691 
L 87.806847 203.390885 
L 87.806847 203.390885 
L 88.131826 96.83359 
L 88.131826 96.83359 
L 88.456806 249.946831 
L 88.456806 249.946831 
L 88.781785 145.654883 
L 88.781785 145.654883 
L 89.106765 230.094411 
L 89.106765 230.094411 
L 89.431744 111.216362 
L 89.431744 111.216362 
L 89.756724 216.098137 
L 89.756724 216.098137 
L 90.081704 137.819803 
L 90.081704 137.819803 
L 90.406683 161.238982 
L 90.406683 161.238982 
L 90.731663 175.053519 
L 90.731663 175.053519 
L 91.056642 173.332401 
L 91.056642 173.332401 
L 91.381622 183.159516 
L 91.381622 183.159516 
L 91.706601 185.760602 
L 91.706601 185.760602 
L 92.031581 148.31068 
L 92.031581 148.31068 
L 92.35656 175.168081 
L 92.35656 175.168081 
L 92.68154 235.665065 
L 92.68154 235.665065 
L 93.006519 115.738429 
L 93.006519 115.738429 
L 93.331499 265.778281 
L 93.331499 265.778281 
L 93.656478 134.290854 
L 93.656478 134.290854 
L 93.981458 182.976779 
L 93.981458 182.976779 
L 94.956396 157.045888 
L 94.956396 157.045888 
L 95.281376 201.755025 
L 95.281376 201.755025 
L 95.606355 159.46192 
L 95.606355 159.46192 
L 95.931335 160.851235 
L 95.931335 160.851235 
L 96.256314 144.33807 
L 96.256314 144.33807 
L 96.581294 204.784067 
L 96.581294 204.784067 
L 96.906274 161.918151 
L 96.906274 161.918151 
L 97.231253 195.426217 
L 97.231253 195.426217 
L 97.556233 176.569868 
L 97.556233 176.569868 
L 97.881212 213.307596 
L 97.881212 213.307596 
L 98.206192 142.091842 
L 98.206192 142.091842 
L 98.531171 202.125474 
L 98.531171 202.125474 
L 98.856151 153.82376 
L 98.856151 153.82376 
L 99.18113 220.590794 
L 99.18113 220.590794 
L 99.50611 160.128885 
L 99.50611 160.128885 
L 99.831089 175.313283 
L 99.831089 175.313283 
L 100.156069 129.341212 
L 100.156069 129.341212 
L 100.481048 213.962559 
L 100.481048 213.962559 
L 100.806028 131.863198 
L 100.806028 131.863198 
L 101.131007 160.440507 
L 101.131007 160.440507 
L 101.455987 216.117427 
L 101.455987 216.117427 
L 101.780966 171.766571 
L 101.780966 171.766571 
L 102.105946 154.019679 
L 102.105946 154.019679 
L 102.430925 172.329868 
L 102.430925 172.329868 
L 102.755905 213.598105 
L 102.755905 213.598105 
L 103.080885 162.703477 
L 103.080885 162.703477 
L 103.405864 197.398558 
L 103.405864 197.398558 
L 103.730844 196.598729 
L 103.730844 196.598729 
L 104.055823 177.666745 
L 104.055823 177.666745 
L 104.380803 128.152874 
L 104.380803 128.152874 
L 104.705782 229.96804 
L 104.705782 229.96804 
L 105.030762 117.864661 
L 105.030762 117.864661 
L 105.355741 187.748288 
L 105.355741 187.748288 
L 105.680721 197.204416 
L 105.680721 197.204416 
L 106.0057 146.860537 
L 106.0057 146.860537 
L 106.33068 149.336073 
L 106.33068 149.336073 
L 106.655659 183.652827 
L 106.655659 183.652827 
L 106.980639 181.392695 
L 106.980639 181.392695 
L 107.305618 176.744577 
L 107.305618 176.744577 
L 107.630598 200.055405 
L 107.630598 200.055405 
L 107.955577 167.865236 
L 107.955577 167.865236 
L 108.280557 219.234375 
L 108.280557 219.234375 
L 108.605536 125.113787 
L 108.605536 125.113787 
L 108.930516 212.288625 
L 108.930516 212.288625 
L 109.255495 167.622946 
L 109.255495 167.622946 
L 109.580475 196.489268 
L 109.580475 196.489268 
L 109.905455 173.544247 
L 109.905455 173.544247 
L 110.230434 131.851956 
L 110.230434 131.851956 
L 110.555414 206.351806 
L 110.555414 206.351806 
L 110.880393 101.390235 
L 110.880393 101.390235 
L 111.205373 265.599824 
L 111.205373 265.599824 
L 111.530352 53.568 
L 111.530352 53.568 
L 111.855332 286.774746 
L 111.855332 286.774746 
L 112.180311 155.074638 
L 112.180311 155.074638 
L 112.505291 119.047307 
L 112.505291 119.047307 
L 112.83027 221.762155 
L 112.83027 221.762155 
L 113.15525 206.708468 
L 113.15525 206.708468 
L 113.480229 139.070114 
L 113.480229 139.070114 
L 113.805209 234.215172 
L 113.805209 234.215172 
L 114.130188 153.752431 
L 114.130188 153.752431 
L 114.455168 194.294557 
L 114.455168 194.294557 
L 114.780147 122.103793 
L 114.780147 122.103793 
L 115.105127 221.611837 
L 115.105127 221.611837 
L 115.430106 126.75593 
L 115.430106 126.75593 
L 115.755086 202.388212 
L 115.755086 202.388212 
L 116.080066 164.520083 
L 116.080066 164.520083 
L 116.405045 160.526588 
L 116.405045 160.526588 
L 116.730025 160.384673 
L 116.730025 160.384673 
L 117.055004 164.57673 
L 117.055004 164.57673 
L 117.379984 223.527776 
L 117.379984 223.527776 
L 117.704963 144.948672 
L 117.704963 144.948672 
L 118.029943 216.05664 
L 118.029943 216.05664 
L 118.354922 174.397917 
L 118.354922 174.397917 
L 118.679902 181.394652 
L 118.679902 181.394652 
L 119.004881 169.600931 
L 119.004881 169.600931 
L 119.329861 175.389855 
L 119.329861 175.389855 
L 119.65484 188.240758 
L 119.65484 188.240758 
L 119.97982 209.820139 
L 119.97982 209.820139 
L 120.304799 103.678291 
L 120.304799 103.678291 
L 120.629779 201.030402 
L 120.629779 201.030402 
L 120.954758 159.78615 
L 120.954758 159.78615 
L 121.279738 147.907627 
L 121.279738 147.907627 
L 121.604717 190.106419 
L 121.604717 190.106419 
L 121.929697 184.780678 
L 121.929697 184.780678 
L 122.254676 163.02867 
L 122.254676 163.02867 
L 122.579656 204.869538 
L 122.579656 204.869538 
L 122.904636 147.392328 
L 122.904636 147.392328 
L 123.229615 173.050133 
L 123.229615 173.050133 
L 123.554595 233.853738 
L 123.554595 233.853738 
L 123.879574 176.084178 
L 123.879574 176.084178 
L 124.204554 143.988084 
L 124.204554 143.988084 
L 124.529533 227.615205 
L 124.529533 227.615205 
L 124.854513 146.840204 
L 124.854513 146.840204 
L 125.179492 142.374397 
L 125.179492 142.374397 
L 125.504472 194.929492 
L 125.504472 194.929492 
L 125.829451 169.557263 
L 125.829451 169.557263 
L 126.154431 183.625942 
L 126.154431 183.625942 
L 126.47941 129.16285 
L 126.47941 129.16285 
L 126.80439 215.172864 
L 126.80439 215.172864 
L 127.129369 128.002624 
L 127.129369 128.002624 
L 127.454349 184.833175 
L 127.454349 184.833175 
L 127.779328 219.730897 
L 127.779328 219.730897 
L 128.104308 174.074112 
L 128.104308 174.074112 
L 128.429287 155.214651 
L 128.429287 155.214651 
L 128.754267 238.841326 
L 128.754267 238.841326 
L 129.079247 127.244351 
L 129.079247 127.244351 
L 129.404226 197.440427 
L 129.404226 197.440427 
L 129.729206 156.820084 
L 129.729206 156.820084 
L 130.054185 230.437503 
L 130.054185 230.437503 
L 130.379165 138.703608 
L 130.379165 138.703608 
L 130.704144 137.493155 
L 130.704144 137.493155 
L 131.029124 211.252586 
L 131.029124 211.252586 
L 131.354103 127.097731 
L 131.354103 127.097731 
L 131.679083 181.421478 
L 131.679083 181.421478 
L 132.004062 188.979879 
L 132.004062 188.979879 
L 132.329042 175.525858 
L 132.329042 175.525858 
L 132.654021 173.613729 
L 132.654021 173.613729 
L 132.979001 201.690784 
L 132.979001 201.690784 
L 133.30398 127.551822 
L 133.30398 127.551822 
L 133.62896 225.616961 
L 133.62896 225.616961 
L 133.953939 203.053003 
L 133.953939 203.053003 
L 134.278919 150.471963 
L 134.278919 150.471963 
L 134.603898 207.990559 
L 134.603898 207.990559 
L 134.928878 131.95465 
L 134.928878 131.95465 
L 135.253857 227.023959 
L 135.253857 227.023959 
L 135.578837 84.590758 
L 135.578837 84.590758 
L 135.903817 231.001244 
L 135.903817 231.001244 
L 136.228796 162.563915 
L 136.228796 162.563915 
L 136.553776 171.506859 
L 136.553776 171.506859 
L 136.878755 138.881244 
L 136.878755 138.881244 
L 137.203735 205.405632 
L 137.203735 205.405632 
L 137.528714 145.650816 
L 137.528714 145.650816 
L 137.853694 197.579206 
L 137.853694 197.579206 
L 138.178673 196.35933 
L 138.178673 196.35933 
L 138.503653 195.864482 
L 138.503653 195.864482 
L 138.828632 145.725479 
L 138.828632 145.725479 
L 139.153612 226.338075 
L 139.153612 226.338075 
L 139.478591 134.326791 
L 139.478591 134.326791 
L 139.803571 198.249247 
L 139.803571 198.249247 
L 140.12855 163.206161 
L 140.12855 163.206161 
L 140.45353 213.249585 
L 140.45353 213.249585 
L 140.778509 137.215659 
L 140.778509 137.215659 
L 141.103489 138.572924 
L 141.103489 138.572924 
L 141.428468 205.130123 
L 141.428468 205.130123 
L 141.753448 147.909263 
L 141.753448 147.909263 
L 142.403407 195.092327 
L 142.403407 195.092327 
L 142.728387 186.486408 
L 142.728387 186.486408 
L 143.053366 158.888292 
L 143.053366 158.888292 
L 143.378346 198.971525 
L 143.378346 198.971525 
L 143.703325 147.693348 
L 143.703325 147.693348 
L 144.028305 221.245703 
L 144.028305 221.245703 
L 144.353284 205.861853 
L 144.353284 205.861853 
L 144.678264 129.380337 
L 144.678264 129.380337 
L 145.003243 205.535493 
L 145.003243 205.535493 
L 145.653202 136.122645 
L 145.653202 136.122645 
L 145.978182 185.588951 
L 145.978182 185.588951 
L 146.303161 174.027206 
L 146.303161 174.027206 
L 146.628141 181.040401 
L 146.628141 181.040401 
L 146.95312 149.603636 
L 146.95312 149.603636 
L 147.2781 184.957423 
L 147.2781 184.957423 
L 147.603079 144.583249 
L 147.603079 144.583249 
L 147.928059 201.667348 
L 147.928059 201.667348 
L 148.253038 217.530262 
L 148.253038 217.530262 
L 148.578018 110.856961 
L 148.578018 110.856961 
L 148.902998 291.225782 
L 148.902998 291.225782 
L 149.227977 89.611306 
L 149.227977 89.611306 
L 149.552957 215.240854 
L 149.552957 215.240854 
L 149.877936 169.919422 
L 149.877936 169.919422 
L 150.202916 176.363741 
L 150.202916 176.363741 
L 150.527895 173.676284 
L 150.527895 173.676284 
L 150.852875 191.790045 
L 150.852875 191.790045 
L 151.177854 140.104341 
L 151.177854 140.104341 
L 151.502834 153.044202 
L 151.502834 153.044202 
L 152.152793 197.525864 
L 152.152793 197.525864 
L 152.477772 148.136692 
L 152.477772 148.136692 
L 152.802752 181.128201 
L 152.802752 181.128201 
L 153.127731 234.395847 
L 153.127731 234.395847 
L 153.452711 111.824993 
L 153.452711 111.824993 
L 153.77769 202.268812 
L 153.77769 202.268812 
L 154.10267 194.523617 
L 154.10267 194.523617 
L 154.427649 192.068884 
L 154.427649 192.068884 
L 154.752629 180.085044 
L 154.752629 180.085044 
L 155.402588 162.912574 
L 155.402588 162.912574 
L 155.727568 172.553779 
L 155.727568 172.553779 
L 156.052547 167.262373 
L 156.052547 167.262373 
L 156.377527 145.252322 
L 156.377527 145.252322 
L 156.702506 213.026019 
L 156.702506 213.026019 
L 157.027486 163.474365 
L 157.027486 163.474365 
L 157.352465 135.340871 
L 157.352465 135.340871 
L 157.677445 209.615201 
L 157.677445 209.615201 
L 158.002424 131.464055 
L 158.002424 131.464055 
L 158.327404 249.329042 
L 158.327404 249.329042 
L 158.652383 132.560944 
L 158.652383 132.560944 
L 158.977363 230.276407 
L 158.977363 230.276407 
L 159.302342 158.997 
L 159.302342 158.997 
L 159.627322 187.824218 
L 159.627322 187.824218 
L 159.952301 152.251494 
L 159.952301 152.251494 
L 160.277281 200.5433 
L 160.277281 200.5433 
L 160.60226 169.963983 
L 160.60226 169.963983 
L 160.92724 164.157054 
L 160.92724 164.157054 
L 161.252219 199.995798 
L 161.252219 199.995798 
L 161.577199 105.409371 
L 161.577199 105.409371 
L 161.902179 195.237244 
L 161.902179 195.237244 
L 162.227158 170.145092 
L 162.227158 170.145092 
L 162.552138 179.215273 
L 162.552138 179.215273 
L 162.877117 169.504094 
L 162.877117 169.504094 
L 163.202097 206.963921 
L 163.202097 206.963921 
L 163.527076 157.70926 
L 163.527076 157.70926 
L 163.852056 195.018293 
L 163.852056 195.018293 
L 164.177035 154.252322 
L 164.177035 154.252322 
L 164.502015 211.716689 
L 164.502015 211.716689 
L 164.826994 206.942502 
L 164.826994 206.942502 
L 165.151974 138.463744 
L 165.151974 138.463744 
L 165.476953 194.132241 
L 165.476953 194.132241 
L 165.801933 146.769318 
L 165.801933 146.769318 
L 166.126912 186.99778 
L 166.126912 186.99778 
L 166.451892 146.726926 
L 166.451892 146.726926 
L 167.101851 196.740378 
L 167.101851 196.740378 
L 167.42683 168.86465 
L 167.42683 168.86465 
L 167.75181 122.102431 
L 167.75181 122.102431 
L 168.07679 224.533802 
L 168.07679 224.533802 
L 168.401769 158.503056 
L 168.401769 158.503056 
L 168.726749 208.751554 
L 168.726749 208.751554 
L 169.051728 171.417555 
L 169.051728 171.417555 
L 169.376708 198.427062 
L 169.376708 198.427062 
L 169.701687 185.572614 
L 169.701687 185.572614 
L 170.026667 132.494891 
L 170.026667 132.494891 
L 170.351646 221.327807 
L 170.351646 221.327807 
L 170.676626 150.92683 
L 170.676626 150.92683 
L 171.001605 178.201628 
L 171.001605 178.201628 
L 171.326585 184.100051 
L 171.326585 184.100051 
L 171.651564 162.86926 
L 171.651564 162.86926 
L 171.976544 103.102575 
L 171.976544 103.102575 
L 172.301523 257.122332 
L 172.301523 257.122332 
L 172.626503 102.253345 
L 172.626503 102.253345 
L 172.951482 231.380233 
L 172.951482 231.380233 
L 173.276462 155.646549 
L 173.276462 155.646549 
L 173.601441 198.636524 
L 173.601441 198.636524 
L 173.926421 177.857736 
L 173.926421 177.857736 
L 174.2514 149.749366 
L 174.2514 149.749366 
L 174.57638 229.282493 
L 174.57638 229.282493 
L 174.90136 155.238481 
L 174.90136 155.238481 
L 175.226339 211.046017 
L 175.226339 211.046017 
L 175.551319 164.254907 
L 175.551319 164.254907 
L 175.876298 137.397807 
L 175.876298 137.397807 
L 176.201278 189.909852 
L 176.201278 189.909852 
L 176.526257 175.906792 
L 176.526257 175.906792 
L 176.851237 140.351908 
L 176.851237 140.351908 
L 177.176216 175.356558 
L 177.176216 175.356558 
L 177.501196 232.704719 
L 177.501196 232.704719 
L 177.826175 102.489082 
L 177.826175 102.489082 
L 178.151155 165.110697 
L 178.151155 165.110697 
L 178.476134 250.239124 
L 178.476134 250.239124 
L 178.801114 111.58474 
L 178.801114 111.58474 
L 179.126093 254.019986 
L 179.126093 254.019986 
L 179.451073 143.678388 
L 179.451073 143.678388 
L 179.776052 210.192065 
L 179.776052 210.192065 
L 180.101032 147.586346 
L 180.101032 147.586346 
L 180.426011 200.333418 
L 180.426011 200.333418 
L 180.750991 129.012808 
L 180.750991 129.012808 
L 181.075971 239.466658 
L 181.075971 239.466658 
L 181.40095 128.261499 
L 181.40095 128.261499 
L 181.72593 175.641433 
L 181.72593 175.641433 
L 182.050909 166.762575 
L 182.050909 166.762575 
L 182.375889 149.427307 
L 182.375889 149.427307 
L 182.700868 169.711342 
L 182.700868 169.711342 
L 183.025848 223.672332 
L 183.025848 223.672332 
L 183.350827 130.618874 
L 183.350827 130.618874 
L 183.675807 221.349637 
L 183.675807 221.349637 
L 184.000786 157.939076 
L 184.000786 157.939076 
L 184.325766 210.873297 
L 184.325766 210.873297 
L 184.650745 111.037687 
L 184.650745 111.037687 
L 184.975725 275.736871 
L 184.975725 275.736871 
L 185.300704 133.148106 
L 185.300704 133.148106 
L 185.625684 191.939062 
L 185.625684 191.939062 
L 185.950663 173.477644 
L 185.950663 173.477644 
L 186.275643 126.838661 
L 186.275643 126.838661 
L 186.600622 217.24382 
L 186.600622 217.24382 
L 186.925602 124.705994 
L 186.925602 124.705994 
L 187.250581 195.295243 
L 187.250581 195.295243 
L 187.575561 174.406533 
L 187.575561 174.406533 
L 187.900541 169.896167 
L 187.900541 169.896167 
L 188.22552 175.263949 
L 188.22552 175.263949 
L 188.5505 146.183161 
L 188.5505 146.183161 
L 188.875479 212.187904 
L 188.875479 212.187904 
L 189.200459 210.671451 
L 189.200459 210.671451 
L 189.525438 154.111846 
L 189.525438 154.111846 
L 190.175397 215.362113 
L 190.175397 215.362113 
L 190.500377 118.979635 
L 190.500377 118.979635 
L 190.825356 207.525613 
L 190.825356 207.525613 
L 191.150336 144.539045 
L 191.150336 144.539045 
L 191.475315 229.25931 
L 191.475315 229.25931 
L 191.800295 115.838703 
L 191.800295 115.838703 
L 192.125274 175.676137 
L 192.125274 175.676137 
L 192.450254 175.115906 
L 192.450254 175.115906 
L 192.775233 152.159956 
L 192.775233 152.159956 
L 193.100213 173.745705 
L 193.100213 173.745705 
L 193.425192 224.455299 
L 193.425192 224.455299 
L 193.750172 150.406758 
L 193.750172 150.406758 
L 194.075152 171.621825 
L 194.075152 171.621825 
L 194.400131 230.010154 
L 194.400131 230.010154 
L 194.725111 123.78427 
L 194.725111 123.78427 
L 195.05009 205.422265 
L 195.05009 205.422265 
L 195.37507 194.898455 
L 195.37507 194.898455 
L 195.700049 196.715519 
L 195.700049 196.715519 
L 196.025029 129.396686 
L 196.025029 129.396686 
L 196.350008 187.056278 
L 196.350008 187.056278 
L 196.674988 156.35717 
L 196.674988 156.35717 
L 196.999967 177.794653 
L 196.999967 177.794653 
L 197.324947 145.248315 
L 197.324947 145.248315 
L 197.649926 208.866697 
L 197.649926 208.866697 
L 197.974906 160.193717 
L 197.974906 160.193717 
L 198.299885 162.289678 
L 198.299885 162.289678 
L 198.624865 188.447832 
L 198.624865 188.447832 
L 198.949844 157.977419 
L 198.949844 157.977419 
L 199.274824 206.927359 
L 199.274824 206.927359 
L 199.599803 210.33206 
L 199.599803 210.33206 
L 199.924783 163.311588 
L 199.924783 163.311588 
L 200.249762 154.753411 
L 200.249762 154.753411 
L 200.574742 231.923748 
L 200.574742 231.923748 
L 200.899722 132.656655 
L 200.899722 132.656655 
L 201.224701 145.386795 
L 201.224701 145.386795 
L 201.549681 239.21028 
L 201.549681 239.21028 
L 201.87466 148.53095 
L 201.87466 148.53095 
L 202.19964 134.332825 
L 202.19964 134.332825 
L 202.524619 193.500087 
L 202.524619 193.500087 
L 202.849599 150.380903 
L 202.849599 150.380903 
L 203.174578 182.915101 
L 203.174578 182.915101 
L 203.499558 168.877985 
L 203.499558 168.877985 
L 203.824537 223.98113 
L 203.824537 223.98113 
L 204.149517 142.688351 
L 204.149517 142.688351 
L 204.474496 199.652869 
L 204.474496 199.652869 
L 204.799476 175.061216 
L 204.799476 175.061216 
L 205.124455 190.792714 
L 205.124455 190.792714 
L 205.449435 147.221221 
L 205.449435 147.221221 
L 205.774414 253.00292 
L 205.774414 253.00292 
L 206.099394 125.269651 
L 206.099394 125.269651 
L 206.424373 168.575258 
L 206.424373 168.575258 
L 206.749353 173.113975 
L 206.749353 173.113975 
L 207.074333 150.519172 
L 207.074333 150.519172 
L 207.399312 191.723086 
L 207.399312 191.723086 
L 207.724292 153.939554 
L 207.724292 153.939554 
L 208.374251 201.242302 
L 208.374251 201.242302 
L 208.69923 130.683614 
L 208.69923 130.683614 
L 209.02421 194.968551 
L 209.02421 194.968551 
L 209.349189 184.63234 
L 209.349189 184.63234 
L 209.674169 203.28273 
L 209.674169 203.28273 
L 209.999148 196.927742 
L 209.999148 196.927742 
L 210.324128 133.125752 
L 210.324128 133.125752 
L 210.649107 239.483355 
L 210.649107 239.483355 
L 210.974087 117.783374 
L 210.974087 117.783374 
L 211.299066 188.421994 
L 211.299066 188.421994 
L 211.624046 192.540369 
L 211.624046 192.540369 
L 211.949025 128.441592 
L 211.949025 128.441592 
L 212.274005 237.374718 
L 212.274005 237.374718 
L 212.598984 105.103221 
L 212.598984 105.103221 
L 213.248943 218.473123 
L 213.248943 218.473123 
L 213.573923 164.157675 
L 213.573923 164.157675 
L 213.898903 153.537682 
L 213.898903 153.537682 
L 214.223882 239.212194 
L 214.223882 239.212194 
L 214.548862 164.177348 
L 214.548862 164.177348 
L 214.873841 137.157742 
L 214.873841 137.157742 
L 215.198821 244.448728 
L 215.198821 244.448728 
L 215.5238 137.971527 
L 215.5238 137.971527 
L 215.84878 193.417396 
L 215.84878 193.417396 
L 216.173759 211.223422 
L 216.173759 211.223422 
L 216.498739 127.728745 
L 216.498739 127.728745 
L 216.823718 180.954095 
L 216.823718 180.954095 
L 217.148698 146.338041 
L 217.148698 146.338041 
L 217.473677 185.115316 
L 217.473677 185.115316 
L 217.798657 171.057314 
L 217.798657 171.057314 
L 218.123636 170.622249 
L 218.123636 170.622249 
L 218.448616 163.735743 
L 218.448616 163.735743 
L 218.773595 221.743098 
L 218.773595 221.743098 
L 219.098575 110.499353 
L 219.098575 110.499353 
L 219.423554 203.709453 
L 219.423554 203.709453 
L 219.748534 219.931662 
L 219.748534 219.931662 
L 220.073514 170.770113 
L 220.073514 170.770113 
L 220.398493 179.081844 
L 220.398493 179.081844 
L 220.723473 181.005222 
L 220.723473 181.005222 
L 221.048452 181.279517 
L 221.048452 181.279517 
L 221.373432 141.144285 
L 221.373432 141.144285 
L 221.698411 208.412478 
L 221.698411 208.412478 
L 222.023391 138.391703 
L 222.023391 138.391703 
L 222.34837 203.531141 
L 222.34837 203.531141 
L 222.67335 154.521025 
L 222.67335 154.521025 
L 222.998329 150.882635 
L 222.998329 150.882635 
L 223.323309 151.359482 
L 223.323309 151.359482 
L 223.648288 231.701038 
L 223.648288 231.701038 
L 223.973268 140.615265 
L 223.973268 140.615265 
L 224.298247 199.558264 
L 224.298247 199.558264 
L 224.623227 198.106489 
L 224.623227 198.106489 
L 224.948206 160.195219 
L 224.948206 160.195219 
L 225.273186 199.28359 
L 225.273186 199.28359 
L 225.598165 135.380203 
L 225.598165 135.380203 
L 225.923145 253.849261 
L 225.923145 253.849261 
L 226.248124 131.206514 
L 226.248124 131.206514 
L 226.573104 182.23513 
L 226.573104 182.23513 
L 226.898084 194.064905 
L 226.898084 194.064905 
L 227.223063 102.082767 
L 227.223063 102.082767 
L 227.548043 205.053774 
L 227.548043 205.053774 
L 227.873022 172.395714 
L 227.873022 172.395714 
L 228.198002 163.840211 
L 228.198002 163.840211 
L 228.522981 172.105597 
L 228.522981 172.105597 
L 228.847961 199.363439 
L 228.847961 199.363439 
L 229.17294 149.86785 
L 229.17294 149.86785 
L 229.49792 188.304992 
L 229.49792 188.304992 
L 229.822899 164.489355 
L 229.822899 164.489355 
L 230.147879 249.149693 
L 230.147879 249.149693 
L 230.472858 138.942442 
L 230.472858 138.942442 
L 230.797838 194.966343 
L 230.797838 194.966343 
L 231.122817 170.079437 
L 231.122817 170.079437 
L 231.447797 167.049177 
L 231.447797 167.049177 
L 231.772776 171.07478 
L 231.772776 171.07478 
L 232.097756 183.440353 
L 232.097756 183.440353 
L 232.422735 133.505732 
L 232.422735 133.505732 
L 232.747715 246.089355 
L 232.747715 246.089355 
L 233.072695 87.742818 
L 233.072695 87.742818 
L 233.397674 179.636759 
L 233.397674 179.636759 
L 233.722654 195.802864 
L 233.722654 195.802864 
L 234.372613 163.99918 
L 234.372613 163.99918 
L 234.697592 215.544849 
L 234.697592 215.544849 
L 235.022572 168.320073 
L 235.022572 168.320073 
L 235.672531 182.63163 
L 235.672531 182.63163 
L 235.99751 181.293559 
L 235.99751 181.293559 
L 236.32249 184.578584 
L 236.32249 184.578584 
L 236.647469 190.480812 
L 236.647469 190.480812 
L 236.972449 144.324042 
L 236.972449 144.324042 
L 237.297428 174.366189 
L 237.297428 174.366189 
L 237.622408 139.214917 
L 237.622408 139.214917 
L 237.947387 206.851385 
L 237.947387 206.851385 
L 238.272367 138.08316 
L 238.272367 138.08316 
L 238.597346 206.328351 
L 238.597346 206.328351 
L 238.922326 161.684978 
L 238.922326 161.684978 
L 239.247305 180.193903 
L 239.247305 180.193903 
L 239.572285 171.257271 
L 239.572285 171.257271 
L 239.897265 181.463646 
L 239.897265 181.463646 
L 240.222244 201.188095 
L 240.222244 201.188095 
L 240.547224 178.796278 
L 240.547224 178.796278 
L 240.872203 223.601522 
L 240.872203 223.601522 
L 241.197183 102.256198 
L 241.197183 102.256198 
L 241.522162 217.628321 
L 241.522162 217.628321 
L 241.847142 168.921286 
L 241.847142 168.921286 
L 242.172121 149.945726 
L 242.172121 149.945726 
L 242.497101 170.979732 
L 242.497101 170.979732 
L 242.82208 209.841155 
L 242.82208 209.841155 
L 243.14706 127.07165 
L 243.14706 127.07165 
L 243.472039 173.843683 
L 243.472039 173.843683 
L 243.797019 163.595662 
L 243.797019 163.595662 
L 244.121998 179.818495 
L 244.121998 179.818495 
L 244.446978 224.954713 
L 244.446978 224.954713 
L 244.771957 133.735141 
L 244.771957 133.735141 
L 245.096937 211.298851 
L 245.096937 211.298851 
L 245.421916 200.483697 
L 245.421916 200.483697 
L 245.746896 127.251235 
L 245.746896 127.251235 
L 246.071876 218.423529 
L 246.071876 218.423529 
L 246.396855 164.254875 
L 246.396855 164.254875 
L 246.721835 203.587393 
L 246.721835 203.587393 
L 247.046814 147.390066 
L 247.046814 147.390066 
L 247.696773 184.656256 
L 247.696773 184.656256 
L 248.021753 97.453739 
L 248.021753 97.453739 
L 248.346732 280.150065 
L 248.346732 280.150065 
L 248.671712 79.648287 
L 248.671712 79.648287 
L 248.996691 225.541539 
L 248.996691 225.541539 
L 249.321671 195.550173 
L 249.321671 195.550173 
L 249.64665 109.93162 
L 249.64665 109.93162 
L 249.97163 245.393685 
L 249.97163 245.393685 
L 250.296609 147.878014 
L 250.296609 147.878014 
L 250.621589 205.500438 
L 250.621589 205.500438 
L 250.946568 201.786197 
L 250.946568 201.786197 
L 251.596527 131.282566 
L 251.596527 131.282566 
L 251.921507 220.973173 
L 251.921507 220.973173 
L 252.246486 154.800193 
L 252.246486 154.800193 
L 252.571466 126.864953 
L 252.571466 126.864953 
L 252.896446 258.583416 
L 252.896446 258.583416 
L 253.221425 82.084395 
L 253.221425 82.084395 
L 253.546405 233.504335 
L 253.546405 233.504335 
L 253.871384 111.435515 
L 253.871384 111.435515 
L 254.196364 197.538261 
L 254.196364 197.538261 
L 254.521343 186.939366 
L 254.521343 186.939366 
L 254.846323 223.414236 
L 254.846323 223.414236 
L 255.171302 109.568387 
L 255.171302 109.568387 
L 255.496282 253.546064 
L 255.496282 253.546064 
L 255.821261 146.872046 
L 255.821261 146.872046 
L 256.146241 175.777017 
L 256.146241 175.777017 
L 256.47122 176.226223 
L 256.47122 176.226223 
L 256.7962 201.285023 
L 256.7962 201.285023 
L 257.121179 177.433036 
L 257.121179 177.433036 
L 257.446159 139.249531 
L 257.446159 139.249531 
L 258.096118 183.845806 
L 258.096118 183.845806 
L 258.421097 137.971307 
L 258.421097 137.971307 
L 258.746077 198.871522 
L 258.746077 198.871522 
L 259.071057 185.21748 
L 259.071057 185.21748 
L 259.396036 164.530272 
L 259.396036 164.530272 
L 259.721016 164.688497 
L 259.721016 164.688497 
L 260.045995 217.026787 
L 260.045995 217.026787 
L 260.370975 139.09088 
L 260.370975 139.09088 
L 260.695954 207.42724 
L 260.695954 207.42724 
L 261.020934 212.459562 
L 261.020934 212.459562 
L 261.345913 174.945383 
L 261.345913 174.945383 
L 261.670893 121.363051 
L 261.670893 121.363051 
L 261.995872 233.123908 
L 261.995872 233.123908 
L 262.320852 133.532034 
L 262.320852 133.532034 
L 262.645831 157.587469 
L 262.645831 157.587469 
L 262.970811 216.391337 
L 262.970811 216.391337 
L 263.29579 132.009468 
L 263.29579 132.009468 
L 263.62077 182.861695 
L 263.62077 182.861695 
L 263.945749 171.884055 
L 263.945749 171.884055 
L 264.270729 142.236219 
L 264.270729 142.236219 
L 264.595708 201.782754 
L 264.595708 201.782754 
L 264.920688 205.248264 
L 264.920688 205.248264 
L 265.245667 173.605331 
L 265.245667 173.605331 
L 265.570647 181.077535 
L 265.570647 181.077535 
L 265.895627 161.493562 
L 265.895627 161.493562 
L 266.220606 242.370957 
L 266.220606 242.370957 
L 266.545586 90.316783 
L 266.545586 90.316783 
L 266.870565 225.861835 
L 266.870565 225.861835 
L 267.195545 207.0208 
L 267.195545 207.0208 
L 267.520524 120.969263 
L 267.520524 120.969263 
L 267.845504 175.229681 
L 267.845504 175.229681 
L 268.170483 163.621023 
L 268.170483 163.621023 
L 268.495463 161.80187 
L 268.495463 161.80187 
L 268.820442 187.03007 
L 268.820442 187.03007 
L 269.145422 157.721354 
L 269.145422 157.721354 
L 269.470401 211.540942 
L 269.470401 211.540942 
L 269.795381 155.597758 
L 269.795381 155.597758 
L 270.12036 167.996003 
L 270.12036 167.996003 
L 270.44534 209.397032 
L 270.44534 209.397032 
L 270.770319 162.862508 
L 270.770319 162.862508 
L 271.420278 219.197803 
L 271.420278 219.197803 
L 271.745258 129.87986 
L 271.745258 129.87986 
L 272.070238 185.60662 
L 272.070238 185.60662 
L 272.395217 158.084385 
L 272.395217 158.084385 
L 272.720197 185.096011 
L 272.720197 185.096011 
L 273.045176 159.984715 
L 273.045176 159.984715 
L 273.370156 165.950182 
L 273.370156 165.950182 
L 273.695135 190.719199 
L 273.695135 190.719199 
L 274.020115 156.245566 
L 274.020115 156.245566 
L 274.345094 147.20663 
L 274.345094 147.20663 
L 274.670074 194.925224 
L 274.670074 194.925224 
L 274.995053 203.694203 
L 274.995053 203.694203 
L 275.320033 161.072682 
L 275.320033 161.072682 
L 275.645012 223.069466 
L 275.645012 223.069466 
L 275.969992 140.392884 
L 275.969992 140.392884 
L 276.294971 191.714534 
L 276.294971 191.714534 
L 276.619951 200.980268 
L 276.619951 200.980268 
L 276.94493 137.446269 
L 276.94493 137.446269 
L 277.26991 195.707177 
L 277.26991 195.707177 
L 277.594889 202.136843 
L 277.594889 202.136843 
L 277.919869 138.520462 
L 277.919869 138.520462 
L 278.244848 130.889011 
L 278.244848 130.889011 
L 278.569828 211.633707 
L 278.569828 211.633707 
L 278.894808 150.081064 
L 278.894808 150.081064 
L 279.544767 193.557362 
L 279.544767 193.557362 
L 279.869746 171.265563 
L 279.869746 171.265563 
L 280.194726 180.11565 
L 280.194726 180.11565 
L 280.519705 179.851748 
L 280.519705 179.851748 
L 280.844685 164.14016 
L 280.844685 164.14016 
L 281.169664 225.152695 
L 281.169664 225.152695 
L 281.819623 136.865897 
L 281.819623 136.865897 
L 282.144603 243.10535 
L 282.144603 243.10535 
L 282.469582 89.291794 
L 282.469582 89.291794 
L 282.794562 188.753937 
L 282.794562 188.753937 
L 283.119541 220.895141 
L 283.119541 220.895141 
L 283.444521 99.754798 
L 283.444521 99.754798 
L 283.7695 216.631004 
L 283.7695 216.631004 
L 284.09448 151.090284 
L 284.09448 151.090284 
L 284.419459 197.475016 
L 284.419459 197.475016 
L 284.744439 95.928902 
L 284.744439 95.928902 
L 285.069419 261.618807 
L 285.069419 261.618807 
L 285.719378 134.225491 
L 285.719378 134.225491 
L 286.044357 249.502106 
L 286.044357 249.502106 
L 286.369337 131.328265 
L 286.369337 131.328265 
L 287.019296 213.488657 
L 287.019296 213.488657 
L 287.344275 124.840402 
L 287.344275 124.840402 
L 287.669255 217.391967 
L 287.669255 217.391967 
L 288.319214 131.230394 
L 288.319214 131.230394 
L 288.644193 177.44086 
L 288.644193 177.44086 
L 288.969173 151.6262 
L 288.969173 151.6262 
L 289.294152 214.61917 
L 289.294152 214.61917 
L 289.619132 153.626347 
L 289.619132 153.626347 
L 289.944111 172.155793 
L 289.944111 172.155793 
L 290.269091 205.651844 
L 290.269091 205.651844 
L 290.59407 181.197195 
L 290.59407 181.197195 
L 290.91905 125.838007 
L 290.91905 125.838007 
L 291.244029 243.369907 
L 291.244029 243.369907 
L 291.569009 206.069723 
L 291.569009 206.069723 
L 291.893989 100.603469 
L 291.893989 100.603469 
L 292.218968 270.371013 
L 292.218968 270.371013 
L 292.543948 98.890338 
L 292.543948 98.890338 
L 292.868927 167.708322 
L 292.868927 167.708322 
L 293.193907 203.593313 
L 293.193907 203.593313 
L 293.518886 152.244597 
L 293.518886 152.244597 
L 293.843866 164.031242 
L 293.843866 164.031242 
L 294.168845 189.993124 
L 294.168845 189.993124 
L 294.493825 155.663372 
L 294.493825 155.663372 
L 294.818804 168.803594 
L 294.818804 168.803594 
L 295.143784 174.938854 
L 295.143784 174.938854 
L 295.468763 198.916355 
L 295.468763 198.916355 
L 295.793743 204.430729 
L 295.793743 204.430729 
L 296.118722 171.068413 
L 296.118722 171.068413 
L 296.443702 164.852645 
L 296.443702 164.852645 
L 296.768681 201.359471 
L 296.768681 201.359471 
L 297.093661 163.610215 
L 297.093661 163.610215 
L 297.41864 174.115936 
L 297.41864 174.115936 
L 298.0686 184.868682 
L 298.0686 184.868682 
L 298.718559 138.539278 
L 298.718559 138.539278 
L 299.043538 178.634316 
L 299.043538 178.634316 
L 299.368518 175.270321 
L 299.368518 175.270321 
L 299.693497 190.271879 
L 299.693497 190.271879 
L 300.018477 170.774869 
L 300.018477 170.774869 
L 300.343456 166.504034 
L 300.343456 166.504034 
L 300.668436 226.330372 
L 300.668436 226.330372 
L 300.993415 118.306092 
L 300.993415 118.306092 
L 301.318395 224.900065 
L 301.318395 224.900065 
L 301.643374 172.021221 
L 301.643374 172.021221 
L 301.968354 208.829096 
L 301.968354 208.829096 
L 302.293333 156.521709 
L 302.293333 156.521709 
L 302.618313 172.558817 
L 302.618313 172.558817 
L 302.943292 146.215932 
L 302.943292 146.215932 
L 303.268272 210.891511 
L 303.268272 210.891511 
L 303.593251 103.431847 
L 303.593251 103.431847 
L 303.918231 248.840093 
L 303.918231 248.840093 
L 304.24321 120.607243 
L 304.24321 120.607243 
L 304.56819 175.528805 
L 304.56819 175.528805 
L 304.89317 198.908944 
L 304.89317 198.908944 
L 305.218149 127.854618 
L 305.218149 127.854618 
L 305.543129 216.987745 
L 305.543129 216.987745 
L 305.868108 200.793048 
L 305.868108 200.793048 
L 306.193088 161.74914 
L 306.193088 161.74914 
L 306.518067 224.866383 
L 306.518067 224.866383 
L 306.843047 102.552153 
L 306.843047 102.552153 
L 307.168026 251.919548 
L 307.168026 251.919548 
L 307.493006 129.527702 
L 307.493006 129.527702 
L 307.817985 190.980509 
L 307.817985 190.980509 
L 308.142965 168.53461 
L 308.142965 168.53461 
L 308.467944 187.227564 
L 308.467944 187.227564 
L 308.792924 143.300448 
L 308.792924 143.300448 
L 309.117903 148.581326 
L 309.117903 148.581326 
L 309.442883 174.91043 
L 309.442883 174.91043 
L 309.767862 219.276731 
L 309.767862 219.276731 
L 310.092842 134.430875 
L 310.092842 134.430875 
L 310.417821 194.985027 
L 310.417821 194.985027 
L 310.742801 208.036375 
L 310.742801 208.036375 
L 311.067781 137.617542 
L 311.067781 137.617542 
L 311.39276 199.117168 
L 311.39276 199.117168 
L 311.71774 201.818941 
L 311.71774 201.818941 
L 312.042719 154.574511 
L 312.042719 154.574511 
L 312.367699 224.508501 
L 312.367699 224.508501 
L 313.017658 106.067983 
L 313.017658 106.067983 
L 313.342637 255.651094 
L 313.342637 255.651094 
L 313.667617 101.113931 
L 313.667617 101.113931 
L 313.992596 196.210227 
L 313.992596 196.210227 
L 314.317576 176.388319 
L 314.317576 176.388319 
L 314.642555 183.58021 
L 314.642555 183.58021 
L 314.967535 119.867695 
L 314.967535 119.867695 
L 315.292514 234.368259 
L 315.292514 234.368259 
L 315.617494 135.55214 
L 315.617494 135.55214 
L 315.942473 201.572287 
L 315.942473 201.572287 
L 316.267453 222.498342 
L 316.267453 222.498342 
L 316.592432 152.281051 
L 316.592432 152.281051 
L 316.917412 187.021492 
L 316.917412 187.021492 
L 317.242391 157.092665 
L 317.242391 157.092665 
L 317.567371 220.052396 
L 317.567371 220.052396 
L 317.892351 110.31689 
L 317.892351 110.31689 
L 318.21733 244.466412 
L 318.21733 244.466412 
L 318.54231 115.35124 
L 318.54231 115.35124 
L 318.867289 196.792282 
L 318.867289 196.792282 
L 319.192269 163.667422 
L 319.192269 163.667422 
L 319.517248 96.988293 
L 319.517248 96.988293 
L 319.842228 280.422341 
L 319.842228 280.422341 
L 320.167207 104.075127 
L 320.167207 104.075127 
L 320.492187 234.366285 
L 320.492187 234.366285 
L 320.817166 141.229692 
L 320.817166 141.229692 
L 321.142146 199.645255 
L 321.142146 199.645255 
L 321.467125 194.466126 
L 321.467125 194.466126 
L 321.792105 141.893983 
L 321.792105 141.893983 
L 322.117084 219.695808 
L 322.117084 219.695808 
L 322.767043 165.097971 
L 322.767043 165.097971 
L 323.092023 145.943268 
L 323.092023 145.943268 
L 323.417002 174.69213 
L 323.417002 174.69213 
L 323.741982 186.784148 
L 323.741982 186.784148 
L 324.066962 132.019105 
L 324.066962 132.019105 
L 324.391941 198.978564 
L 324.391941 198.978564 
L 324.716921 197.651443 
L 324.716921 197.651443 
L 325.0419 97.552274 
L 325.0419 97.552274 
L 325.36688 250.102069 
L 325.36688 250.102069 
L 325.691859 130.20889 
L 325.691859 130.20889 
L 326.341818 237.023555 
L 326.341818 237.023555 
L 326.666798 164.637621 
L 326.666798 164.637621 
L 326.991777 161.690175 
L 326.991777 161.690175 
L 327.316757 206.90981 
L 327.316757 206.90981 
L 327.641736 141.610823 
L 327.641736 141.610823 
L 327.966716 195.903534 
L 327.966716 195.903534 
L 328.291695 173.683804 
L 328.291695 173.683804 
L 328.616675 162.713175 
L 328.616675 162.713175 
L 329.266634 182.919014 
L 329.266634 182.919014 
L 329.591613 98.097384 
L 329.591613 98.097384 
L 329.916593 244.37856 
L 329.916593 244.37856 
L 330.241572 129.946006 
L 330.241572 129.946006 
L 330.566552 223.862667 
L 330.566552 223.862667 
L 330.891532 172.817698 
L 330.891532 172.817698 
L 331.216511 145.148561 
L 331.216511 145.148561 
L 331.541491 225.217464 
L 331.541491 225.217464 
L 332.19145 133.172614 
L 332.19145 133.172614 
L 332.516429 249.686751 
L 332.516429 249.686751 
L 332.841409 167.344503 
L 332.841409 167.344503 
L 333.166388 144.349399 
L 333.166388 144.349399 
L 333.491368 160.511465 
L 333.491368 160.511465 
L 333.816347 184.645861 
L 333.816347 184.645861 
L 334.141327 164.70588 
L 334.141327 164.70588 
L 334.466306 154.059432 
L 334.466306 154.059432 
L 334.791286 203.986286 
L 334.791286 203.986286 
L 335.116265 152.395921 
L 335.116265 152.395921 
L 335.441245 183.701402 
L 335.441245 183.701402 
L 335.766224 141.958286 
L 335.766224 141.958286 
L 336.091204 240.212747 
L 336.091204 240.212747 
L 336.416183 126.506452 
L 336.416183 126.506452 
L 336.741163 252.282249 
L 336.741163 252.282249 
L 337.066143 156.372072 
L 337.066143 156.372072 
L 338.041081 185.752341 
L 338.041081 185.752341 
L 338.366061 165.951275 
L 338.366061 165.951275 
L 338.69104 166.97073 
L 338.69104 166.97073 
L 339.01602 186.899375 
L 339.01602 186.899375 
L 339.665979 131.344648 
L 339.665979 131.344648 
L 339.990958 211.762019 
L 339.990958 211.762019 
L 340.315938 129.750395 
L 340.315938 129.750395 
L 340.640917 228.184828 
L 340.640917 228.184828 
L 340.965897 189.957426 
L 340.965897 189.957426 
L 341.290876 125.800517 
L 341.290876 125.800517 
L 341.615856 230.859669 
L 341.615856 230.859669 
L 342.265815 139.214327 
L 342.265815 139.214327 
L 342.590794 246.235789 
L 342.590794 246.235789 
L 342.915774 136.142467 
L 342.915774 136.142467 
L 343.240753 207.338327 
L 343.240753 207.338327 
L 343.565733 151.589713 
L 343.565733 151.589713 
L 343.890713 118.238456 
L 343.890713 118.238456 
L 344.215692 234.495392 
L 344.215692 234.495392 
L 344.540672 132.585583 
L 344.540672 132.585583 
L 344.865651 188.423086 
L 344.865651 188.423086 
L 345.190631 157.468204 
L 345.190631 157.468204 
L 345.51561 196.311041 
L 345.51561 196.311041 
L 345.84059 176.369891 
L 345.84059 176.369891 
L 346.165569 109.644873 
L 346.165569 109.644873 
L 346.490549 295.488 
L 346.490549 295.488 
L 346.815528 122.643086 
L 346.815528 122.643086 
L 347.140508 202.187519 
L 347.140508 202.187519 
L 347.790467 176.987035 
L 347.790467 176.987035 
L 348.115446 109.980786 
L 348.115446 109.980786 
L 348.440426 269.523596 
L 348.440426 269.523596 
L 348.765405 108.783246 
L 348.765405 108.783246 
L 349.090385 177.159685 
L 349.090385 177.159685 
L 349.415364 201.154619 
L 349.415364 201.154619 
L 349.740344 126.687088 
L 349.740344 126.687088 
L 350.065324 174.277564 
L 350.065324 174.277564 
L 350.390303 166.726177 
L 350.390303 166.726177 
L 350.715283 195.153112 
L 350.715283 195.153112 
L 351.040262 202.736689 
L 351.040262 202.736689 
L 351.365242 150.053866 
L 351.365242 150.053866 
L 351.690221 192.359278 
L 351.690221 192.359278 
L 352.015201 199.13011 
L 352.015201 199.13011 
L 352.34018 144.43922 
L 352.34018 144.43922 
L 352.66516 215.243104 
L 352.66516 215.243104 
L 352.990139 179.1219 
L 352.990139 179.1219 
L 353.315119 159.969224 
L 353.315119 159.969224 
L 353.640098 201.292725 
L 353.640098 201.292725 
L 353.965078 125.485391 
L 353.965078 125.485391 
L 354.290057 153.638264 
L 354.290057 153.638264 
L 354.615037 212.223629 
L 354.615037 212.223629 
L 354.940016 161.894432 
L 354.940016 161.894432 
L 355.264996 152.079534 
L 355.264996 152.079534 
L 355.914955 211.717718 
L 355.914955 211.717718 
L 356.239934 117.374514 
L 356.239934 117.374514 
L 356.889894 259.273993 
L 356.889894 259.273993 
L 357.214873 102.226788 
L 357.214873 102.226788 
L 357.539853 255.488975 
L 357.539853 255.488975 
L 357.864832 117.915071 
L 357.864832 117.915071 
L 358.189812 202.776098 
L 358.189812 202.776098 
L 358.514791 158.866622 
L 358.514791 158.866622 
L 358.839771 165.978753 
L 358.839771 165.978753 
L 359.16475 208.236602 
L 359.16475 208.236602 
L 359.48973 127.020536 
L 359.48973 127.020536 
L 359.814709 180.785492 
L 359.814709 180.785492 
L 360.139689 179.230232 
L 360.139689 179.230232 
L 360.464668 127.270097 
L 360.464668 127.270097 
L 360.789648 214.064073 
L 360.789648 214.064073 
L 361.114627 175.647935 
L 361.114627 175.647935 
L 361.439607 220.377943 
L 361.439607 220.377943 
L 361.764586 112.449345 
L 361.764586 112.449345 
L 362.089566 234.488004 
L 362.089566 234.488004 
L 362.739525 137.360864 
L 362.739525 137.360864 
L 363.064505 244.877474 
L 363.064505 244.877474 
L 363.389484 141.350152 
L 363.389484 141.350152 
L 363.714464 181.201665 
L 363.714464 181.201665 
L 364.039443 176.681599 
L 364.039443 176.681599 
L 364.364423 124.26054 
L 364.364423 124.26054 
L 364.689402 179.041705 
L 364.689402 179.041705 
L 365.014382 210.294552 
L 365.014382 210.294552 
L 365.339361 138.191244 
L 365.339361 138.191244 
L 365.98932 202.89508 
L 365.98932 202.89508 
L 366.3143 153.316956 
L 366.3143 153.316956 
L 366.639279 175.106265 
L 366.639279 175.106265 
L 366.964259 207.491078 
L 366.964259 207.491078 
L 367.289238 173.222 
L 367.289238 173.222 
L 367.614218 235.801658 
L 367.614218 235.801658 
L 367.939197 101.063336 
L 367.939197 101.063336 
L 368.264177 221.009401 
L 368.264177 221.009401 
L 368.589156 162.4213 
L 368.589156 162.4213 
L 368.914136 150.122775 
L 368.914136 150.122775 
L 369.239115 203.588045 
L 369.239115 203.588045 
L 369.564095 155.199383 
L 369.564095 155.199383 
L 369.889075 166.881899 
L 369.889075 166.881899 
L 370.214054 167.295666 
L 370.214054 167.295666 
L 370.539034 156.953701 
L 370.539034 156.953701 
L 370.864013 170.012682 
L 370.864013 170.012682 
L 371.188993 222.64645 
L 371.188993 222.64645 
L 371.513972 131.731351 
L 371.513972 131.731351 
L 371.838952 259.807419 
L 371.838952 259.807419 
L 372.163931 104.028053 
L 372.163931 104.028053 
L 372.488911 212.201338 
L 372.488911 212.201338 
L 372.81389 186.020611 
L 372.81389 186.020611 
L 373.13887 195.660422 
L 373.13887 195.660422 
L 373.463849 115.034743 
L 373.463849 115.034743 
L 373.788829 275.898829 
L 373.788829 275.898829 
L 374.113808 98.517663 
L 374.113808 98.517663 
L 374.763767 191.750966 
L 374.763767 191.750966 
L 375.088747 160.743441 
L 375.088747 160.743441 
L 375.413726 179.601969 
L 375.413726 179.601969 
L 375.738706 175.008203 
L 375.738706 175.008203 
L 376.063686 178.08905 
L 376.063686 178.08905 
L 376.388665 158.590099 
L 376.388665 158.590099 
L 376.713645 204.346013 
L 376.713645 204.346013 
L 377.038624 169.131721 
L 377.038624 169.131721 
L 377.363604 172.627915 
L 377.363604 172.627915 
L 377.688583 246.179049 
L 377.688583 246.179049 
L 378.013563 149.862285 
L 378.013563 149.862285 
L 378.338542 132.099173 
L 378.338542 132.099173 
L 378.663522 238.093288 
L 378.663522 238.093288 
L 378.988501 117.852663 
L 378.988501 117.852663 
L 379.313481 194.976468 
L 379.313481 194.976468 
L 379.63846 182.416273 
L 379.63846 182.416273 
L 379.96344 128.039808 
L 379.96344 128.039808 
L 380.288419 240.077393 
L 380.288419 240.077393 
L 380.613399 58.093445 
L 380.613399 58.093445 
L 380.938378 267.002982 
L 380.938378 267.002982 
L 381.263358 125.946317 
L 381.263358 125.946317 
L 381.588337 210.603269 
L 381.588337 210.603269 
L 381.913317 200.330561 
L 381.913317 200.330561 
L 382.238296 155.223404 
L 382.238296 155.223404 
L 382.563276 192.057432 
L 382.563276 192.057432 
L 382.888256 166.717923 
L 382.888256 166.717923 
L 383.213235 205.840954 
L 383.213235 205.840954 
L 383.538215 164.190943 
L 383.538215 164.190943 
L 383.863194 176.029269 
L 383.863194 176.029269 
L 384.188174 183.672976 
L 384.188174 183.672976 
L 384.513153 166.972975 
L 384.513153 166.972975 
L 384.838133 107.377798 
L 384.838133 107.377798 
L 385.163112 224.43992 
L 385.163112 224.43992 
L 385.488092 161.916142 
L 385.488092 161.916142 
L 385.813071 160.610909 
L 385.813071 160.610909 
L 386.138051 209.334038 
L 386.138051 209.334038 
L 386.46303 127.977245 
L 386.46303 127.977245 
L 386.78801 217.363302 
L 386.78801 217.363302 
L 387.437969 144.632079 
L 387.437969 144.632079 
L 387.762948 254.67145 
L 387.762948 254.67145 
L 388.087928 161.402987 
L 388.087928 161.402987 
L 388.412907 162.270574 
L 388.412907 162.270574 
L 388.737887 161.736228 
L 388.737887 161.736228 
L 389.062867 203.396478 
L 389.062867 203.396478 
L 389.387846 121.703411 
L 389.387846 121.703411 
L 389.712826 239.953629 
L 389.712826 239.953629 
L 390.037805 86.079697 
L 390.037805 86.079697 
L 390.362785 257.475628 
L 390.362785 257.475628 
L 390.687764 92.006491 
L 390.687764 92.006491 
L 391.012744 194.449843 
L 391.012744 194.449843 
L 391.337723 181.885692 
L 391.337723 181.885692 
L 391.662703 183.276865 
L 391.662703 183.276865 
L 392.312662 200.166854 
L 392.312662 200.166854 
L 392.637641 142.292707 
L 392.637641 142.292707 
L 392.962621 210.571588 
L 392.962621 210.571588 
L 393.2876 159.28068 
L 393.2876 159.28068 
L 393.61258 204.237396 
L 393.61258 204.237396 
L 393.937559 156.021991 
L 393.937559 156.021991 
L 394.262539 186.095544 
L 394.262539 186.095544 
L 394.587518 182.962223 
L 394.587518 182.962223 
L 394.912498 97.423143 
L 394.912498 97.423143 
L 395.237477 236.135152 
L 395.237477 236.135152 
L 395.562457 111.835256 
L 395.562457 111.835256 
L 395.887437 219.318316 
L 395.887437 219.318316 
L 396.212416 185.30608 
L 396.212416 185.30608 
L 396.537396 129.269663 
L 396.537396 129.269663 
L 396.862375 203.727078 
L 396.862375 203.727078 
L 397.187355 203.865486 
L 397.187355 203.865486 
L 397.512334 138.575438 
L 397.512334 138.575438 
L 397.837314 213.068914 
L 397.837314 213.068914 
L 398.162293 203.381713 
L 398.162293 203.381713 
L 398.487273 184.559385 
L 398.487273 184.559385 
" style="fill:none;stroke:#1f77b4;stroke-linecap:square;stroke-width:1.5;"/>
   </g>
   <g id="patch_3">
    <path d="M 57.6 307.584 
L 57.6 41.472 
" style="fill:none;stroke:#000000;stroke-linecap:square;stroke-linejoin:miter;stroke-width:0.8;"/>
   </g>
   <g id="patch_4">
    <path d="M 414.72 307.584 
L 414.72 41.472 
" style="fill:none;stroke:#000000;stroke-linecap:square;stroke-linejoin:miter;stroke-width:0.8;"/>
   </g>
   <g id="patch_5">
    <path d="M 57.6 307.584 
L 414.72 307.584 
" style="fill:none;stroke:#000000;stroke-linecap:square;stroke-linejoin:miter;stroke-width:0.8;"/>
   </g>
   <g id="patch_6">
    <path d="M 57.6 41.472 
L 414.72 41.472 
" style="fill:none;stroke:#000000;stroke-linecap:square;stroke-linejoin:miter;stroke-width:0.8;"/>
   </g>
  </g>
 </g>
 <defs>
  <clipPath id="p24848b6b78">
   <rect height="266.112" width="357.12" x="57.6" y="41.472"/>
  </clipPath>
 </defs>
</svg>
