<?xml version="1.0" encoding="utf-8" standalone="no"?>
<!DOCTYPE svg PUBLIC "-//W3C//DTD SVG 1.1//EN"
  "http://www.w3.org/Graphics/SVG/1.1/DTD/svg11.dtd">
<!-- Created with matplotlib (https://matplotlib.org/) -->
<svg height="345.6pt" version="1.1" viewBox="0 0 460.8 345.6" width="460.8pt" xmlns="http://www.w3.org/2000/svg" xmlns:xlink="http://www.w3.org/1999/xlink">
 <metadata>
  <rdf:RDF xmlns:cc="http://creativecommons.org/ns#" xmlns:dc="http://purl.org/dc/elements/1.1/" xmlns:rdf="http://www.w3.org/1999/02/22-rdf-syntax-ns#">
   <cc:Work>
    <dc:type rdf:resource="http://purl.org/dc/dcmitype/StillImage"/>
    <dc:date>2020-08-14T22:33:41.141025</dc:date>
    <dc:format>image/svg+xml</dc:format>
    <dc:creator>
     <cc:Agent>
      <dc:title>Matplotlib v3.3.0, https://matplotlib.org/</dc:title>
     </cc:Agent>
    </dc:creator>
   </cc:Work>
  </rdf:RDF>
 </metadata>
 <defs>
  <style type="text/css">*{stroke-linecap:butt;stroke-linejoin:round;}</style>
 </defs>
 <g id="figure_1">
  <g id="patch_1">
   <path d="M 0 345.6 
L 460.8 345.6 
L 460.8 0 
L 0 0 
z
" style="fill:#ffffff;"/>
  </g>
  <g id="axes_1">
   <g id="patch_2">
    <path d="M 57.6 307.584 
L 414.72 307.584 
L 414.72 41.472 
L 57.6 41.472 
z
" style="fill:#ffffff;"/>
   </g>
   <g id="matplotlib.axis_1">
    <g id="xtick_1">
     <g id="line2d_1">
      <defs>
       <path d="M 0 0 
L 0 3.5 
" id="m5d082cccfc" style="stroke:#000000;stroke-width:0.8;"/>
      </defs>
      <g>
       <use style="stroke:#000000;stroke-width:0.8;" x="73.507748" xlink:href="#m5d082cccfc" y="307.584"/>
      </g>
     </g>
     <g id="text_1">
      <!-- 0 -->
      <g transform="translate(71.007748 321.459)scale(0.1 -0.1)">
       <defs>
        <path d="M 3.125 29.296875 
Q 3.90625 50 6.4375 56.046875 
Q 8.984375 62.109375 13.671875 66.015625 
Q 18.359375 69.921875 25.1875 69.921875 
Q 32.03125 69.921875 37.109375 64.25 
Q 42.1875 58.59375 43.75 50 
Q 45.3125 41.40625 44.71875 30.265625 
Q 44.140625 19.140625 40.8125 12.109375 
Q 37.5 5.078125 30.859375 2.34375 
Q 24.21875 -0.390625 17.578125 2.921875 
Q 10.9375 6.25 8.203125 11.71875 
Q 5.46875 17.1875 4.296875 23.234375 
Q 3.125 29.296875 3.90625 50 
z
M 12.890625 52.734375 
Q 10.546875 31.25 12.5 22.84375 
Q 14.453125 14.453125 18.9375 10.9375 
Q 23.4375 7.421875 28.125 9.5625 
Q 32.8125 11.71875 34.953125 18.15625 
Q 37.109375 24.609375 37.109375 32.21875 
Q 37.109375 39.84375 36.515625 46.09375 
Q 35.9375 52.34375 33 57.421875 
Q 30.078125 62.5 25.1875 62.6875 
Q 20.3125 62.890625 16.59375 57.8125 
Q 12.890625 52.734375 10.546875 31.25 
z
" id="SimHei-48"/>
       </defs>
       <use xlink:href="#SimHei-48"/>
      </g>
     </g>
    </g>
    <g id="xtick_2">
     <g id="line2d_2">
      <g>
       <use style="stroke:#000000;stroke-width:0.8;" x="138.503653" xlink:href="#m5d082cccfc" y="307.584"/>
      </g>
     </g>
     <g id="text_2">
      <!-- 200 -->
      <g transform="translate(131.003653 321.459)scale(0.1 -0.1)">
       <defs>
        <path d="M 4.6875 3.90625 
Q 5.078125 9.765625 10.15625 14.453125 
Q 15.234375 19.140625 23.046875 29.09375 
Q 30.859375 39.0625 33.203125 44.53125 
Q 35.546875 50 34.953125 53.90625 
Q 34.375 57.8125 31.25 60.34375 
Q 28.125 62.890625 24.015625 62.5 
Q 19.921875 62.109375 16.203125 59.375 
Q 12.5 56.640625 10.546875 51.171875 
L 3.125 52.34375 
Q 6.25 61.328125 11.125 65.421875 
Q 16.015625 69.53125 22.65625 69.921875 
Q 26.5625 70.3125 29.6875 69.71875 
Q 32.8125 69.140625 36.125 66.984375 
Q 39.453125 64.84375 41.59375 60.546875 
Q 43.75 56.25 43.15625 50.1875 
Q 42.578125 44.140625 37.109375 35.734375 
Q 31.640625 27.34375 16.015625 9.375 
L 44.140625 9.375 
L 44.140625 2.34375 
L 4.6875 2.34375 
z
" id="SimHei-50"/>
       </defs>
       <use xlink:href="#SimHei-50"/>
       <use x="50" xlink:href="#SimHei-48"/>
       <use x="100" xlink:href="#SimHei-48"/>
      </g>
     </g>
    </g>
    <g id="xtick_3">
     <g id="line2d_3">
      <g>
       <use style="stroke:#000000;stroke-width:0.8;" x="203.499558" xlink:href="#m5d082cccfc" y="307.584"/>
      </g>
     </g>
     <g id="text_3">
      <!-- 400 -->
      <g transform="translate(195.999558 321.459)scale(0.1 -0.1)">
       <defs>
        <path d="M 31.25 17.1875 
L 1.171875 17.1875 
L 1.171875 23.828125 
L 32.8125 69.53125 
L 38.671875 69.53125 
L 38.671875 23.828125 
L 48.046875 23.828125 
L 48.046875 17.1875 
L 38.671875 17.1875 
L 38.671875 2.34375 
L 31.25 2.34375 
z
M 31.25 23.828125 
L 31.25 54.6875 
L 9.375 23.828125 
z
" id="SimHei-52"/>
       </defs>
       <use xlink:href="#SimHei-52"/>
       <use x="50" xlink:href="#SimHei-48"/>
       <use x="100" xlink:href="#SimHei-48"/>
      </g>
     </g>
    </g>
    <g id="xtick_4">
     <g id="line2d_4">
      <g>
       <use style="stroke:#000000;stroke-width:0.8;" x="268.495463" xlink:href="#m5d082cccfc" y="307.584"/>
      </g>
     </g>
     <g id="text_4">
      <!-- 600 -->
      <g transform="translate(260.995463 321.459)scale(0.1 -0.1)">
       <defs>
        <path d="M 3.515625 19.53125 
Q 4.296875 30.859375 6.046875 34.765625 
Q 7.8125 38.671875 11.328125 44.53125 
L 27.34375 69.53125 
L 36.328125 69.53125 
L 19.921875 43.75 
Q 30.46875 46.484375 36.71875 42.96875 
Q 42.96875 39.453125 45.109375 34.953125 
Q 47.265625 30.46875 47.453125 25.1875 
Q 47.65625 19.921875 45.890625 14.84375 
Q 44.140625 9.765625 39.640625 5.65625 
Q 35.15625 1.5625 27.140625 1.171875 
Q 19.140625 0.78125 13.46875 4.09375 
Q 7.8125 7.421875 5.65625 13.46875 
Q 3.515625 19.53125 4.296875 30.859375 
z
M 12.5 16.015625 
Q 19.53125 8.59375 25.390625 8.203125 
Q 31.25 7.8125 35.15625 12.109375 
Q 39.0625 16.40625 39.0625 24.609375 
Q 39.0625 32.8125 34.171875 35.9375 
Q 29.296875 39.0625 23.234375 38.28125 
Q 17.1875 37.5 14.453125 32.421875 
Q 11.71875 27.34375 12.109375 21.671875 
Q 12.5 16.015625 19.53125 8.59375 
z
" id="SimHei-54"/>
       </defs>
       <use xlink:href="#SimHei-54"/>
       <use x="50" xlink:href="#SimHei-48"/>
       <use x="100" xlink:href="#SimHei-48"/>
      </g>
     </g>
    </g>
    <g id="xtick_5">
     <g id="line2d_5">
      <g>
       <use style="stroke:#000000;stroke-width:0.8;" x="333.491368" xlink:href="#m5d082cccfc" y="307.584"/>
      </g>
     </g>
     <g id="text_5">
      <!-- 800 -->
      <g transform="translate(325.991368 321.459)scale(0.1 -0.1)">
       <defs>
        <path d="M 2.734375 16.796875 
Q 2.734375 26.171875 5.078125 30.65625 
Q 7.421875 35.15625 12.890625 37.890625 
Q 8.203125 40.625 6.640625 43.9375 
Q 5.078125 47.265625 4.875 51.5625 
Q 4.6875 55.859375 6.046875 58.984375 
Q 7.421875 62.109375 10.15625 64.84375 
Q 12.890625 67.578125 16.203125 68.546875 
Q 19.53125 69.53125 23.4375 69.53125 
Q 27.34375 69.53125 30.46875 68.75 
Q 33.59375 67.96875 37.109375 65.421875 
Q 40.625 62.890625 42.1875 58.203125 
Q 43.75 53.515625 41.984375 47.265625 
Q 40.234375 41.015625 32.8125 37.5 
Q 39.453125 35.546875 42.1875 31.4375 
Q 44.921875 27.34375 44.921875 21.484375 
Q 44.921875 15.625 43.15625 12.109375 
Q 41.40625 8.59375 39.25 6.25 
Q 37.109375 3.90625 33.390625 2.53125 
Q 29.6875 1.171875 24.015625 1.171875 
Q 18.359375 1.171875 14.25 2.53125 
Q 10.15625 3.90625 7.421875 6.640625 
Q 4.6875 9.375 3.703125 13.078125 
Q 2.734375 16.796875 2.734375 26.171875 
z
M 10.9375 26.5625 
Q 10.546875 17.1875 12.296875 13.671875 
Q 14.0625 10.15625 18.75 9.171875 
Q 23.4375 8.203125 28.515625 9.375 
Q 33.59375 10.546875 35.546875 14.84375 
Q 37.5 19.140625 36.90625 23.4375 
Q 36.328125 27.734375 32.03125 30.65625 
Q 27.734375 33.59375 22.65625 33.203125 
Q 17.578125 32.8125 14.25 29.6875 
Q 10.9375 26.5625 10.546875 17.1875 
z
M 12.109375 56.25 
Q 12.109375 48.4375 14.84375 44.921875 
Q 17.578125 41.40625 23.4375 41.40625 
Q 29.296875 41.40625 32.21875 44.921875 
Q 35.15625 48.4375 34.953125 53.3125 
Q 34.765625 58.203125 31.4375 60.546875 
Q 28.125 62.890625 22.453125 62.5 
Q 16.796875 62.109375 14.453125 59.171875 
Q 12.109375 56.25 12.109375 48.4375 
z
" id="SimHei-56"/>
       </defs>
       <use xlink:href="#SimHei-56"/>
       <use x="50" xlink:href="#SimHei-48"/>
       <use x="100" xlink:href="#SimHei-48"/>
      </g>
     </g>
    </g>
    <g id="xtick_6">
     <g id="line2d_6">
      <g>
       <use style="stroke:#000000;stroke-width:0.8;" x="398.487273" xlink:href="#m5d082cccfc" y="307.584"/>
      </g>
     </g>
     <g id="text_6">
      <!-- 1000 -->
      <g transform="translate(388.487273 321.459)scale(0.1 -0.1)">
       <defs>
        <path d="M 21.875 56.25 
Q 16.796875 51.171875 8.984375 46.484375 
L 8.984375 53.90625 
Q 18.75 60.546875 25 69.53125 
L 29.6875 69.53125 
L 29.6875 2.34375 
L 21.875 2.34375 
z
" id="SimHei-49"/>
       </defs>
       <use xlink:href="#SimHei-49"/>
       <use x="50" xlink:href="#SimHei-48"/>
       <use x="100" xlink:href="#SimHei-48"/>
       <use x="150" xlink:href="#SimHei-48"/>
      </g>
     </g>
    </g>
   </g>
   <g id="matplotlib.axis_2">
    <g id="ytick_1">
     <g id="line2d_7">
      <defs>
       <path d="M 0 0 
L -3.5 0 
" id="mfa3193fe8f" style="stroke:#000000;stroke-width:0.8;"/>
      </defs>
      <g>
       <use style="stroke:#000000;stroke-width:0.8;" x="57.6" xlink:href="#mfa3193fe8f" y="287.38597"/>
      </g>
     </g>
     <g id="text_7">
      <!-- −1.5 -->
      <g transform="translate(25.6 290.82347)scale(0.1 -0.1)">
       <defs>
        <path d="M 87.5 -5.078125 
L 10.9375 -5.078125 
L 10.9375 75.390625 
L 87.5 75.390625 
z
M 84.375 72.65625 
L 13.671875 72.65625 
L 13.671875 -2.34375 
L 84.375 -2.34375 
z
" id="SimHei-8722"/>
        <path d="M 16.796875 1.953125 
L 7.8125 1.953125 
L 7.8125 10.546875 
L 16.796875 10.546875 
z
" id="SimHei-46"/>
        <path d="M 8.59375 20.703125 
Q 11.328125 10.15625 17.96875 8.984375 
Q 24.609375 7.8125 28.703125 10.34375 
Q 32.8125 12.890625 34.5625 16.984375 
Q 36.328125 21.09375 36.125 26.171875 
Q 35.9375 31.25 33.390625 34.765625 
Q 30.859375 38.28125 26.953125 39.453125 
Q 23.046875 40.625 18.15625 39.453125 
Q 13.28125 38.28125 10.15625 33.984375 
L 3.515625 34.765625 
Q 4.296875 37.109375 10.9375 68.359375 
L 41.796875 68.359375 
L 41.796875 61.328125 
L 16.796875 61.328125 
Q 14.84375 50.78125 12.890625 44.53125 
Q 18.75 47.265625 23.828125 47.0625 
Q 28.90625 46.875 33.59375 44.71875 
Q 38.28125 42.578125 40.421875 38.859375 
Q 42.578125 35.15625 43.546875 31.4375 
Q 44.53125 27.734375 44.328125 23.4375 
Q 44.140625 19.140625 42.578125 14.640625 
Q 41.015625 10.15625 37.890625 7.21875 
Q 34.765625 4.296875 30.265625 2.53125 
Q 25.78125 0.78125 19.921875 1.171875 
Q 14.0625 1.5625 8.78125 5.46875 
Q 3.515625 9.375 1.5625 18.75 
z
" id="SimHei-53"/>
       </defs>
       <use xlink:href="#SimHei-8722"/>
       <use x="100" xlink:href="#SimHei-49"/>
       <use x="150" xlink:href="#SimHei-46"/>
       <use x="200" xlink:href="#SimHei-53"/>
      </g>
     </g>
    </g>
    <g id="ytick_2">
     <g id="line2d_8">
      <g>
       <use style="stroke:#000000;stroke-width:0.8;" x="57.6" xlink:href="#mfa3193fe8f" y="247.125487"/>
      </g>
     </g>
     <g id="text_8">
      <!-- −1.0 -->
      <g transform="translate(25.6 250.562987)scale(0.1 -0.1)">
       <use xlink:href="#SimHei-8722"/>
       <use x="100" xlink:href="#SimHei-49"/>
       <use x="150" xlink:href="#SimHei-46"/>
       <use x="200" xlink:href="#SimHei-48"/>
      </g>
     </g>
    </g>
    <g id="ytick_3">
     <g id="line2d_9">
      <g>
       <use style="stroke:#000000;stroke-width:0.8;" x="57.6" xlink:href="#mfa3193fe8f" y="206.865005"/>
      </g>
     </g>
     <g id="text_9">
      <!-- −0.5 -->
      <g transform="translate(25.6 210.302505)scale(0.1 -0.1)">
       <use xlink:href="#SimHei-8722"/>
       <use x="100" xlink:href="#SimHei-48"/>
       <use x="150" xlink:href="#SimHei-46"/>
       <use x="200" xlink:href="#SimHei-53"/>
      </g>
     </g>
    </g>
    <g id="ytick_4">
     <g id="line2d_10">
      <g>
       <use style="stroke:#000000;stroke-width:0.8;" x="57.6" xlink:href="#mfa3193fe8f" y="166.604522"/>
      </g>
     </g>
     <g id="text_10">
      <!-- 0.0 -->
      <g transform="translate(35.6 170.042022)scale(0.1 -0.1)">
       <use xlink:href="#SimHei-48"/>
       <use x="50" xlink:href="#SimHei-46"/>
       <use x="100" xlink:href="#SimHei-48"/>
      </g>
     </g>
    </g>
    <g id="ytick_5">
     <g id="line2d_11">
      <g>
       <use style="stroke:#000000;stroke-width:0.8;" x="57.6" xlink:href="#mfa3193fe8f" y="126.344039"/>
      </g>
     </g>
     <g id="text_11">
      <!-- 0.5 -->
      <g transform="translate(35.6 129.781539)scale(0.1 -0.1)">
       <use xlink:href="#SimHei-48"/>
       <use x="50" xlink:href="#SimHei-46"/>
       <use x="100" xlink:href="#SimHei-53"/>
      </g>
     </g>
    </g>
    <g id="ytick_6">
     <g id="line2d_12">
      <g>
       <use style="stroke:#000000;stroke-width:0.8;" x="57.6" xlink:href="#mfa3193fe8f" y="86.083557"/>
      </g>
     </g>
     <g id="text_12">
      <!-- 1.0 -->
      <g transform="translate(35.6 89.521057)scale(0.1 -0.1)">
       <use xlink:href="#SimHei-49"/>
       <use x="50" xlink:href="#SimHei-46"/>
       <use x="100" xlink:href="#SimHei-48"/>
      </g>
     </g>
    </g>
    <g id="ytick_7">
     <g id="line2d_13">
      <g>
       <use style="stroke:#000000;stroke-width:0.8;" x="57.6" xlink:href="#mfa3193fe8f" y="45.823074"/>
      </g>
     </g>
     <g id="text_13">
      <!-- 1.5 -->
      <g transform="translate(35.6 49.260574)scale(0.1 -0.1)">
       <use xlink:href="#SimHei-49"/>
       <use x="50" xlink:href="#SimHei-46"/>
       <use x="100" xlink:href="#SimHei-53"/>
      </g>
     </g>
    </g>
   </g>
   <g id="line2d_14">
    <path clip-path="url(#p2ed915367b)" d="M 73.832727 107.735151 
L 74.157707 90.531819 
L 74.157707 90.531819 
L 74.482686 175.51389 
L 74.482686 175.51389 
L 74.807666 189.965202 
L 74.807666 189.965202 
L 75.132645 102.38106 
L 75.132645 102.38106 
L 75.457625 150.967494 
L 75.457625 150.967494 
L 75.782604 123.338671 
L 75.782604 123.338671 
L 76.107584 111.415165 
L 76.107584 111.415165 
L 76.432563 213.813274 
L 76.432563 213.813274 
L 76.757543 133.377093 
L 76.757543 133.377093 
L 77.082523 155.04603 
L 77.082523 155.04603 
L 77.407502 155.930694 
L 77.407502 155.930694 
L 77.732482 226.810256 
L 77.732482 226.810256 
L 78.057461 183.898537 
L 78.057461 183.898537 
L 78.382441 221.657424 
L 78.382441 221.657424 
L 78.70742 174.851053 
L 78.70742 174.851053 
L 79.0324 185.942977 
L 79.0324 185.942977 
L 79.357379 220.676195 
L 79.357379 220.676195 
L 79.682359 194.793895 
L 79.682359 194.793895 
L 80.007338 119.169997 
L 80.007338 119.169997 
L 80.332318 150.010477 
L 80.332318 150.010477 
L 80.657297 144.737701 
L 80.657297 144.737701 
L 81.307256 255.684323 
L 81.307256 255.684323 
L 81.632236 176.478299 
L 81.632236 176.478299 
L 81.957215 155.937055 
L 81.957215 155.937055 
L 82.282195 161.566166 
L 82.282195 161.566166 
L 82.607174 173.548801 
L 82.607174 173.548801 
L 82.932154 155.371064 
L 82.932154 155.371064 
L 83.257133 173.467957 
L 83.257133 173.467957 
L 83.907093 124.189677 
L 83.907093 124.189677 
L 84.232072 147.065139 
L 84.232072 147.065139 
L 84.557052 187.790298 
L 84.557052 187.790298 
L 84.882031 147.812491 
L 84.882031 147.812491 
L 85.207011 147.075189 
L 85.207011 147.075189 
L 85.53199 218.541859 
L 85.53199 218.541859 
L 85.85697 145.871408 
L 85.85697 145.871408 
L 86.181949 172.096146 
L 86.181949 172.096146 
L 86.506929 215.859559 
L 86.506929 215.859559 
L 86.831908 137.577745 
L 86.831908 137.577745 
L 87.156888 110.33194 
L 87.156888 110.33194 
L 87.806847 214.159644 
L 87.806847 214.159644 
L 88.131826 214.811174 
L 88.131826 214.811174 
L 88.456806 154.455715 
L 88.456806 154.455715 
L 89.106765 217.465149 
L 89.106765 217.465149 
L 89.431744 234.298494 
L 89.431744 234.298494 
L 90.081704 163.995213 
L 90.081704 163.995213 
L 90.406683 176.289582 
L 90.406683 176.289582 
L 90.731663 180.500623 
L 90.731663 180.500623 
L 91.056642 249.021728 
L 91.056642 249.021728 
L 91.381622 186.555344 
L 91.381622 186.555344 
L 91.706601 197.57519 
L 91.706601 197.57519 
L 92.031581 142.274107 
L 92.031581 142.274107 
L 92.35656 162.465646 
L 92.35656 162.465646 
L 92.68154 171.021851 
L 92.68154 171.021851 
L 93.006519 125.943967 
L 93.006519 125.943967 
L 93.331499 131.847915 
L 93.331499 131.847915 
L 93.656478 101.513484 
L 93.656478 101.513484 
L 93.981458 153.749717 
L 93.981458 153.749717 
L 94.306437 148.304307 
L 94.306437 148.304307 
L 94.631417 198.099101 
L 94.631417 198.099101 
L 94.956396 151.419173 
L 94.956396 151.419173 
L 95.281376 186.84515 
L 95.281376 186.84515 
L 95.606355 206.812732 
L 95.606355 206.812732 
L 95.931335 129.187201 
L 95.931335 129.187201 
L 96.256314 147.614602 
L 96.256314 147.614602 
L 96.581294 173.515782 
L 96.581294 173.515782 
L 96.906274 129.440636 
L 96.906274 129.440636 
L 97.231253 247.634473 
L 97.231253 247.634473 
L 97.556233 166.767582 
L 97.556233 166.767582 
L 97.881212 281.387256 
L 97.881212 281.387256 
L 98.206192 189.211008 
L 98.206192 189.211008 
L 98.531171 182.267157 
L 98.531171 182.267157 
L 98.856151 163.198231 
L 98.856151 163.198231 
L 99.18113 175.328459 
L 99.18113 175.328459 
L 99.50611 254.379515 
L 99.50611 254.379515 
L 99.831089 158.102199 
L 99.831089 158.102199 
L 100.156069 139.701573 
L 100.156069 139.701573 
L 100.481048 199.273402 
L 100.481048 199.273402 
L 100.806028 129.044158 
L 100.806028 129.044158 
L 101.131007 136.209867 
L 101.131007 136.209867 
L 101.455987 140.336449 
L 101.455987 140.336449 
L 101.780966 200.870277 
L 101.780966 200.870277 
L 102.105946 100.972312 
L 102.105946 100.972312 
L 102.430925 177.136715 
L 102.430925 177.136715 
L 102.755905 168.083438 
L 102.755905 168.083438 
L 103.080885 145.820556 
L 103.080885 145.820556 
L 103.405864 145.5671 
L 103.405864 145.5671 
L 103.730844 192.682133 
L 103.730844 192.682133 
L 104.055823 132.202789 
L 104.055823 132.202789 
L 104.380803 201.742656 
L 104.380803 201.742656 
L 104.705782 105.429415 
L 104.705782 105.429415 
L 105.355741 137.823009 
L 105.355741 137.823009 
L 105.680721 195.881587 
L 105.680721 195.881587 
L 106.0057 167.956921 
L 106.0057 167.956921 
L 106.33068 190.467381 
L 106.33068 190.467381 
L 106.655659 128.268362 
L 106.655659 128.268362 
L 106.980639 220.809985 
L 106.980639 220.809985 
L 107.305618 164.093094 
L 107.305618 164.093094 
L 107.630598 157.721137 
L 107.630598 157.721137 
L 107.955577 140.203421 
L 107.955577 140.203421 
L 108.280557 216.196858 
L 108.280557 216.196858 
L 108.605536 222.423049 
L 108.605536 222.423049 
L 108.930516 142.566256 
L 108.930516 142.566256 
L 109.255495 184.704913 
L 109.255495 184.704913 
L 109.580475 176.377734 
L 109.580475 176.377734 
L 109.905455 162.779207 
L 109.905455 162.779207 
L 110.230434 158.3072 
L 110.230434 158.3072 
L 110.555414 173.349108 
L 110.555414 173.349108 
L 110.880393 126.35057 
L 110.880393 126.35057 
L 111.205373 143.958098 
L 111.205373 143.958098 
L 111.530352 202.502775 
L 111.530352 202.502775 
L 111.855332 104.203773 
L 111.855332 104.203773 
L 112.180311 164.774724 
L 112.180311 164.774724 
L 112.505291 143.014788 
L 112.505291 143.014788 
L 112.83027 104.537741 
L 112.83027 104.537741 
L 113.15525 137.076322 
L 113.15525 137.076322 
L 113.480229 123.208267 
L 113.480229 123.208267 
L 113.805209 138.579178 
L 113.805209 138.579178 
L 114.455168 139.75474 
L 114.455168 139.75474 
L 114.780147 97.039905 
L 114.780147 97.039905 
L 115.105127 144.661924 
L 115.105127 144.661924 
L 115.430106 243.834911 
L 115.430106 243.834911 
L 115.755086 151.866346 
L 115.755086 151.866346 
L 116.080066 203.609859 
L 116.080066 203.609859 
L 116.405045 206.069532 
L 116.405045 206.069532 
L 116.730025 201.831211 
L 116.730025 201.831211 
L 117.055004 204.357811 
L 117.055004 204.357811 
L 117.379984 118.992499 
L 117.379984 118.992499 
L 117.704963 196.019305 
L 117.704963 196.019305 
L 118.029943 128.576884 
L 118.029943 128.576884 
L 118.354922 189.641269 
L 118.354922 189.641269 
L 118.679902 162.35518 
L 118.679902 162.35518 
L 119.004881 157.073531 
L 119.004881 157.073531 
L 119.329861 163.782456 
L 119.329861 163.782456 
L 119.65484 156.195261 
L 119.65484 156.195261 
L 119.97982 175.273041 
L 119.97982 175.273041 
L 120.304799 202.198194 
L 120.304799 202.198194 
L 120.954758 91.390169 
L 120.954758 91.390169 
L 121.279738 85.525993 
L 121.279738 85.525993 
L 121.604717 100.220724 
L 121.604717 100.220724 
L 121.929697 202.453124 
L 121.929697 202.453124 
L 122.254676 192.440738 
L 122.254676 192.440738 
L 122.579656 103.504554 
L 122.579656 103.504554 
L 122.904636 174.423594 
L 122.904636 174.423594 
L 123.229615 220.111254 
L 123.229615 220.111254 
L 123.554595 118.166973 
L 123.554595 118.166973 
L 123.879574 110.131217 
L 123.879574 110.131217 
L 124.204554 146.064904 
L 124.204554 146.064904 
L 124.529533 213.017754 
L 124.529533 213.017754 
L 124.854513 155.918554 
L 124.854513 155.918554 
L 125.179492 202.491641 
L 125.179492 202.491641 
L 125.504472 174.050435 
L 125.504472 174.050435 
L 125.829451 186.808452 
L 125.829451 186.808452 
L 126.154431 179.82559 
L 126.154431 179.82559 
L 126.47941 130.263159 
L 126.47941 130.263159 
L 126.80439 204.257754 
L 126.80439 204.257754 
L 127.129369 165.946861 
L 127.129369 165.946861 
L 127.454349 162.257313 
L 127.454349 162.257313 
L 127.779328 148.644477 
L 127.779328 148.644477 
L 128.104308 148.479399 
L 128.104308 148.479399 
L 128.429287 252.178065 
L 128.429287 252.178065 
L 129.404226 158.679293 
L 129.404226 158.679293 
L 129.729206 154.341216 
L 129.729206 154.341216 
L 130.054185 188.257735 
L 130.054185 188.257735 
L 130.704144 119.788915 
L 130.704144 119.788915 
L 131.029124 160.132531 
L 131.029124 160.132531 
L 131.354103 118.870452 
L 131.354103 118.870452 
L 131.679083 184.29691 
L 131.679083 184.29691 
L 132.004062 150.33915 
L 132.004062 150.33915 
L 132.329042 151.516675 
L 132.329042 151.516675 
L 132.654021 135.893202 
L 132.654021 135.893202 
L 132.979001 172.313824 
L 132.979001 172.313824 
L 133.30398 160.862006 
L 133.30398 160.862006 
L 133.62896 193.420304 
L 133.62896 193.420304 
L 133.953939 188.15103 
L 133.953939 188.15103 
L 134.278919 128.407818 
L 134.278919 128.407818 
L 134.603898 191.835826 
L 134.603898 191.835826 
L 134.928878 200.844723 
L 134.928878 200.844723 
L 135.253857 162.056126 
L 135.253857 162.056126 
L 135.578837 190.194715 
L 135.578837 190.194715 
L 135.903817 199.280489 
L 135.903817 199.280489 
L 136.228796 190.966632 
L 136.228796 190.966632 
L 136.553776 245.432904 
L 136.553776 245.432904 
L 136.878755 221.830889 
L 136.878755 221.830889 
L 137.203735 210.596085 
L 137.203735 210.596085 
L 137.528714 122.120489 
L 137.528714 122.120489 
L 137.853694 206.923066 
L 137.853694 206.923066 
L 138.178673 159.150715 
L 138.178673 159.150715 
L 138.503653 191.486334 
L 138.503653 191.486334 
L 138.828632 145.959157 
L 138.828632 145.959157 
L 139.153612 176.649025 
L 139.153612 176.649025 
L 139.478591 167.717462 
L 139.478591 167.717462 
L 139.803571 91.006669 
L 139.803571 91.006669 
L 140.45353 189.405376 
L 140.45353 189.405376 
L 140.778509 168.781301 
L 140.778509 168.781301 
L 141.103489 169.296527 
L 141.103489 169.296527 
L 141.428468 125.00874 
L 141.428468 125.00874 
L 141.753448 226.095351 
L 141.753448 226.095351 
L 142.078428 148.639351 
L 142.078428 148.639351 
L 142.403407 176.149082 
L 142.403407 176.149082 
L 142.728387 181.180227 
L 142.728387 181.180227 
L 143.053366 159.518754 
L 143.053366 159.518754 
L 143.378346 209.878312 
L 143.378346 209.878312 
L 143.703325 213.112677 
L 143.703325 213.112677 
L 144.028305 92.329429 
L 144.028305 92.329429 
L 144.353284 190.110957 
L 144.353284 190.110957 
L 144.678264 194.908282 
L 144.678264 194.908282 
L 145.003243 224.008852 
L 145.003243 224.008852 
L 145.328223 156.611968 
L 145.328223 156.611968 
L 145.653202 215.86689 
L 145.653202 215.86689 
L 145.978182 147.004575 
L 145.978182 147.004575 
L 146.303161 175.647943 
L 146.303161 175.647943 
L 146.628141 158.376986 
L 146.628141 158.376986 
L 146.95312 221.186525 
L 146.95312 221.186525 
L 147.2781 184.884023 
L 147.2781 184.884023 
L 147.603079 219.447023 
L 147.603079 219.447023 
L 147.928059 128.485042 
L 147.928059 128.485042 
L 148.253038 175.993954 
L 148.253038 175.993954 
L 148.578018 137.216277 
L 148.578018 137.216277 
L 148.902998 132.032839 
L 148.902998 132.032839 
L 149.227977 178.033015 
L 149.227977 178.033015 
L 149.552957 174.350914 
L 149.552957 174.350914 
L 149.877936 202.408741 
L 149.877936 202.408741 
L 150.202916 161.462743 
L 150.202916 161.462743 
L 150.852875 202.068202 
L 150.852875 202.068202 
L 151.177854 105.884451 
L 151.177854 105.884451 
L 151.502834 128.17202 
L 151.502834 128.17202 
L 151.827813 119.50459 
L 151.827813 119.50459 
L 152.152793 144.95619 
L 152.152793 144.95619 
L 152.477772 144.618406 
L 152.477772 144.618406 
L 152.802752 138.888522 
L 152.802752 138.888522 
L 153.452711 216.587278 
L 153.452711 216.587278 
L 153.77769 197.482178 
L 153.77769 197.482178 
L 154.10267 187.397415 
L 154.10267 187.397415 
L 154.427649 183.579339 
L 154.427649 183.579339 
L 154.752629 152.726239 
L 154.752629 152.726239 
L 155.077609 165.334078 
L 155.077609 165.334078 
L 155.402588 214.326472 
L 155.402588 214.326472 
L 155.727568 138.928052 
L 155.727568 138.928052 
L 156.052547 202.312544 
L 156.052547 202.312544 
L 156.377527 172.341208 
L 156.377527 172.341208 
L 156.702506 186.300298 
L 156.702506 186.300298 
L 157.352465 166.660077 
L 157.352465 166.660077 
L 157.677445 162.296068 
L 157.677445 162.296068 
L 158.002424 81.433857 
L 158.002424 81.433857 
L 158.327404 162.644031 
L 158.327404 162.644031 
L 158.652383 142.345047 
L 158.652383 142.345047 
L 158.977363 162.714602 
L 158.977363 162.714602 
L 159.302342 136.901829 
L 159.302342 136.901829 
L 159.627322 185.501858 
L 159.627322 185.501858 
L 159.952301 156.636791 
L 159.952301 156.636791 
L 160.277281 76.053713 
L 160.277281 76.053713 
L 160.60226 160.903692 
L 160.60226 160.903692 
L 160.92724 166.590021 
L 160.92724 166.590021 
L 161.252219 142.10427 
L 161.252219 142.10427 
L 161.577199 156.436535 
L 161.577199 156.436535 
L 161.902179 159.692999 
L 161.902179 159.692999 
L 162.227158 176.468102 
L 162.227158 176.468102 
L 162.552138 164.595953 
L 162.552138 164.595953 
L 163.202097 168.078101 
L 163.202097 168.078101 
L 163.852056 217.629773 
L 163.852056 217.629773 
L 164.177035 154.957927 
L 164.177035 154.957927 
L 164.502015 150.523249 
L 164.502015 150.523249 
L 164.826994 73.50751 
L 164.826994 73.50751 
L 165.151974 186.405387 
L 165.151974 186.405387 
L 165.476953 129.007654 
L 165.476953 129.007654 
L 165.801933 197.614718 
L 165.801933 197.614718 
L 166.126912 151.260109 
L 166.126912 151.260109 
L 166.451892 130.721955 
L 166.451892 130.721955 
L 166.776871 224.724422 
L 166.776871 224.724422 
L 167.101851 137.143483 
L 167.101851 137.143483 
L 167.42683 179.291247 
L 167.42683 179.291247 
L 167.75181 181.203489 
L 167.75181 181.203489 
L 168.07679 144.025292 
L 168.07679 144.025292 
L 168.401769 173.335874 
L 168.401769 173.335874 
L 168.726749 104.240956 
L 168.726749 104.240956 
L 169.051728 146.807905 
L 169.051728 146.807905 
L 169.376708 130.014051 
L 169.376708 130.014051 
L 169.701687 191.762799 
L 169.701687 191.762799 
L 170.026667 150.732087 
L 170.026667 150.732087 
L 170.351646 141.042798 
L 170.351646 141.042798 
L 170.676626 192.788151 
L 170.676626 192.788151 
L 171.001605 123.060312 
L 171.001605 123.060312 
L 171.326585 128.742206 
L 171.326585 128.742206 
L 171.651564 163.973613 
L 171.651564 163.973613 
L 171.976544 115.834079 
L 171.976544 115.834079 
L 172.301523 233.071561 
L 172.301523 233.071561 
L 172.626503 154.185312 
L 172.626503 154.185312 
L 172.951482 150.895957 
L 172.951482 150.895957 
L 173.276462 144.754092 
L 173.276462 144.754092 
L 173.601441 198.949812 
L 173.601441 198.949812 
L 173.926421 136.434888 
L 173.926421 136.434888 
L 174.2514 153.00764 
L 174.2514 153.00764 
L 174.57638 218.844669 
L 174.57638 218.844669 
L 174.90136 206.199876 
L 174.90136 206.199876 
L 175.226339 125.353866 
L 175.226339 125.353866 
L 175.551319 225.3579 
L 175.551319 225.3579 
L 175.876298 230.785 
L 175.876298 230.785 
L 176.201278 127.753913 
L 176.201278 127.753913 
L 176.526257 156.425188 
L 176.526257 156.425188 
L 176.851237 137.275169 
L 176.851237 137.275169 
L 177.176216 158.329959 
L 177.176216 158.329959 
L 177.501196 170.621451 
L 177.501196 170.621451 
L 177.826175 158.784419 
L 177.826175 158.784419 
L 178.151155 114.276461 
L 178.151155 114.276461 
L 178.476134 197.851874 
L 178.476134 197.851874 
L 179.126093 113.452577 
L 179.126093 113.452577 
L 179.451073 153.387363 
L 179.451073 153.387363 
L 179.776052 176.189596 
L 179.776052 176.189596 
L 180.101032 175.155629 
L 180.101032 175.155629 
L 180.426011 189.189331 
L 180.426011 189.189331 
L 180.750991 138.249109 
L 180.750991 138.249109 
L 181.075971 202.932892 
L 181.075971 202.932892 
L 181.40095 227.078372 
L 181.40095 227.078372 
L 182.050909 117.494305 
L 182.050909 117.494305 
L 182.375889 197.59289 
L 182.375889 197.59289 
L 182.700868 180.600509 
L 182.700868 180.600509 
L 183.025848 118.862735 
L 183.025848 118.862735 
L 183.675807 194.385687 
L 183.675807 194.385687 
L 184.000786 204.87433 
L 184.000786 204.87433 
L 184.325766 251.231937 
L 184.325766 251.231937 
L 184.650745 178.999918 
L 184.650745 178.999918 
L 184.975725 162.307187 
L 184.975725 162.307187 
L 185.300704 102.88609 
L 185.300704 102.88609 
L 185.625684 202.07839 
L 185.625684 202.07839 
L 185.950663 109.367927 
L 185.950663 109.367927 
L 186.275643 204.880712 
L 186.275643 204.880712 
L 186.600622 194.229228 
L 186.600622 194.229228 
L 186.925602 147.799753 
L 186.925602 147.799753 
L 187.250581 178.8513 
L 187.250581 178.8513 
L 187.575561 229.396891 
L 187.575561 229.396891 
L 187.900541 128.169465 
L 187.900541 128.169465 
L 188.22552 239.713599 
L 188.22552 239.713599 
L 188.875479 149.951358 
L 188.875479 149.951358 
L 189.200459 164.49217 
L 189.200459 164.49217 
L 189.525438 188.431631 
L 189.525438 188.431631 
L 189.850418 128.899921 
L 189.850418 128.899921 
L 190.175397 130.104286 
L 190.175397 130.104286 
L 190.500377 189.287393 
L 190.500377 189.287393 
L 190.825356 192.794868 
L 190.825356 192.794868 
L 191.150336 161.079137 
L 191.150336 161.079137 
L 191.475315 173.576054 
L 191.475315 173.576054 
L 191.800295 147.002835 
L 191.800295 147.002835 
L 192.450254 182.01437 
L 192.450254 182.01437 
L 192.775233 183.865157 
L 192.775233 183.865157 
L 193.100213 205.445262 
L 193.100213 205.445262 
L 193.750172 161.066076 
L 193.750172 161.066076 
L 194.725111 235.494526 
L 194.725111 235.494526 
L 195.05009 157.685191 
L 195.05009 157.685191 
L 195.37507 161.510592 
L 195.37507 161.510592 
L 195.700049 132.602597 
L 195.700049 132.602597 
L 196.025029 198.187541 
L 196.025029 198.187541 
L 196.350008 203.884037 
L 196.350008 203.884037 
L 196.674988 112.925866 
L 196.674988 112.925866 
L 196.999967 125.011868 
L 196.999967 125.011868 
L 197.324947 272.452087 
L 197.324947 272.452087 
L 197.649926 188.599752 
L 197.649926 188.599752 
L 197.974906 138.172648 
L 197.974906 138.172648 
L 198.299885 169.914911 
L 198.299885 169.914911 
L 198.624865 123.778148 
L 198.624865 123.778148 
L 198.949844 156.155358 
L 198.949844 156.155358 
L 199.274824 116.908364 
L 199.274824 116.908364 
L 199.599803 162.51002 
L 199.599803 162.51002 
L 199.924783 165.887332 
L 199.924783 165.887332 
L 200.249762 183.006464 
L 200.249762 183.006464 
L 200.574742 211.186843 
L 200.574742 211.186843 
L 200.899722 187.367868 
L 200.899722 187.367868 
L 201.224701 212.265127 
L 201.224701 212.265127 
L 201.87466 124.156057 
L 201.87466 124.156057 
L 202.19964 159.867132 
L 202.19964 159.867132 
L 202.524619 182.998928 
L 202.524619 182.998928 
L 202.849599 197.142348 
L 202.849599 197.142348 
L 203.174578 138.323958 
L 203.174578 138.323958 
L 203.499558 156.412312 
L 203.499558 156.412312 
L 203.824537 150.716671 
L 203.824537 150.716671 
L 204.149517 137.035843 
L 204.149517 137.035843 
L 204.474496 232.801652 
L 204.474496 232.801652 
L 204.799476 126.265748 
L 204.799476 126.265748 
L 205.124455 194.010443 
L 205.124455 194.010443 
L 205.449435 132.997755 
L 205.449435 132.997755 
L 205.774414 188.367904 
L 205.774414 188.367904 
L 206.099394 171.652233 
L 206.099394 171.652233 
L 206.424373 197.165903 
L 206.424373 197.165903 
L 206.749353 172.971998 
L 206.749353 172.971998 
L 207.074333 133.213164 
L 207.074333 133.213164 
L 207.399312 187.156323 
L 207.399312 187.156323 
L 207.724292 154.105481 
L 207.724292 154.105481 
L 208.049271 134.948366 
L 208.049271 134.948366 
L 208.374251 127.536436 
L 208.374251 127.536436 
L 208.69923 137.076652 
L 208.69923 137.076652 
L 209.02421 251.484533 
L 209.02421 251.484533 
L 209.349189 138.950136 
L 209.349189 138.950136 
L 209.674169 176.650282 
L 209.674169 176.650282 
L 209.999148 104.737152 
L 209.999148 104.737152 
L 210.324128 105.991917 
L 210.324128 105.991917 
L 210.649107 159.415807 
L 210.649107 159.415807 
L 210.974087 140.754776 
L 210.974087 140.754776 
L 211.299066 195.540066 
L 211.299066 195.540066 
L 211.949025 109.366298 
L 211.949025 109.366298 
L 212.274005 224.083675 
L 212.274005 224.083675 
L 212.598984 128.577247 
L 212.598984 128.577247 
L 212.923964 155.938101 
L 212.923964 155.938101 
L 213.248943 147.251734 
L 213.248943 147.251734 
L 213.573923 234.55108 
L 213.573923 234.55108 
L 213.898903 133.412469 
L 213.898903 133.412469 
L 214.223882 197.874529 
L 214.223882 197.874529 
L 214.548862 188.775607 
L 214.548862 188.775607 
L 214.873841 171.850526 
L 214.873841 171.850526 
L 215.198821 164.948319 
L 215.198821 164.948319 
L 215.5238 196.400276 
L 215.5238 196.400276 
L 215.84878 122.907493 
L 215.84878 122.907493 
L 216.173759 148.347253 
L 216.173759 148.347253 
L 216.498739 145.67896 
L 216.498739 145.67896 
L 216.823718 103.980823 
L 216.823718 103.980823 
L 217.473677 160.251364 
L 217.473677 160.251364 
L 217.798657 177.51565 
L 217.798657 177.51565 
L 218.123636 149.258421 
L 218.123636 149.258421 
L 218.448616 146.386434 
L 218.448616 146.386434 
L 218.773595 179.105863 
L 218.773595 179.105863 
L 219.098575 147.170029 
L 219.098575 147.170029 
L 219.423554 173.612258 
L 219.423554 173.612258 
L 219.748534 144.519685 
L 219.748534 144.519685 
L 220.073514 101.962081 
L 220.073514 101.962081 
L 220.398493 191.326041 
L 220.398493 191.326041 
L 220.723473 129.103795 
L 220.723473 129.103795 
L 221.048452 164.747685 
L 221.048452 164.747685 
L 221.373432 182.003237 
L 221.373432 182.003237 
L 221.698411 144.608589 
L 221.698411 144.608589 
L 222.34837 207.533679 
L 222.34837 207.533679 
L 222.67335 175.591535 
L 222.67335 175.591535 
L 222.998329 130.552551 
L 222.998329 130.552551 
L 223.323309 189.620554 
L 223.323309 189.620554 
L 223.648288 157.525126 
L 223.648288 157.525126 
L 223.973268 141.377301 
L 223.973268 141.377301 
L 224.298247 136.472857 
L 224.298247 136.472857 
L 224.623227 117.446979 
L 224.623227 117.446979 
L 224.948206 234.303034 
L 224.948206 234.303034 
L 225.598165 190.895451 
L 225.598165 190.895451 
L 225.923145 139.264425 
L 225.923145 139.264425 
L 226.248124 206.015146 
L 226.248124 206.015146 
L 226.573104 117.512642 
L 226.573104 117.512642 
L 226.898084 144.645136 
L 226.898084 144.645136 
L 227.223063 189.512505 
L 227.223063 189.512505 
L 227.548043 185.273882 
L 227.548043 185.273882 
L 227.873022 144.312532 
L 227.873022 144.312532 
L 228.198002 198.292153 
L 228.198002 198.292153 
L 228.522981 161.281058 
L 228.522981 161.281058 
L 228.847961 144.21205 
L 228.847961 144.21205 
L 229.17294 108.459104 
L 229.17294 108.459104 
L 229.49792 168.193567 
L 229.49792 168.193567 
L 229.822899 99.102047 
L 229.822899 99.102047 
L 230.147879 184.541875 
L 230.147879 184.541875 
L 230.472858 159.810375 
L 230.472858 159.810375 
L 230.797838 104.212661 
L 230.797838 104.212661 
L 231.122817 196.778673 
L 231.122817 196.778673 
L 231.447797 237.681582 
L 231.447797 237.681582 
L 231.772776 215.517039 
L 231.772776 215.517039 
L 232.097756 185.204236 
L 232.097756 185.204236 
L 232.422735 175.669206 
L 232.422735 175.669206 
L 232.747715 152.084532 
L 232.747715 152.084532 
L 233.072695 168.526219 
L 233.072695 168.526219 
L 233.397674 149.664055 
L 233.397674 149.664055 
L 234.047633 260.472398 
L 234.047633 260.472398 
L 234.372613 149.628789 
L 234.372613 149.628789 
L 234.697592 185.562619 
L 234.697592 185.562619 
L 235.022572 201.149338 
L 235.022572 201.149338 
L 235.347551 205.941117 
L 235.347551 205.941117 
L 235.672531 145.655704 
L 235.672531 145.655704 
L 235.99751 132.317183 
L 235.99751 132.317183 
L 236.32249 175.825306 
L 236.32249 175.825306 
L 236.647469 178.939047 
L 236.647469 178.939047 
L 236.972449 175.750837 
L 236.972449 175.750837 
L 237.622408 83.119192 
L 237.622408 83.119192 
L 237.947387 190.387668 
L 237.947387 190.387668 
L 238.272367 181.356514 
L 238.272367 181.356514 
L 238.597346 183.233263 
L 238.597346 183.233263 
L 238.922326 149.627732 
L 238.922326 149.627732 
L 239.247305 151.466046 
L 239.247305 151.466046 
L 239.572285 214.039403 
L 239.572285 214.039403 
L 239.897265 187.017145 
L 239.897265 187.017145 
L 240.222244 226.937299 
L 240.222244 226.937299 
L 240.547224 127.122685 
L 240.547224 127.122685 
L 241.197183 202.453418 
L 241.197183 202.453418 
L 241.522162 149.624333 
L 241.522162 149.624333 
L 241.847142 215.808078 
L 241.847142 215.808078 
L 242.172121 190.494606 
L 242.172121 190.494606 
L 242.497101 136.645953 
L 242.497101 136.645953 
L 242.82208 196.717306 
L 242.82208 196.717306 
L 243.14706 180.497107 
L 243.14706 180.497107 
L 243.472039 222.122624 
L 243.472039 222.122624 
L 243.797019 190.60827 
L 243.797019 190.60827 
L 244.121998 140.999437 
L 244.121998 140.999437 
L 244.446978 198.693113 
L 244.446978 198.693113 
L 244.771957 168.970439 
L 244.771957 168.970439 
L 245.096937 225.944234 
L 245.096937 225.944234 
L 245.421916 150.93528 
L 245.421916 150.93528 
L 245.746896 181.281772 
L 245.746896 181.281772 
L 246.071876 136.647023 
L 246.071876 136.647023 
L 246.396855 206.332372 
L 246.396855 206.332372 
L 246.721835 173.084433 
L 246.721835 173.084433 
L 247.046814 108.15613 
L 247.046814 108.15613 
L 247.696773 185.481454 
L 247.696773 185.481454 
L 248.021753 156.925708 
L 248.021753 156.925708 
L 248.346732 183.081893 
L 248.346732 183.081893 
L 248.996691 160.150887 
L 248.996691 160.150887 
L 249.321671 53.568 
L 249.321671 53.568 
L 249.64665 175.351838 
L 249.64665 175.351838 
L 249.97163 223.541631 
L 249.97163 223.541631 
L 250.296609 195.24405 
L 250.296609 195.24405 
L 250.621589 125.24545 
L 250.621589 125.24545 
L 250.946568 133.673689 
L 250.946568 133.673689 
L 251.271548 186.660074 
L 251.271548 186.660074 
L 251.596527 209.144977 
L 251.596527 209.144977 
L 251.921507 187.126382 
L 251.921507 187.126382 
L 252.246486 175.103956 
L 252.246486 175.103956 
L 252.571466 206.48745 
L 252.571466 206.48745 
L 252.896446 295.488 
L 252.896446 295.488 
L 253.221425 160.437926 
L 253.221425 160.437926 
L 253.546405 206.150247 
L 253.546405 206.150247 
L 253.871384 98.781875 
L 253.871384 98.781875 
L 254.196364 183.952878 
L 254.196364 183.952878 
L 254.846323 137.513688 
L 254.846323 137.513688 
L 255.171302 127.816737 
L 255.171302 127.816737 
L 255.496282 180.393092 
L 255.496282 180.393092 
L 255.821261 104.4435 
L 255.821261 104.4435 
L 256.146241 172.212209 
L 256.146241 172.212209 
L 256.47122 184.713352 
L 256.47122 184.713352 
L 256.7962 181.049459 
L 256.7962 181.049459 
L 257.121179 116.802636 
L 257.121179 116.802636 
L 257.446159 99.682894 
L 257.446159 99.682894 
L 257.771138 107.252879 
L 257.771138 107.252879 
L 258.096118 154.08304 
L 258.096118 154.08304 
L 258.421097 153.472464 
L 258.421097 153.472464 
L 258.746077 172.002543 
L 258.746077 172.002543 
L 259.071057 161.051156 
L 259.071057 161.051156 
L 259.396036 211.233116 
L 259.396036 211.233116 
L 260.045995 150.623543 
L 260.045995 150.623543 
L 260.370975 182.09242 
L 260.370975 182.09242 
L 260.695954 129.960999 
L 260.695954 129.960999 
L 261.345913 190.460921 
L 261.345913 190.460921 
L 261.670893 215.848798 
L 261.670893 215.848798 
L 261.995872 167.278915 
L 261.995872 167.278915 
L 262.320852 148.387296 
L 262.320852 148.387296 
L 262.645831 226.000028 
L 262.645831 226.000028 
L 262.970811 119.156989 
L 262.970811 119.156989 
L 263.29579 168.926396 
L 263.29579 168.926396 
L 263.945749 114.088907 
L 263.945749 114.088907 
L 264.270729 164.949918 
L 264.270729 164.949918 
L 264.595708 175.797025 
L 264.595708 175.797025 
L 264.920688 190.632549 
L 264.920688 190.632549 
L 265.245667 146.816651 
L 265.245667 146.816651 
L 265.570647 131.77834 
L 265.570647 131.77834 
L 266.220606 192.089443 
L 266.220606 192.089443 
L 266.545586 112.876859 
L 266.545586 112.876859 
L 266.870565 132.103816 
L 266.870565 132.103816 
L 267.195545 111.840574 
L 267.195545 111.840574 
L 267.845504 134.486421 
L 267.845504 134.486421 
L 268.170483 134.270632 
L 268.170483 134.270632 
L 268.495463 129.093204 
L 268.495463 129.093204 
L 268.820442 183.836282 
L 268.820442 183.836282 
L 269.145422 182.972156 
L 269.145422 182.972156 
L 269.470401 191.5348 
L 269.470401 191.5348 
L 269.795381 102.457535 
L 269.795381 102.457535 
L 270.12036 203.972106 
L 270.12036 203.972106 
L 270.44534 191.353337 
L 270.44534 191.353337 
L 270.770319 192.548536 
L 270.770319 192.548536 
L 271.095299 163.299036 
L 271.095299 163.299036 
L 271.745258 192.38554 
L 271.745258 192.38554 
L 272.070238 117.643197 
L 272.070238 117.643197 
L 272.395217 224.869137 
L 272.395217 224.869137 
L 272.720197 195.750137 
L 272.720197 195.750137 
L 273.045176 211.297298 
L 273.045176 211.297298 
L 273.370156 180.850452 
L 273.370156 180.850452 
L 273.695135 129.853316 
L 273.695135 129.853316 
L 274.020115 165.120111 
L 274.020115 165.120111 
L 274.345094 117.801596 
L 274.345094 117.801596 
L 274.670074 141.219815 
L 274.670074 141.219815 
L 274.995053 133.367849 
L 274.995053 133.367849 
L 275.320033 149.96915 
L 275.320033 149.96915 
L 275.645012 153.339369 
L 275.645012 153.339369 
L 275.969992 117.726153 
L 275.969992 117.726153 
L 276.294971 128.146168 
L 276.294971 128.146168 
L 276.619951 106.840428 
L 276.619951 106.840428 
L 276.94493 145.889967 
L 276.94493 145.889967 
L 277.26991 151.577058 
L 277.26991 151.577058 
L 277.594889 210.891881 
L 277.594889 210.891881 
L 277.919869 205.601327 
L 277.919869 205.601327 
L 278.244848 94.952827 
L 278.244848 94.952827 
L 278.569828 223.443168 
L 278.569828 223.443168 
L 278.894808 188.478673 
L 278.894808 188.478673 
L 279.219787 205.390712 
L 279.219787 205.390712 
L 279.544767 207.329713 
L 279.544767 207.329713 
L 279.869746 121.497392 
L 279.869746 121.497392 
L 280.194726 198.838419 
L 280.194726 198.838419 
L 280.519705 180.811711 
L 280.519705 180.811711 
L 280.844685 237.985461 
L 280.844685 237.985461 
L 281.169664 147.219408 
L 281.169664 147.219408 
L 281.494644 172.991134 
L 281.494644 172.991134 
L 281.819623 210.530421 
L 281.819623 210.530421 
L 282.144603 174.437506 
L 282.144603 174.437506 
L 282.469582 177.068557 
L 282.469582 177.068557 
L 283.119541 151.67791 
L 283.119541 151.67791 
L 283.444521 175.875667 
L 283.444521 175.875667 
L 283.7695 163.13283 
L 283.7695 163.13283 
L 284.09448 214.74737 
L 284.09448 214.74737 
L 284.744439 97.773406 
L 284.744439 97.773406 
L 285.069419 140.715463 
L 285.069419 140.715463 
L 285.394398 156.087863 
L 285.394398 156.087863 
L 285.719378 191.081667 
L 285.719378 191.081667 
L 286.044357 93.680085 
L 286.044357 93.680085 
L 286.369337 181.892873 
L 286.369337 181.892873 
L 286.694316 215.321371 
L 286.694316 215.321371 
L 287.019296 171.843314 
L 287.019296 171.843314 
L 287.344275 198.568912 
L 287.344275 198.568912 
L 287.669255 204.523856 
L 287.669255 204.523856 
L 287.994234 75.035141 
L 287.994234 75.035141 
L 288.319214 157.171216 
L 288.319214 157.171216 
L 288.644193 151.186943 
L 288.644193 151.186943 
L 288.969173 178.961431 
L 288.969173 178.961431 
L 289.294152 226.541658 
L 289.294152 226.541658 
L 289.619132 232.469239 
L 289.619132 232.469239 
L 289.944111 166.366658 
L 289.944111 166.366658 
L 290.59407 258.078137 
L 290.59407 258.078137 
L 291.244029 166.941234 
L 291.244029 166.941234 
L 291.569009 185.264106 
L 291.569009 185.264106 
L 291.893989 171.118081 
L 291.893989 171.118081 
L 292.218968 219.266613 
L 292.218968 219.266613 
L 292.868927 136.007769 
L 292.868927 136.007769 
L 293.193907 123.233681 
L 293.193907 123.233681 
L 293.518886 239.169094 
L 293.518886 239.169094 
L 293.843866 155.069334 
L 293.843866 155.069334 
L 294.168845 153.219786 
L 294.168845 153.219786 
L 294.493825 87.498455 
L 294.493825 87.498455 
L 294.818804 122.231408 
L 294.818804 122.231408 
L 295.143784 115.114063 
L 295.143784 115.114063 
L 295.468763 229.377141 
L 295.468763 229.377141 
L 295.793743 145.8097 
L 295.793743 145.8097 
L 296.443702 159.285459 
L 296.443702 159.285459 
L 296.768681 176.89051 
L 296.768681 176.89051 
L 297.093661 135.640118 
L 297.093661 135.640118 
L 297.41864 233.978062 
L 297.41864 233.978062 
L 297.74362 157.803241 
L 297.74362 157.803241 
L 298.0686 202.448753 
L 298.0686 202.448753 
L 298.393579 197.402525 
L 298.393579 197.402525 
L 298.718559 174.452731 
L 298.718559 174.452731 
L 299.043538 213.850762 
L 299.043538 213.850762 
L 299.368518 227.486216 
L 299.368518 227.486216 
L 299.693497 145.082755 
L 299.693497 145.082755 
L 300.343456 275.452828 
L 300.343456 275.452828 
L 300.668436 166.375292 
L 300.668436 166.375292 
L 300.993415 123.305166 
L 300.993415 123.305166 
L 301.318395 150.118767 
L 301.318395 150.118767 
L 301.968354 129.48009 
L 301.968354 129.48009 
L 302.618313 192.507896 
L 302.618313 192.507896 
L 302.943292 113.657208 
L 302.943292 113.657208 
L 303.268272 193.599516 
L 303.268272 193.599516 
L 303.593251 166.36316 
L 303.593251 166.36316 
L 303.918231 156.207657 
L 303.918231 156.207657 
L 304.24321 178.886345 
L 304.24321 178.886345 
L 304.89317 72.945923 
L 304.89317 72.945923 
L 305.218149 149.875729 
L 305.218149 149.875729 
L 305.543129 194.35785 
L 305.543129 194.35785 
L 306.193088 116.876941 
L 306.193088 116.876941 
L 306.518067 169.305143 
L 306.518067 169.305143 
L 306.843047 197.64287 
L 306.843047 197.64287 
L 307.168026 195.126255 
L 307.168026 195.126255 
L 307.493006 144.862061 
L 307.493006 144.862061 
L 307.817985 117.00969 
L 307.817985 117.00969 
L 308.142965 237.437462 
L 308.142965 237.437462 
L 308.792924 145.373228 
L 308.792924 145.373228 
L 309.117903 195.984537 
L 309.117903 195.984537 
L 309.442883 204.743662 
L 309.442883 204.743662 
L 309.767862 176.774099 
L 309.767862 176.774099 
L 310.092842 200.898971 
L 310.092842 200.898971 
L 310.417821 125.568487 
L 310.417821 125.568487 
L 310.742801 187.750406 
L 310.742801 187.750406 
L 311.067781 140.38809 
L 311.067781 140.38809 
L 311.39276 168.843023 
L 311.39276 168.843023 
L 311.71774 185.138222 
L 311.71774 185.138222 
L 312.042719 155.163043 
L 312.042719 155.163043 
L 312.367699 215.954258 
L 312.367699 215.954258 
L 312.692678 81.196308 
L 312.692678 81.196308 
L 313.017658 124.970431 
L 313.017658 124.970431 
L 313.342637 103.946652 
L 313.342637 103.946652 
L 313.667617 99.711197 
L 313.667617 99.711197 
L 313.992596 152.053359 
L 313.992596 152.053359 
L 314.317576 134.134531 
L 314.317576 134.134531 
L 314.642555 140.40138 
L 314.642555 140.40138 
L 314.967535 119.677879 
L 314.967535 119.677879 
L 315.292514 152.656417 
L 315.292514 152.656417 
L 315.617494 131.610128 
L 315.617494 131.610128 
L 315.942473 119.353129 
L 315.942473 119.353129 
L 316.267453 241.652762 
L 316.267453 241.652762 
L 316.592432 150.713105 
L 316.592432 150.713105 
L 316.917412 191.924777 
L 316.917412 191.924777 
L 317.242391 198.430263 
L 317.242391 198.430263 
L 317.567371 183.513669 
L 317.567371 183.513669 
L 317.892351 200.990751 
L 317.892351 200.990751 
L 318.21733 177.670595 
L 318.21733 177.670595 
L 318.54231 225.690952 
L 318.54231 225.690952 
L 318.867289 137.402539 
L 318.867289 137.402539 
L 319.192269 153.402012 
L 319.192269 153.402012 
L 319.517248 155.793935 
L 319.517248 155.793935 
L 319.842228 142.34846 
L 319.842228 142.34846 
L 320.167207 186.244941 
L 320.167207 186.244941 
L 320.492187 172.222449 
L 320.492187 172.222449 
L 320.817166 216.032095 
L 320.817166 216.032095 
L 321.142146 97.328237 
L 321.142146 97.328237 
L 321.467125 192.729508 
L 321.467125 192.729508 
L 321.792105 122.7447 
L 321.792105 122.7447 
L 322.117084 82.139886 
L 322.117084 82.139886 
L 322.767043 138.995235 
L 322.767043 138.995235 
L 323.092023 187.835683 
L 323.092023 187.835683 
L 323.741982 78.930205 
L 323.741982 78.930205 
L 324.066962 197.646473 
L 324.066962 197.646473 
L 324.716921 178.890089 
L 324.716921 178.890089 
L 325.0419 143.348486 
L 325.0419 143.348486 
L 325.36688 174.556083 
L 325.36688 174.556083 
L 325.691859 172.40141 
L 325.691859 172.40141 
L 326.016839 161.404398 
L 326.016839 161.404398 
L 326.341818 173.584302 
L 326.341818 173.584302 
L 326.666798 138.294554 
L 326.666798 138.294554 
L 326.991777 181.826357 
L 326.991777 181.826357 
L 327.316757 179.661695 
L 327.316757 179.661695 
L 327.641736 196.379619 
L 327.641736 196.379619 
L 327.966716 175.381986 
L 327.966716 175.381986 
L 328.291695 240.230364 
L 328.291695 240.230364 
L 328.616675 167.910409 
L 328.616675 167.910409 
L 328.941654 164.768002 
L 328.941654 164.768002 
L 329.266634 181.723513 
L 329.266634 181.723513 
L 329.591613 191.133247 
L 329.591613 191.133247 
L 329.916593 163.045893 
L 329.916593 163.045893 
L 330.241572 166.712335 
L 330.241572 166.712335 
L 330.566552 201.617425 
L 330.566552 201.617425 
L 330.891532 156.305967 
L 330.891532 156.305967 
L 331.216511 189.698145 
L 331.216511 189.698145 
L 331.541491 166.468995 
L 331.541491 166.468995 
L 331.86647 67.807054 
L 331.86647 67.807054 
L 332.19145 174.840418 
L 332.19145 174.840418 
L 332.516429 112.1424 
L 332.516429 112.1424 
L 332.841409 127.214655 
L 332.841409 127.214655 
L 333.166388 182.726811 
L 333.166388 182.726811 
L 333.491368 152.610916 
L 333.491368 152.610916 
L 333.816347 109.375568 
L 333.816347 109.375568 
L 334.141327 197.32479 
L 334.141327 197.32479 
L 334.466306 219.364924 
L 334.466306 219.364924 
L 334.791286 209.17096 
L 334.791286 209.17096 
L 335.116265 108.336728 
L 335.116265 108.336728 
L 335.441245 168.852804 
L 335.441245 168.852804 
L 335.766224 130.955896 
L 335.766224 130.955896 
L 336.091204 207.574712 
L 336.091204 207.574712 
L 336.416183 186.867079 
L 336.416183 186.867079 
L 336.741163 248.229847 
L 336.741163 248.229847 
L 337.066143 214.179458 
L 337.066143 214.179458 
L 337.391122 265.225926 
L 337.391122 265.225926 
L 337.716102 188.10726 
L 337.716102 188.10726 
L 338.041081 223.861658 
L 338.041081 223.861658 
L 338.366061 142.438071 
L 338.366061 142.438071 
L 338.69104 154.816671 
L 338.69104 154.816671 
L 339.01602 190.844787 
L 339.01602 190.844787 
L 339.340999 204.194057 
L 339.340999 204.194057 
L 339.665979 146.821343 
L 339.665979 146.821343 
L 339.990958 137.659372 
L 339.990958 137.659372 
L 340.315938 158.545397 
L 340.315938 158.545397 
L 340.640917 120.40581 
L 340.640917 120.40581 
L 341.290876 213.111989 
L 341.290876 213.111989 
L 341.615856 97.14942 
L 341.615856 97.14942 
L 341.940835 171.692499 
L 341.940835 171.692499 
L 342.265815 175.968594 
L 342.265815 175.968594 
L 342.590794 132.438607 
L 342.590794 132.438607 
L 343.240753 215.977195 
L 343.240753 215.977195 
L 343.565733 158.525736 
L 343.565733 158.525736 
L 343.890713 148.767755 
L 343.890713 148.767755 
L 344.215692 161.301525 
L 344.215692 161.301525 
L 344.540672 189.178827 
L 344.540672 189.178827 
L 344.865651 180.597868 
L 344.865651 180.597868 
L 345.190631 200.339729 
L 345.190631 200.339729 
L 345.51561 162.068649 
L 345.51561 162.068649 
L 345.84059 230.229211 
L 345.84059 230.229211 
L 346.165569 200.101466 
L 346.165569 200.101466 
L 346.490549 198.494184 
L 346.490549 198.494184 
L 346.815528 146.026279 
L 346.815528 146.026279 
L 347.465487 201.764911 
L 347.465487 201.764911 
L 347.790467 174.550936 
L 347.790467 174.550936 
L 348.115446 225.673487 
L 348.115446 225.673487 
L 348.440426 148.103263 
L 348.440426 148.103263 
L 348.765405 150.132789 
L 348.765405 150.132789 
L 349.090385 198.168894 
L 349.090385 198.168894 
L 349.740344 150.609599 
L 349.740344 150.609599 
L 350.065324 152.085388 
L 350.065324 152.085388 
L 350.390303 154.229777 
L 350.390303 154.229777 
L 350.715283 199.860843 
L 350.715283 199.860843 
L 351.040262 152.966087 
L 351.040262 152.966087 
L 351.365242 161.536044 
L 351.365242 161.536044 
L 351.690221 142.013397 
L 351.690221 142.013397 
L 352.015201 157.33967 
L 352.015201 157.33967 
L 352.34018 104.817132 
L 352.34018 104.817132 
L 352.66516 103.290443 
L 352.66516 103.290443 
L 352.990139 215.526651 
L 352.990139 215.526651 
L 353.315119 110.338204 
L 353.315119 110.338204 
L 353.640098 173.965023 
L 353.640098 173.965023 
L 354.290057 141.593224 
L 354.290057 141.593224 
L 354.615037 214.319249 
L 354.615037 214.319249 
L 354.940016 199.519943 
L 354.940016 199.519943 
L 355.264996 198.355528 
L 355.264996 198.355528 
L 355.589975 210.168136 
L 355.589975 210.168136 
L 355.914955 185.911564 
L 355.914955 185.911564 
L 356.239934 221.481756 
L 356.239934 221.481756 
L 356.564914 107.404559 
L 356.564914 107.404559 
L 356.889894 196.116904 
L 356.889894 196.116904 
L 357.214873 179.47364 
L 357.214873 179.47364 
L 357.539853 149.3038 
L 357.539853 149.3038 
L 358.189812 188.076035 
L 358.189812 188.076035 
L 358.514791 185.439285 
L 358.514791 185.439285 
L 358.839771 105.784417 
L 358.839771 105.784417 
L 359.48973 195.887157 
L 359.48973 195.887157 
L 359.814709 157.392486 
L 359.814709 157.392486 
L 360.139689 96.159861 
L 360.139689 96.159861 
L 360.464668 56.012384 
L 360.464668 56.012384 
L 360.789648 156.404082 
L 360.789648 156.404082 
L 361.114627 108.556253 
L 361.114627 108.556253 
L 361.439607 174.812296 
L 361.439607 174.812296 
L 361.764586 160.824512 
L 361.764586 160.824512 
L 362.089566 198.541883 
L 362.089566 198.541883 
L 362.414545 169.596312 
L 362.414545 169.596312 
L 362.739525 159.6025 
L 362.739525 159.6025 
L 363.064505 99.558593 
L 363.064505 99.558593 
L 363.389484 167.18543 
L 363.389484 167.18543 
L 363.714464 195.104878 
L 363.714464 195.104878 
L 364.039443 169.229516 
L 364.039443 169.229516 
L 364.364423 159.470708 
L 364.364423 159.470708 
L 364.689402 227.322021 
L 364.689402 227.322021 
L 365.014382 157.439629 
L 365.014382 157.439629 
L 365.339361 207.15863 
L 365.339361 207.15863 
L 365.664341 106.062159 
L 365.664341 106.062159 
L 366.3143 175.138336 
L 366.3143 175.138336 
L 366.639279 154.677416 
L 366.639279 154.677416 
L 366.964259 150.087511 
L 366.964259 150.087511 
L 367.289238 129.222998 
L 367.289238 129.222998 
L 367.614218 205.496961 
L 367.614218 205.496961 
L 367.939197 194.057603 
L 367.939197 194.057603 
L 368.264177 193.256461 
L 368.264177 193.256461 
L 368.589156 152.880418 
L 368.589156 152.880418 
L 368.914136 146.299446 
L 368.914136 146.299446 
L 369.239115 117.922124 
L 369.239115 117.922124 
L 369.564095 129.432516 
L 369.564095 129.432516 
L 369.889075 152.180687 
L 369.889075 152.180687 
L 370.214054 116.940968 
L 370.214054 116.940968 
L 370.539034 155.246264 
L 370.539034 155.246264 
L 370.864013 142.375173 
L 370.864013 142.375173 
L 371.188993 166.703141 
L 371.188993 166.703141 
L 371.513972 173.973287 
L 371.513972 173.973287 
L 371.838952 132.958029 
L 371.838952 132.958029 
L 372.163931 179.69656 
L 372.163931 179.69656 
L 372.488911 122.94967 
L 372.488911 122.94967 
L 372.81389 133.538314 
L 372.81389 133.538314 
L 373.13887 181.360168 
L 373.13887 181.360168 
L 373.463849 180.586006 
L 373.463849 180.586006 
L 373.788829 130.244414 
L 373.788829 130.244414 
L 374.113808 158.740696 
L 374.113808 158.740696 
L 374.438788 223.484533 
L 374.438788 223.484533 
L 374.763767 152.928178 
L 374.763767 152.928178 
L 375.088747 149.933875 
L 375.088747 149.933875 
L 375.413726 245.793467 
L 375.413726 245.793467 
L 375.738706 177.321402 
L 375.738706 177.321402 
L 376.063686 233.626446 
L 376.063686 233.626446 
L 376.388665 148.532959 
L 376.388665 148.532959 
L 376.713645 196.127242 
L 376.713645 196.127242 
L 377.038624 148.741061 
L 377.038624 148.741061 
L 377.363604 157.199646 
L 377.363604 157.199646 
L 377.688583 119.174603 
L 377.688583 119.174603 
L 378.013563 183.032448 
L 378.013563 183.032448 
L 378.338542 162.512125 
L 378.338542 162.512125 
L 378.663522 193.204556 
L 378.663522 193.204556 
L 378.988501 77.932126 
L 378.988501 77.932126 
L 379.313481 108.757241 
L 379.313481 108.757241 
L 379.63846 181.340215 
L 379.63846 181.340215 
L 379.96344 168.203708 
L 379.96344 168.203708 
L 380.288419 160.808413 
L 380.288419 160.808413 
L 380.613399 138.823393 
L 380.613399 138.823393 
L 381.263358 213.242556 
L 381.263358 213.242556 
L 381.588337 117.459319 
L 381.588337 117.459319 
L 381.913317 181.97445 
L 381.913317 181.97445 
L 382.238296 188.438339 
L 382.238296 188.438339 
L 382.563276 205.977533 
L 382.563276 205.977533 
L 382.888256 164.273287 
L 382.888256 164.273287 
L 383.213235 147.585022 
L 383.213235 147.585022 
L 383.538215 196.721636 
L 383.538215 196.721636 
L 383.863194 170.08998 
L 383.863194 170.08998 
L 384.188174 211.263795 
L 384.188174 211.263795 
L 384.513153 190.454723 
L 384.513153 190.454723 
L 384.838133 192.746366 
L 384.838133 192.746366 
L 385.163112 220.801698 
L 385.163112 220.801698 
L 385.488092 99.806388 
L 385.488092 99.806388 
L 385.813071 206.290128 
L 385.813071 206.290128 
L 386.138051 144.829954 
L 386.138051 144.829954 
L 386.46303 183.444938 
L 386.46303 183.444938 
L 386.78801 184.571331 
L 386.78801 184.571331 
L 387.112989 182.702034 
L 387.112989 182.702034 
L 387.437969 177.173289 
L 387.437969 177.173289 
L 387.762948 123.241942 
L 387.762948 123.241942 
L 388.087928 161.502961 
L 388.087928 161.502961 
L 388.412907 174.468643 
L 388.412907 174.468643 
L 388.737887 198.800652 
L 388.737887 198.800652 
L 389.062867 183.89649 
L 389.062867 183.89649 
L 389.387846 197.033728 
L 389.387846 197.033728 
L 389.712826 184.205025 
L 389.712826 184.205025 
L 390.037805 151.516551 
L 390.037805 151.516551 
L 390.362785 195.814114 
L 390.362785 195.814114 
L 390.687764 133.968096 
L 390.687764 133.968096 
L 391.012744 97.423214 
L 391.012744 97.423214 
L 391.337723 173.753848 
L 391.337723 173.753848 
L 391.662703 141.531071 
L 391.662703 141.531071 
L 391.987682 188.736128 
L 391.987682 188.736128 
L 392.312662 175.305664 
L 392.312662 175.305664 
L 392.637641 224.575268 
L 392.637641 224.575268 
L 392.962621 203.585215 
L 392.962621 203.585215 
L 393.2876 156.783362 
L 393.2876 156.783362 
L 393.61258 230.129027 
L 393.61258 230.129027 
L 393.937559 149.966496 
L 393.937559 149.966496 
L 394.912498 197.732052 
L 394.912498 197.732052 
L 395.237477 166.064625 
L 395.237477 166.064625 
L 395.562457 213.28707 
L 395.562457 213.28707 
L 395.887437 213.21048 
L 395.887437 213.21048 
L 396.212416 191.628831 
L 396.212416 191.628831 
L 396.537396 148.499928 
L 396.537396 148.499928 
L 396.862375 187.248237 
L 396.862375 187.248237 
L 397.187355 150.36923 
L 397.187355 150.36923 
L 397.512334 178.218391 
L 397.512334 178.218391 
L 397.837314 98.569544 
L 397.837314 98.569544 
L 398.162293 139.315254 
L 398.162293 139.315254 
L 398.487273 231.836677 
L 398.487273 231.836677 
" style="fill:none;stroke:#1f77b4;stroke-linecap:square;stroke-width:1.5;"/>
   </g>
   <g id="patch_3">
    <path d="M 57.6 307.584 
L 57.6 41.472 
" style="fill:none;stroke:#000000;stroke-linecap:square;stroke-linejoin:miter;stroke-width:0.8;"/>
   </g>
   <g id="patch_4">
    <path d="M 414.72 307.584 
L 414.72 41.472 
" style="fill:none;stroke:#000000;stroke-linecap:square;stroke-linejoin:miter;stroke-width:0.8;"/>
   </g>
   <g id="patch_5">
    <path d="M 57.6 307.584 
L 414.72 307.584 
" style="fill:none;stroke:#000000;stroke-linecap:square;stroke-linejoin:miter;stroke-width:0.8;"/>
   </g>
   <g id="patch_6">
    <path d="M 57.6 41.472 
L 414.72 41.472 
" style="fill:none;stroke:#000000;stroke-linecap:square;stroke-linejoin:miter;stroke-width:0.8;"/>
   </g>
  </g>
 </g>
 <defs>
  <clipPath id="p2ed915367b">
   <rect height="266.112" width="357.12" x="57.6" y="41.472"/>
  </clipPath>
 </defs>
</svg>
